solid OpenSCAD_Model
  facet normal -1 0 0
    outer loop
      vertex -58 -6.8 1.5099e-15
      vertex -58 4.44089e-15 20
      vertex -58 0 0
    endloop
  endfacet
  facet normal -1 -0 0
    outer loop
      vertex -58 4.44089e-15 20
      vertex -58 -6.8 1.5099e-15
      vertex -58 -6.8 20
    endloop
  endfacet
  facet normal 0 -1 0
    outer loop
      vertex -54 -3 6.66134e-16
      vertex -4 -3 20
      vertex -54 -3 20
    endloop
  endfacet
  facet normal 0 -1 -0
    outer loop
      vertex -4 -3 20
      vertex -54 -3 6.66134e-16
      vertex -4 -3 6.66134e-16
    endloop
  endfacet
  facet normal -1 0 0
    outer loop
      vertex 0 -36 7.99361e-15
      vertex 0 -6.8 20
      vertex 0 -6.8 1.5099e-15
    endloop
  endfacet
  facet normal -1 -0 0
    outer loop
      vertex 0 -6.8 20
      vertex 0 -36 7.99361e-15
      vertex 0 -36 20
    endloop
  endfacet
  facet normal 0 0 1
    outer loop
      vertex 26 4.44089e-15 20
      vertex 23 -3 20
      vertex 26 -36 20
    endloop
  endfacet
  facet normal 0 0 1
    outer loop
      vertex 26 4.44089e-15 20
      vertex 3 -3 20
      vertex 23 -3 20
    endloop
  endfacet
  facet normal 0 0 1
    outer loop
      vertex 3 -3 20
      vertex 0 -6.8 20
      vertex 3 -36 20
    endloop
  endfacet
  facet normal 0 0 1
    outer loop
      vertex 3 -3 20
      vertex -4 -3 20
      vertex 0 -6.8 20
    endloop
  endfacet
  facet normal 0 0 1
    outer loop
      vertex 26 4.44089e-15 20
      vertex -4 -3 20
      vertex 3 -3 20
    endloop
  endfacet
  facet normal -0 0 1
    outer loop
      vertex -58 4.44089e-15 20
      vertex -4 -3 20
      vertex 26 4.44089e-15 20
    endloop
  endfacet
  facet normal 0 0 1
    outer loop
      vertex -58 -6.8 20
      vertex -54 -3 20
      vertex -58 4.44089e-15 20
    endloop
  endfacet
  facet normal 0 0 1
    outer loop
      vertex -4 -3 20
      vertex -58 4.44089e-15 20
      vertex -54 -3 20
    endloop
  endfacet
  facet normal 0 0 1
    outer loop
      vertex 26 -36 20
      vertex 23 -3 20
      vertex 23 -36 20
    endloop
  endfacet
  facet normal 0 0 1
    outer loop
      vertex 3 -36 20
      vertex 0 -6.8 20
      vertex 0 -36 20
    endloop
  endfacet
  facet normal -0 0 1
    outer loop
      vertex -4 -5 20
      vertex 0 -6.8 20
      vertex -4 -3 20
    endloop
  endfacet
  facet normal 0 0 1
    outer loop
      vertex -7 -6.8 20
      vertex -4 -5 20
      vertex -7 -5 20
    endloop
  endfacet
  facet normal 0 0 1
    outer loop
      vertex -4 -5 20
      vertex -7 -6.8 20
      vertex 0 -6.8 20
    endloop
  endfacet
  facet normal -0 0 1
    outer loop
      vertex -54 -5 20
      vertex -51 -6.8 20
      vertex -51 -5 20
    endloop
  endfacet
  facet normal 0 0 1
    outer loop
      vertex -54 -5 20
      vertex -58 -6.8 20
      vertex -51 -6.8 20
    endloop
  endfacet
  facet normal 0 0 1
    outer loop
      vertex -54 -3 20
      vertex -58 -6.8 20
      vertex -54 -5 20
    endloop
  endfacet
  facet normal 0 1 -2.22045e-16
    outer loop
      vertex 26 0 0
      vertex -58 4.44089e-15 20
      vertex 26 4.44089e-15 20
    endloop
  endfacet
  facet normal 0 1 -2.22045e-16
    outer loop
      vertex -58 4.44089e-15 20
      vertex 26 0 0
      vertex -58 0 0
    endloop
  endfacet
  facet normal 0 -2.22045e-16 -1
    outer loop
      vertex -51 -6.8 1.5099e-15
      vertex -54 -5 1.11022e-15
      vertex -51 -5 1.11022e-15
    endloop
  endfacet
  facet normal 0 -2.22045e-16 -1
    outer loop
      vertex -54 -5 1.11022e-15
      vertex -58 -6.8 1.5099e-15
      vertex -54 -3 6.66134e-16
    endloop
  endfacet
  facet normal 0 -2.22045e-16 -1
    outer loop
      vertex -58 -6.8 1.5099e-15
      vertex -54 -5 1.11022e-15
      vertex -51 -6.8 1.5099e-15
    endloop
  endfacet
  facet normal 0 -2.22045e-16 -1
    outer loop
      vertex 0 -6.8 1.5099e-15
      vertex 3 -36 7.99361e-15
      vertex 0 -36 7.99361e-15
    endloop
  endfacet
  facet normal 0 -2.22045e-16 -1
    outer loop
      vertex 23 -3 6.66134e-16
      vertex 26 -36 7.99361e-15
      vertex 23 -36 7.99361e-15
    endloop
  endfacet
  facet normal 0 -2.22045e-16 -1
    outer loop
      vertex 26 -36 7.99361e-15
      vertex 23 -3 6.66134e-16
      vertex 26 0 0
    endloop
  endfacet
  facet normal 0 -2.22045e-16 -1
    outer loop
      vertex 3 -3 6.66134e-16
      vertex 26 0 0
      vertex 23 -3 6.66134e-16
    endloop
  endfacet
  facet normal 0 -2.22045e-16 -1
    outer loop
      vertex 3 -36 7.99361e-15
      vertex 0 -6.8 1.5099e-15
      vertex 3 -3 6.66134e-16
    endloop
  endfacet
  facet normal 0 -2.22045e-16 -1
    outer loop
      vertex -4 -3 6.66134e-16
      vertex 0 -6.8 1.5099e-15
      vertex -4 -5 1.11022e-15
    endloop
  endfacet
  facet normal 0 -2.22045e-16 -1
    outer loop
      vertex 0 -6.8 1.5099e-15
      vertex -4 -3 6.66134e-16
      vertex 3 -3 6.66134e-16
    endloop
  endfacet
  facet normal 0 -2.22045e-16 -1
    outer loop
      vertex -4 -3 6.66134e-16
      vertex 26 0 0
      vertex 3 -3 6.66134e-16
    endloop
  endfacet
  facet normal 0 -2.22045e-16 -1
    outer loop
      vertex -58 0 0
      vertex -4 -3 6.66134e-16
      vertex -54 -3 6.66134e-16
    endloop
  endfacet
  facet normal 0 -2.22045e-16 -1
    outer loop
      vertex -4 -3 6.66134e-16
      vertex -58 0 0
      vertex 26 0 0
    endloop
  endfacet
  facet normal 0 -2.22045e-16 -1
    outer loop
      vertex -58 0 0
      vertex -54 -3 6.66134e-16
      vertex -58 -6.8 1.5099e-15
    endloop
  endfacet
  facet normal 0 -2.22045e-16 -1
    outer loop
      vertex -7 -6.8 1.5099e-15
      vertex -4 -5 1.11022e-15
      vertex 0 -6.8 1.5099e-15
    endloop
  endfacet
  facet normal -0 -2.22045e-16 -1
    outer loop
      vertex -4 -5 1.11022e-15
      vertex -7 -6.8 1.5099e-15
      vertex -7 -5 1.11022e-15
    endloop
  endfacet
  facet normal 0 1 -0
    outer loop
      vertex -51 -5 1.11022e-15
      vertex -54 -5 20
      vertex -51 -5 20
    endloop
  endfacet
  facet normal 0 1 0
    outer loop
      vertex -54 -5 20
      vertex -51 -5 1.11022e-15
      vertex -54 -5 1.11022e-15
    endloop
  endfacet
  facet normal 1 -0 0
    outer loop
      vertex -54 -5 20
      vertex -54 -3 6.66134e-16
      vertex -54 -3 20
    endloop
  endfacet
  facet normal 1 0 0
    outer loop
      vertex -54 -3 6.66134e-16
      vertex -54 -5 20
      vertex -54 -5 1.11022e-15
    endloop
  endfacet
  facet normal 0 -1 0
    outer loop
      vertex -58 -6.8 1.5099e-15
      vertex -51 -6.8 20
      vertex -58 -6.8 20
    endloop
  endfacet
  facet normal 0 -1 -0
    outer loop
      vertex -51 -6.8 20
      vertex -58 -6.8 1.5099e-15
      vertex -51 -6.8 1.5099e-15
    endloop
  endfacet
  facet normal 1 -0 0
    outer loop
      vertex -51 -6.8 20
      vertex -51 -5 1.11022e-15
      vertex -51 -5 20
    endloop
  endfacet
  facet normal 1 0 0
    outer loop
      vertex -51 -5 1.11022e-15
      vertex -51 -6.8 20
      vertex -51 -6.8 1.5099e-15
    endloop
  endfacet
  facet normal -1 0 0
    outer loop
      vertex -4 -5 1.11022e-15
      vertex -4 -3 20
      vertex -4 -3 6.66134e-16
    endloop
  endfacet
  facet normal -1 -0 0
    outer loop
      vertex -4 -3 20
      vertex -4 -5 1.11022e-15
      vertex -4 -5 20
    endloop
  endfacet
  facet normal 0 1 -0
    outer loop
      vertex -4 -5 1.11022e-15
      vertex -7 -5 20
      vertex -4 -5 20
    endloop
  endfacet
  facet normal 0 1 0
    outer loop
      vertex -7 -5 20
      vertex -4 -5 1.11022e-15
      vertex -7 -5 1.11022e-15
    endloop
  endfacet
  facet normal -1 0 0
    outer loop
      vertex -7 -6.8 1.5099e-15
      vertex -7 -5 20
      vertex -7 -5 1.11022e-15
    endloop
  endfacet
  facet normal -1 -0 0
    outer loop
      vertex -7 -5 20
      vertex -7 -6.8 1.5099e-15
      vertex -7 -6.8 20
    endloop
  endfacet
  facet normal 0 -1 0
    outer loop
      vertex -7 -6.8 1.5099e-15
      vertex 0 -6.8 20
      vertex -7 -6.8 20
    endloop
  endfacet
  facet normal 0 -1 -0
    outer loop
      vertex 0 -6.8 20
      vertex -7 -6.8 1.5099e-15
      vertex 0 -6.8 1.5099e-15
    endloop
  endfacet
  facet normal 0 -1 0
    outer loop
      vertex 3 -3 6.66134e-16
      vertex 23 -3 20
      vertex 3 -3 20
    endloop
  endfacet
  facet normal 0 -1 -0
    outer loop
      vertex 23 -3 20
      vertex 3 -3 6.66134e-16
      vertex 23 -3 6.66134e-16
    endloop
  endfacet
  facet normal 1 0 0
    outer loop
      vertex 26 4.44089e-15 20
      vertex 26 -15.5 10
      vertex 26 0 0
    endloop
  endfacet
  facet normal 1 0 0
    outer loop
      vertex 26 4.44089e-15 20
      vertex 26 -15.548 10.4877
      vertex 26 -15.5 10
    endloop
  endfacet
  facet normal 1 0 0
    outer loop
      vertex 26 4.44089e-15 20
      vertex 26 -15.6903 10.9567
      vertex 26 -15.548 10.4877
    endloop
  endfacet
  facet normal 1 0 0
    outer loop
      vertex 26 4.44089e-15 20
      vertex 26 -15.9213 11.3889
      vertex 26 -15.6903 10.9567
    endloop
  endfacet
  facet normal 1 0 0
    outer loop
      vertex 26 4.44089e-15 20
      vertex 26 -16.2322 11.7678
      vertex 26 -15.9213 11.3889
    endloop
  endfacet
  facet normal 1 0 0
    outer loop
      vertex 26 4.44089e-15 20
      vertex 26 -16.6111 12.0787
      vertex 26 -16.2322 11.7678
    endloop
  endfacet
  facet normal 1 0 0
    outer loop
      vertex 26 4.44089e-15 20
      vertex 26 -17.0433 12.3097
      vertex 26 -16.6111 12.0787
    endloop
  endfacet
  facet normal 1 0 0
    outer loop
      vertex 26 4.44089e-15 20
      vertex 26 -17.5123 12.452
      vertex 26 -17.0433 12.3097
    endloop
  endfacet
  facet normal 1 0 0
    outer loop
      vertex 26 4.44089e-15 20
      vertex 26 -18 12.5
      vertex 26 -17.5123 12.452
    endloop
  endfacet
  facet normal 1 -0 0
    outer loop
      vertex 26 -36 20
      vertex 26 -18 12.5
      vertex 26 4.44089e-15 20
    endloop
  endfacet
  facet normal 1 0 0
    outer loop
      vertex 26 -18 12.5
      vertex 26 -36 20
      vertex 26 -18.4877 12.452
    endloop
  endfacet
  facet normal 1 0 0
    outer loop
      vertex 26 -20.452 10.4877
      vertex 26 -36 20
      vertex 26 -20.5 10
    endloop
  endfacet
  facet normal 1 0 0
    outer loop
      vertex 26 -20.3097 10.9567
      vertex 26 -36 20
      vertex 26 -20.452 10.4877
    endloop
  endfacet
  facet normal 1 0 0
    outer loop
      vertex 26 -20.0787 11.3889
      vertex 26 -36 20
      vertex 26 -20.3097 10.9567
    endloop
  endfacet
  facet normal 1 0 0
    outer loop
      vertex 26 -19.7678 11.7678
      vertex 26 -36 20
      vertex 26 -20.0787 11.3889
    endloop
  endfacet
  facet normal 1 0 0
    outer loop
      vertex 26 -19.3889 12.0787
      vertex 26 -36 20
      vertex 26 -19.7678 11.7678
    endloop
  endfacet
  facet normal 1 0 0
    outer loop
      vertex 26 -18.9567 12.3097
      vertex 26 -36 20
      vertex 26 -19.3889 12.0787
    endloop
  endfacet
  facet normal 1 0 0
    outer loop
      vertex 26 -18.4877 12.452
      vertex 26 -36 20
      vertex 26 -18.9567 12.3097
    endloop
  endfacet
  facet normal 1 -0 0
    outer loop
      vertex 26 -15.548 9.51227
      vertex 26 0 0
      vertex 26 -15.5 10
    endloop
  endfacet
  facet normal 1 -0 0
    outer loop
      vertex 26 -15.6903 9.04329
      vertex 26 0 0
      vertex 26 -15.548 9.51227
    endloop
  endfacet
  facet normal 1 -0 0
    outer loop
      vertex 26 -15.9213 8.61107
      vertex 26 0 0
      vertex 26 -15.6903 9.04329
    endloop
  endfacet
  facet normal 1 -0 0
    outer loop
      vertex 26 -16.2322 8.23223
      vertex 26 0 0
      vertex 26 -15.9213 8.61107
    endloop
  endfacet
  facet normal 1 -0 0
    outer loop
      vertex 26 -16.6111 7.92133
      vertex 26 0 0
      vertex 26 -16.2322 8.23223
    endloop
  endfacet
  facet normal 1 -0 0
    outer loop
      vertex 26 -17.0433 7.6903
      vertex 26 0 0
      vertex 26 -16.6111 7.92133
    endloop
  endfacet
  facet normal 1 -0 0
    outer loop
      vertex 26 -17.5123 7.54804
      vertex 26 0 0
      vertex 26 -17.0433 7.6903
    endloop
  endfacet
  facet normal 1 -0 0
    outer loop
      vertex 26 -18 7.5
      vertex 26 0 0
      vertex 26 -17.5123 7.54804
    endloop
  endfacet
  facet normal 1 0 0
    outer loop
      vertex 26 -36 7.99361e-15
      vertex 26 -18 7.5
      vertex 26 -18.4877 7.54804
    endloop
  endfacet
  facet normal 1 0 0
    outer loop
      vertex 26 -36 7.99361e-15
      vertex 26 -18.4877 7.54804
      vertex 26 -18.9567 7.6903
    endloop
  endfacet
  facet normal 1 0 0
    outer loop
      vertex 26 -36 7.99361e-15
      vertex 26 -20.5 10
      vertex 26 -36 20
    endloop
  endfacet
  facet normal 1 0 0
    outer loop
      vertex 26 -20.5 10
      vertex 26 -36 7.99361e-15
      vertex 26 -20.452 9.51227
    endloop
  endfacet
  facet normal 1 0 0
    outer loop
      vertex 26 -20.452 9.51227
      vertex 26 -36 7.99361e-15
      vertex 26 -20.3097 9.04329
    endloop
  endfacet
  facet normal 1 0 0
    outer loop
      vertex 26 -20.3097 9.04329
      vertex 26 -36 7.99361e-15
      vertex 26 -20.0787 8.61107
    endloop
  endfacet
  facet normal 1 0 0
    outer loop
      vertex 26 -20.0787 8.61107
      vertex 26 -36 7.99361e-15
      vertex 26 -19.7678 8.23223
    endloop
  endfacet
  facet normal 1 0 0
    outer loop
      vertex 26 -18 7.5
      vertex 26 -36 7.99361e-15
      vertex 26 0 0
    endloop
  endfacet
  facet normal 1 0 0
    outer loop
      vertex 26 -19.3889 7.92133
      vertex 26 -36 7.99361e-15
      vertex 26 -18.9567 7.6903
    endloop
  endfacet
  facet normal 1 0 0
    outer loop
      vertex 26 -19.7678 8.23223
      vertex 26 -36 7.99361e-15
      vertex 26 -19.3889 7.92133
    endloop
  endfacet
  facet normal 0 -1 0
    outer loop
      vertex 0 -36 7.99361e-15
      vertex 3 -36 20
      vertex 0 -36 20
    endloop
  endfacet
  facet normal 0 -1 -0
    outer loop
      vertex 3 -36 20
      vertex 0 -36 7.99361e-15
      vertex 3 -36 7.99361e-15
    endloop
  endfacet
  facet normal 1 -0 0
    outer loop
      vertex 3 -36 20
      vertex 3 -3 6.66134e-16
      vertex 3 -3 20
    endloop
  endfacet
  facet normal 1 0 0
    outer loop
      vertex 3 -3 6.66134e-16
      vertex 3 -36 20
      vertex 3 -36 7.99361e-15
    endloop
  endfacet
  facet normal -1 0 0
    outer loop
      vertex 23 -3 6.66134e-16
      vertex 23 -15.5 10
      vertex 23 -3 20
    endloop
  endfacet
  facet normal -1 0 0
    outer loop
      vertex 23 -3 6.66134e-16
      vertex 23 -15.548 9.51227
      vertex 23 -15.5 10
    endloop
  endfacet
  facet normal -1 0 0
    outer loop
      vertex 23 -3 6.66134e-16
      vertex 23 -15.6903 9.04329
      vertex 23 -15.548 9.51227
    endloop
  endfacet
  facet normal -1 0 0
    outer loop
      vertex 23 -3 6.66134e-16
      vertex 23 -15.9213 8.61107
      vertex 23 -15.6903 9.04329
    endloop
  endfacet
  facet normal -1 0 0
    outer loop
      vertex 23 -3 6.66134e-16
      vertex 23 -16.2322 8.23223
      vertex 23 -15.9213 8.61107
    endloop
  endfacet
  facet normal -1 0 0
    outer loop
      vertex 23 -3 6.66134e-16
      vertex 23 -16.6111 7.92133
      vertex 23 -16.2322 8.23223
    endloop
  endfacet
  facet normal -1 0 0
    outer loop
      vertex 23 -3 6.66134e-16
      vertex 23 -17.0433 7.6903
      vertex 23 -16.6111 7.92133
    endloop
  endfacet
  facet normal -1 0 0
    outer loop
      vertex 23 -3 6.66134e-16
      vertex 23 -17.5123 7.54804
      vertex 23 -17.0433 7.6903
    endloop
  endfacet
  facet normal -1 0 0
    outer loop
      vertex 23 -3 6.66134e-16
      vertex 23 -18 7.5
      vertex 23 -17.5123 7.54804
    endloop
  endfacet
  facet normal -1 0 0
    outer loop
      vertex 23 -36 7.99361e-15
      vertex 23 -18 7.5
      vertex 23 -3 6.66134e-16
    endloop
  endfacet
  facet normal -1 -0 0
    outer loop
      vertex 23 -18 7.5
      vertex 23 -36 7.99361e-15
      vertex 23 -18.4877 7.54804
    endloop
  endfacet
  facet normal -1 -0 0
    outer loop
      vertex 23 -20.452 9.51227
      vertex 23 -36 7.99361e-15
      vertex 23 -20.5 10
    endloop
  endfacet
  facet normal -1 -0 0
    outer loop
      vertex 23 -20.3097 9.04329
      vertex 23 -36 7.99361e-15
      vertex 23 -20.452 9.51227
    endloop
  endfacet
  facet normal -1 -0 0
    outer loop
      vertex 23 -20.0787 8.61107
      vertex 23 -36 7.99361e-15
      vertex 23 -20.3097 9.04329
    endloop
  endfacet
  facet normal -1 -0 0
    outer loop
      vertex 23 -19.7678 8.23223
      vertex 23 -36 7.99361e-15
      vertex 23 -20.0787 8.61107
    endloop
  endfacet
  facet normal -1 -0 0
    outer loop
      vertex 23 -19.3889 7.92133
      vertex 23 -36 7.99361e-15
      vertex 23 -19.7678 8.23223
    endloop
  endfacet
  facet normal -1 -0 0
    outer loop
      vertex 23 -18.9567 7.6903
      vertex 23 -36 7.99361e-15
      vertex 23 -19.3889 7.92133
    endloop
  endfacet
  facet normal -1 -0 0
    outer loop
      vertex 23 -18.4877 7.54804
      vertex 23 -36 7.99361e-15
      vertex 23 -18.9567 7.6903
    endloop
  endfacet
  facet normal -1 0 0
    outer loop
      vertex 23 -15.548 10.4877
      vertex 23 -3 20
      vertex 23 -15.5 10
    endloop
  endfacet
  facet normal -1 0 0
    outer loop
      vertex 23 -15.6903 10.9567
      vertex 23 -3 20
      vertex 23 -15.548 10.4877
    endloop
  endfacet
  facet normal -1 0 0
    outer loop
      vertex 23 -15.9213 11.3889
      vertex 23 -3 20
      vertex 23 -15.6903 10.9567
    endloop
  endfacet
  facet normal -1 0 0
    outer loop
      vertex 23 -16.2322 11.7678
      vertex 23 -3 20
      vertex 23 -15.9213 11.3889
    endloop
  endfacet
  facet normal -1 0 0
    outer loop
      vertex 23 -16.6111 12.0787
      vertex 23 -3 20
      vertex 23 -16.2322 11.7678
    endloop
  endfacet
  facet normal -1 0 0
    outer loop
      vertex 23 -17.0433 12.3097
      vertex 23 -3 20
      vertex 23 -16.6111 12.0787
    endloop
  endfacet
  facet normal -1 0 0
    outer loop
      vertex 23 -17.5123 12.452
      vertex 23 -3 20
      vertex 23 -17.0433 12.3097
    endloop
  endfacet
  facet normal -1 0 0
    outer loop
      vertex 23 -18 12.5
      vertex 23 -3 20
      vertex 23 -17.5123 12.452
    endloop
  endfacet
  facet normal -1 0 0
    outer loop
      vertex 23 -36 20
      vertex 23 -18 12.5
      vertex 23 -18.4877 12.452
    endloop
  endfacet
  facet normal -1 0 0
    outer loop
      vertex 23 -36 20
      vertex 23 -18.4877 12.452
      vertex 23 -18.9567 12.3097
    endloop
  endfacet
  facet normal -1 0 0
    outer loop
      vertex 23 -36 20
      vertex 23 -20.5 10
      vertex 23 -36 7.99361e-15
    endloop
  endfacet
  facet normal -1 0 0
    outer loop
      vertex 23 -20.5 10
      vertex 23 -36 20
      vertex 23 -20.452 10.4877
    endloop
  endfacet
  facet normal -1 0 0
    outer loop
      vertex 23 -20.452 10.4877
      vertex 23 -36 20
      vertex 23 -20.3097 10.9567
    endloop
  endfacet
  facet normal -1 0 0
    outer loop
      vertex 23 -20.3097 10.9567
      vertex 23 -36 20
      vertex 23 -20.0787 11.3889
    endloop
  endfacet
  facet normal -1 0 0
    outer loop
      vertex 23 -20.0787 11.3889
      vertex 23 -36 20
      vertex 23 -19.7678 11.7678
    endloop
  endfacet
  facet normal -1 0 0
    outer loop
      vertex 23 -18 12.5
      vertex 23 -36 20
      vertex 23 -3 20
    endloop
  endfacet
  facet normal -1 0 0
    outer loop
      vertex 23 -19.3889 12.0787
      vertex 23 -36 20
      vertex 23 -18.9567 12.3097
    endloop
  endfacet
  facet normal -1 0 0
    outer loop
      vertex 23 -19.7678 11.7678
      vertex 23 -36 20
      vertex 23 -19.3889 12.0787
    endloop
  endfacet
  facet normal 0 -1 0
    outer loop
      vertex 23 -36 7.99361e-15
      vertex 26 -36 20
      vertex 23 -36 20
    endloop
  endfacet
  facet normal 0 -1 -0
    outer loop
      vertex 26 -36 20
      vertex 23 -36 7.99361e-15
      vertex 26 -36 7.99361e-15
    endloop
  endfacet
  facet normal 0 -0.995185 -0.0980168
    outer loop
      vertex 23 -15.5 10
      vertex 26 -15.548 10.4877
      vertex 23 -15.548 10.4877
    endloop
  endfacet
  facet normal 0 -0.995185 -0.0980168
    outer loop
      vertex 26 -15.548 10.4877
      vertex 23 -15.5 10
      vertex 26 -15.5 10
    endloop
  endfacet
  facet normal 0 0.995184 -0.0980207
    outer loop
      vertex 26 -20.5 10
      vertex 23 -20.452 10.4877
      vertex 26 -20.452 10.4877
    endloop
  endfacet
  facet normal 0 0.995184 -0.0980207
    outer loop
      vertex 23 -20.452 10.4877
      vertex 26 -20.5 10
      vertex 23 -20.5 10
    endloop
  endfacet
  facet normal 0 -0.0980166 0.995185
    outer loop
      vertex 23 -17.5123 7.54804
      vertex 26 -18 7.5
      vertex 26 -17.5123 7.54804
    endloop
  endfacet
  facet normal 0 -0.0980166 0.995185
    outer loop
      vertex 26 -18 7.5
      vertex 23 -17.5123 7.54804
      vertex 23 -18 7.5
    endloop
  endfacet
  facet normal 0 0.634392 -0.773011
    outer loop
      vertex 23 -19.7678 11.7678
      vertex 26 -19.3889 12.0787
      vertex 26 -19.7678 11.7678
    endloop
  endfacet
  facet normal 0 0.634392 -0.773011
    outer loop
      vertex 26 -19.3889 12.0787
      vertex 23 -19.7678 11.7678
      vertex 23 -19.3889 12.0787
    endloop
  endfacet
  facet normal 0 0.290285 -0.95694
    outer loop
      vertex 23 -18.9567 12.3097
      vertex 26 -18.4877 12.452
      vertex 26 -18.9567 12.3097
    endloop
  endfacet
  facet normal 0 0.290285 -0.95694
    outer loop
      vertex 26 -18.4877 12.452
      vertex 23 -18.9567 12.3097
      vertex 23 -18.4877 12.452
    endloop
  endfacet
  facet normal 0 -0.881922 0.471396
    outer loop
      vertex 23 -15.9213 8.61107
      vertex 26 -15.6903 9.04329
      vertex 23 -15.6903 9.04329
    endloop
  endfacet
  facet normal 0 -0.881922 0.471396
    outer loop
      vertex 26 -15.6903 9.04329
      vertex 23 -15.9213 8.61107
      vertex 26 -15.9213 8.61107
    endloop
  endfacet
  facet normal 0 -0.95694 -0.290285
    outer loop
      vertex 23 -15.548 10.4877
      vertex 26 -15.6903 10.9567
      vertex 23 -15.6903 10.9567
    endloop
  endfacet
  facet normal 0 -0.95694 -0.290285
    outer loop
      vertex 26 -15.6903 10.9567
      vertex 23 -15.548 10.4877
      vertex 26 -15.548 10.4877
    endloop
  endfacet
  facet normal 0 -0.773012 -0.634391
    outer loop
      vertex 23 -15.9213 11.3889
      vertex 26 -16.2322 11.7678
      vertex 23 -16.2322 11.7678
    endloop
  endfacet
  facet normal 0 -0.773012 -0.634391
    outer loop
      vertex 26 -16.2322 11.7678
      vertex 23 -15.9213 11.3889
      vertex 26 -15.9213 11.3889
    endloop
  endfacet
  facet normal 0 -0.290285 -0.95694
    outer loop
      vertex 23 -17.5123 12.452
      vertex 26 -17.0433 12.3097
      vertex 26 -17.5123 12.452
    endloop
  endfacet
  facet normal -0 -0.290285 -0.95694
    outer loop
      vertex 26 -17.0433 12.3097
      vertex 23 -17.5123 12.452
      vertex 23 -17.0433 12.3097
    endloop
  endfacet
  facet normal 0 -0.634392 -0.773011
    outer loop
      vertex 23 -16.6111 12.0787
      vertex 26 -16.2322 11.7678
      vertex 26 -16.6111 12.0787
    endloop
  endfacet
  facet normal -0 -0.634392 -0.773011
    outer loop
      vertex 26 -16.2322 11.7678
      vertex 23 -16.6111 12.0787
      vertex 23 -16.2322 11.7678
    endloop
  endfacet
  facet normal 0 0.881921 -0.471398
    outer loop
      vertex 26 -20.3097 10.9567
      vertex 23 -20.0787 11.3889
      vertex 26 -20.0787 11.3889
    endloop
  endfacet
  facet normal 0 0.881921 -0.471398
    outer loop
      vertex 23 -20.0787 11.3889
      vertex 26 -20.3097 10.9567
      vertex 23 -20.3097 10.9567
    endloop
  endfacet
  facet normal 0 0.773012 -0.634391
    outer loop
      vertex 26 -20.0787 11.3889
      vertex 23 -19.7678 11.7678
      vertex 26 -19.7678 11.7678
    endloop
  endfacet
  facet normal 0 0.773012 -0.634391
    outer loop
      vertex 23 -19.7678 11.7678
      vertex 26 -20.0787 11.3889
      vertex 23 -20.0787 11.3889
    endloop
  endfacet
  facet normal 0 0.956941 -0.290283
    outer loop
      vertex 26 -20.452 10.4877
      vertex 23 -20.3097 10.9567
      vertex 26 -20.3097 10.9567
    endloop
  endfacet
  facet normal 0 0.956941 -0.290283
    outer loop
      vertex 23 -20.3097 10.9567
      vertex 26 -20.452 10.4877
      vertex 23 -20.452 10.4877
    endloop
  endfacet
  facet normal 0 0.471395 -0.881922
    outer loop
      vertex 23 -19.3889 12.0787
      vertex 26 -18.9567 12.3097
      vertex 26 -19.3889 12.0787
    endloop
  endfacet
  facet normal 0 0.471395 -0.881922
    outer loop
      vertex 26 -18.9567 12.3097
      vertex 23 -19.3889 12.0787
      vertex 23 -18.9567 12.3097
    endloop
  endfacet
  facet normal 0 0.0980189 -0.995185
    outer loop
      vertex 23 -18.4877 12.452
      vertex 26 -18 12.5
      vertex 26 -18.4877 12.452
    endloop
  endfacet
  facet normal 0 0.0980189 -0.995185
    outer loop
      vertex 26 -18 12.5
      vertex 23 -18.4877 12.452
      vertex 23 -18 12.5
    endloop
  endfacet
  facet normal 0 -0.995185 0.0980166
    outer loop
      vertex 23 -15.548 9.51227
      vertex 26 -15.5 10
      vertex 23 -15.5 10
    endloop
  endfacet
  facet normal 0 -0.995185 0.0980166
    outer loop
      vertex 26 -15.5 10
      vertex 23 -15.548 9.51227
      vertex 26 -15.548 9.51227
    endloop
  endfacet
  facet normal 0 -0.881922 -0.471396
    outer loop
      vertex 23 -15.6903 10.9567
      vertex 26 -15.9213 11.3889
      vertex 23 -15.9213 11.3889
    endloop
  endfacet
  facet normal 0 -0.881922 -0.471396
    outer loop
      vertex 26 -15.9213 11.3889
      vertex 23 -15.6903 10.9567
      vertex 26 -15.6903 10.9567
    endloop
  endfacet
  facet normal 0 -0.0980185 -0.995185
    outer loop
      vertex 23 -18 12.5
      vertex 26 -17.5123 12.452
      vertex 26 -18 12.5
    endloop
  endfacet
  facet normal -0 -0.0980185 -0.995185
    outer loop
      vertex 26 -17.5123 12.452
      vertex 23 -18 12.5
      vertex 23 -17.5123 12.452
    endloop
  endfacet
  facet normal 0 -0.471395 -0.881922
    outer loop
      vertex 23 -17.0433 12.3097
      vertex 26 -16.6111 12.0787
      vertex 26 -17.0433 12.3097
    endloop
  endfacet
  facet normal -0 -0.471395 -0.881922
    outer loop
      vertex 26 -16.6111 12.0787
      vertex 23 -17.0433 12.3097
      vertex 23 -16.6111 12.0787
    endloop
  endfacet
  facet normal 0 -0.634392 0.773011
    outer loop
      vertex 23 -16.2322 8.23223
      vertex 26 -16.6111 7.92133
      vertex 26 -16.2322 8.23223
    endloop
  endfacet
  facet normal 0 -0.634392 0.773011
    outer loop
      vertex 26 -16.6111 7.92133
      vertex 23 -16.2322 8.23223
      vertex 23 -16.6111 7.92133
    endloop
  endfacet
  facet normal 0 -0.773012 0.634391
    outer loop
      vertex 23 -16.2322 8.23223
      vertex 26 -15.9213 8.61107
      vertex 23 -15.9213 8.61107
    endloop
  endfacet
  facet normal 0 -0.773012 0.634391
    outer loop
      vertex 26 -15.9213 8.61107
      vertex 23 -16.2322 8.23223
      vertex 26 -16.2322 8.23223
    endloop
  endfacet
  facet normal 0 -0.95694 0.290285
    outer loop
      vertex 23 -15.6903 9.04329
      vertex 26 -15.548 9.51227
      vertex 23 -15.548 9.51227
    endloop
  endfacet
  facet normal 0 -0.95694 0.290285
    outer loop
      vertex 26 -15.548 9.51227
      vertex 23 -15.6903 9.04329
      vertex 26 -15.6903 9.04329
    endloop
  endfacet
  facet normal 0 0.773012 0.634391
    outer loop
      vertex 26 -19.7678 8.23223
      vertex 23 -20.0787 8.61107
      vertex 26 -20.0787 8.61107
    endloop
  endfacet
  facet normal 0 0.773012 0.634391
    outer loop
      vertex 23 -20.0787 8.61107
      vertex 26 -19.7678 8.23223
      vertex 23 -19.7678 8.23223
    endloop
  endfacet
  facet normal -0 0.098017 0.995185
    outer loop
      vertex 23 -18 7.5
      vertex 26 -18.4877 7.54804
      vertex 26 -18 7.5
    endloop
  endfacet
  facet normal 0 0.098017 0.995185
    outer loop
      vertex 26 -18.4877 7.54804
      vertex 23 -18 7.5
      vertex 23 -18.4877 7.54804
    endloop
  endfacet
  facet normal 0 0.881921 0.471398
    outer loop
      vertex 26 -20.0787 8.61107
      vertex 23 -20.3097 9.04329
      vertex 26 -20.3097 9.04329
    endloop
  endfacet
  facet normal 0 0.881921 0.471398
    outer loop
      vertex 23 -20.3097 9.04329
      vertex 26 -20.0787 8.61107
      vertex 23 -20.0787 8.61107
    endloop
  endfacet
  facet normal 0 0.956941 0.290283
    outer loop
      vertex 26 -20.3097 9.04329
      vertex 23 -20.452 9.51227
      vertex 26 -20.452 9.51227
    endloop
  endfacet
  facet normal 0 0.956941 0.290283
    outer loop
      vertex 23 -20.452 9.51227
      vertex 26 -20.3097 9.04329
      vertex 23 -20.3097 9.04329
    endloop
  endfacet
  facet normal 0 0.995184 0.0980205
    outer loop
      vertex 26 -20.452 9.51227
      vertex 23 -20.5 10
      vertex 26 -20.5 10
    endloop
  endfacet
  facet normal 0 0.995184 0.0980205
    outer loop
      vertex 23 -20.5 10
      vertex 26 -20.452 9.51227
      vertex 23 -20.452 9.51227
    endloop
  endfacet
  facet normal 0 -0.471395 0.881922
    outer loop
      vertex 23 -16.6111 7.92133
      vertex 26 -17.0433 7.6903
      vertex 26 -16.6111 7.92133
    endloop
  endfacet
  facet normal 0 -0.471395 0.881922
    outer loop
      vertex 26 -17.0433 7.6903
      vertex 23 -16.6111 7.92133
      vertex 23 -17.0433 7.6903
    endloop
  endfacet
  facet normal 0 -0.290285 0.95694
    outer loop
      vertex 23 -17.0433 7.6903
      vertex 26 -17.5123 7.54804
      vertex 26 -17.0433 7.6903
    endloop
  endfacet
  facet normal 0 -0.290285 0.95694
    outer loop
      vertex 26 -17.5123 7.54804
      vertex 23 -17.0433 7.6903
      vertex 23 -17.5123 7.54804
    endloop
  endfacet
  facet normal -0 0.290285 0.95694
    outer loop
      vertex 23 -18.4877 7.54804
      vertex 26 -18.9567 7.6903
      vertex 26 -18.4877 7.54804
    endloop
  endfacet
  facet normal 0 0.290285 0.95694
    outer loop
      vertex 26 -18.9567 7.6903
      vertex 23 -18.4877 7.54804
      vertex 23 -18.9567 7.6903
    endloop
  endfacet
  facet normal -0 0.634392 0.773011
    outer loop
      vertex 23 -19.3889 7.92133
      vertex 26 -19.7678 8.23223
      vertex 26 -19.3889 7.92133
    endloop
  endfacet
  facet normal 0 0.634392 0.773011
    outer loop
      vertex 26 -19.7678 8.23223
      vertex 23 -19.3889 7.92133
      vertex 23 -19.7678 8.23223
    endloop
  endfacet
  facet normal -0 0.471395 0.881922
    outer loop
      vertex 23 -18.9567 7.6903
      vertex 26 -19.3889 7.92133
      vertex 26 -18.9567 7.6903
    endloop
  endfacet
  facet normal 0 0.471395 0.881922
    outer loop
      vertex 26 -19.3889 7.92133
      vertex 23 -18.9567 7.6903
      vertex 23 -19.3889 7.92133
    endloop
  endfacet
endsolid OpenSCAD_Model
