solid OpenSCAD_Model
  facet normal 0.994522 0.104529 0
    outer loop
      vertex 30 20 3
      vertex 29.7815 22.0791 0
      vertex 29.7815 22.0791 3
    endloop
  endfacet
  facet normal 0.994522 0.104529 0
    outer loop
      vertex 29.7815 22.0791 0
      vertex 30 20 3
      vertex 30 20 0
    endloop
  endfacet
  facet normal 0.587785 0.809017 -0
    outer loop
      vertex 26.6913 27.4314 0
      vertex 25 28.6603 3
      vertex 26.6913 27.4314 3
    endloop
  endfacet
  facet normal 0.587785 0.809017 0
    outer loop
      vertex 25 28.6603 3
      vertex 26.6913 27.4314 0
      vertex 25 28.6603 0
    endloop
  endfacet
  facet normal 0.866026 0.5 0
    outer loop
      vertex 29.1355 24.0674 3
      vertex 28.0902 25.8779 0
      vertex 28.0902 25.8779 3
    endloop
  endfacet
  facet normal 0.866026 0.5 0
    outer loop
      vertex 28.0902 25.8779 0
      vertex 29.1355 24.0674 3
      vertex 29.1355 24.0674 0
    endloop
  endfacet
  facet normal 0.951057 0.309017 0
    outer loop
      vertex 29.7815 22.0791 3
      vertex 29.1355 24.0674 0
      vertex 29.1355 24.0674 3
    endloop
  endfacet
  facet normal 0.951057 0.309017 0
    outer loop
      vertex 29.1355 24.0674 0
      vertex 29.7815 22.0791 3
      vertex 29.7815 22.0791 0
    endloop
  endfacet
  facet normal 0.743144 0.669131 0
    outer loop
      vertex 28.0902 25.8779 3
      vertex 26.6913 27.4314 0
      vertex 26.6913 27.4314 3
    endloop
  endfacet
  facet normal 0.743144 0.669131 0
    outer loop
      vertex 26.6913 27.4314 0
      vertex 28.0902 25.8779 3
      vertex 28.0902 25.8779 0
    endloop
  endfacet
  facet normal 0.207911 0.978148 -0
    outer loop
      vertex 23.0902 29.5106 0
      vertex 21.0453 29.9452 3
      vertex 23.0902 29.5106 3
    endloop
  endfacet
  facet normal 0.207911 0.978148 0
    outer loop
      vertex 21.0453 29.9452 3
      vertex 23.0902 29.5106 0
      vertex 21.0453 29.9452 0
    endloop
  endfacet
  facet normal 0 1 -0
    outer loop
      vertex 21.0453 29.9452 0
      vertex 20 29.9452 3
      vertex 21.0453 29.9452 3
    endloop
  endfacet
  facet normal 0 1 0
    outer loop
      vertex 20 29.9452 3
      vertex 21.0453 29.9452 0
      vertex 20 29.9452 0
    endloop
  endfacet
  facet normal 0.406737 0.913545 -0
    outer loop
      vertex 25 28.6603 0
      vertex 23.0902 29.5106 3
      vertex 25 28.6603 3
    endloop
  endfacet
  facet normal 0.406737 0.913545 0
    outer loop
      vertex 23.0902 29.5106 3
      vertex 25 28.6603 0
      vertex 23.0902 29.5106 0
    endloop
  endfacet
  facet normal 0 0 -1
    outer loop
      vertex 22.454 17.8163 0
      vertex 30 20 0
      vertex 30 0 0
    endloop
  endfacet
  facet normal 0 -0 -1
    outer loop
      vertex 24.5 21 0
      vertex 30 20 0
      vertex 23.9444 19.1078 0
    endloop
  endfacet
  facet normal 0 0 -1
    outer loop
      vertex 30 20 0
      vertex 24.5 21 0
      vertex 29.7815 22.0791 0
    endloop
  endfacet
  facet normal -0 0 -1
    outer loop
      vertex 29.7815 22.0791 0
      vertex 24.5 21 0
      vertex 29.1355 24.0674 0
    endloop
  endfacet
  facet normal -0 0 -1
    outer loop
      vertex 29.1355 24.0674 0
      vertex 23.9444 22.8922 0
      vertex 28.0902 25.8779 0
    endloop
  endfacet
  facet normal -0 0 -1
    outer loop
      vertex 28.0902 25.8779 0
      vertex 23.9444 22.8922 0
      vertex 26.6913 27.4314 0
    endloop
  endfacet
  facet normal 0 0 -1
    outer loop
      vertex 23.9444 22.8922 0
      vertex 29.1355 24.0674 0
      vertex 24.5 21 0
    endloop
  endfacet
  facet normal 0 0 -1
    outer loop
      vertex 30 20 0
      vertex 22.454 17.8163 0
      vertex 23.9444 19.1078 0
    endloop
  endfacet
  facet normal 0 0 -1
    outer loop
      vertex 30 0 0
      vertex 20.5019 17.5356 0
      vertex 22.454 17.8163 0
    endloop
  endfacet
  facet normal 0 0 -1
    outer loop
      vertex 0 0 0
      vertex 20.5019 17.5356 0
      vertex 30 0 0
    endloop
  endfacet
  facet normal -0 0 -1
    outer loop
      vertex 20.5019 17.5356 0
      vertex 0 0 0
      vertex 18.708 18.3549 0
    endloop
  endfacet
  facet normal 0 0 -1
    outer loop
      vertex 0 30 0
      vertex 17.6418 20.0139 0
      vertex 0 0 0
    endloop
  endfacet
  facet normal -0 0 -1
    outer loop
      vertex 18.708 18.3549 0
      vertex 0 0 0
      vertex 17.6418 20.0139 0
    endloop
  endfacet
  facet normal 0 0 -1
    outer loop
      vertex 22.454 24.1837 0
      vertex 26.6913 27.4314 0
      vertex 23.9444 22.8922 0
    endloop
  endfacet
  facet normal -0 0 -1
    outer loop
      vertex 26.6913 27.4314 0
      vertex 22.454 24.1837 0
      vertex 25 28.6603 0
    endloop
  endfacet
  facet normal -0 0 -1
    outer loop
      vertex 25 28.6603 0
      vertex 22.454 24.1837 0
      vertex 23.0902 29.5106 0
    endloop
  endfacet
  facet normal 0 0 -1
    outer loop
      vertex 20.5019 24.4644 0
      vertex 23.0902 29.5106 0
      vertex 22.454 24.1837 0
    endloop
  endfacet
  facet normal -0 0 -1
    outer loop
      vertex 23.0902 29.5106 0
      vertex 20.5019 24.4644 0
      vertex 21.0453 29.9452 0
    endloop
  endfacet
  facet normal 0 0 -1
    outer loop
      vertex 20.5019 24.4644 0
      vertex 20 29.9452 0
      vertex 21.0453 29.9452 0
    endloop
  endfacet
  facet normal 0 0 -1
    outer loop
      vertex 18.708 23.6451 0
      vertex 20 29.9452 0
      vertex 20.5019 24.4644 0
    endloop
  endfacet
  facet normal 0 0 -1
    outer loop
      vertex 0 30 0
      vertex 20 29.9452 0
      vertex 18.708 23.6451 0
    endloop
  endfacet
  facet normal 0 0 -1
    outer loop
      vertex 0 30 0
      vertex 18.708 23.6451 0
      vertex 17.6418 21.9861 0
    endloop
  endfacet
  facet normal 0 0 -1
    outer loop
      vertex 17.6418 20.0139 0
      vertex 0 30 0
      vertex 17.6418 21.9861 0
    endloop
  endfacet
  facet normal 0 0 -1
    outer loop
      vertex 20 29.9452 0
      vertex 0 30 0
      vertex 20 30 0
    endloop
  endfacet
  facet normal 0 0 1
    outer loop
      vertex 26.5 21 3
      vertex 23.9444 22.8922 3
      vertex 24.5 21 3
    endloop
  endfacet
  facet normal 0 0 1
    outer loop
      vertex 23.75 25.7631 3
      vertex 23.9444 22.8922 3
      vertex 26.5 21 3
    endloop
  endfacet
  facet normal 0 0 1
    outer loop
      vertex 23.75 25.7631 3
      vertex 22.454 24.1837 3
      vertex 23.9444 22.8922 3
    endloop
  endfacet
  facet normal 0 0 1
    outer loop
      vertex 23.75 25.7631 3
      vertex 20.5019 24.4644 3
      vertex 22.454 24.1837 3
    endloop
  endfacet
  facet normal -0 0 1
    outer loop
      vertex 18.25 25.7631 3
      vertex 20.5019 24.4644 3
      vertex 23.75 25.7631 3
    endloop
  endfacet
  facet normal 0 0 1
    outer loop
      vertex 18.25 25.7631 3
      vertex 18.708 23.6451 3
      vertex 20.5019 24.4644 3
    endloop
  endfacet
  facet normal 0 0 1
    outer loop
      vertex 18.25 25.7631 3
      vertex 17.6418 21.9861 3
      vertex 18.708 23.6451 3
    endloop
  endfacet
  facet normal 0 0 1
    outer loop
      vertex 17.6418 21.9861 3
      vertex 15.5 21 3
      vertex 17.6418 20.0139 3
    endloop
  endfacet
  facet normal 0 0 1
    outer loop
      vertex 15.5 21 3
      vertex 17.6418 21.9861 3
      vertex 18.25 25.7631 3
    endloop
  endfacet
  facet normal 0 0 1
    outer loop
      vertex 23.9444 19.1078 3
      vertex 26.5 21 3
      vertex 24.5 21 3
    endloop
  endfacet
  facet normal -0 0 1
    outer loop
      vertex 23.9444 19.1078 3
      vertex 23.75 16.2369 3
      vertex 26.5 21 3
    endloop
  endfacet
  facet normal -0 0 1
    outer loop
      vertex 22.454 17.8163 3
      vertex 23.75 16.2369 3
      vertex 23.9444 19.1078 3
    endloop
  endfacet
  facet normal -0 0 1
    outer loop
      vertex 20.5019 17.5356 3
      vertex 23.75 16.2369 3
      vertex 22.454 17.8163 3
    endloop
  endfacet
  facet normal 0 0 1
    outer loop
      vertex 20.5019 17.5356 3
      vertex 18.25 16.2369 3
      vertex 23.75 16.2369 3
    endloop
  endfacet
  facet normal 0 0 1
    outer loop
      vertex 18.708 18.3549 3
      vertex 18.25 16.2369 3
      vertex 20.5019 17.5356 3
    endloop
  endfacet
  facet normal 0 0 1
    outer loop
      vertex 17.6418 20.0139 3
      vertex 18.25 16.2369 3
      vertex 18.708 18.3549 3
    endloop
  endfacet
  facet normal 0 0 1
    outer loop
      vertex 18.25 16.2369 3
      vertex 17.6418 20.0139 3
      vertex 15.5 21 3
    endloop
  endfacet
  facet normal 0 0 1
    outer loop
      vertex 20 30 3
      vertex 16.875 28.1447 3
      vertex 20 29.9452 3
    endloop
  endfacet
  facet normal 0 0 1
    outer loop
      vertex 13.8553 25.125 3
      vertex 0 30 3
      vertex 12.75 21 3
    endloop
  endfacet
  facet normal 0 0 1
    outer loop
      vertex 16.875 28.1447 3
      vertex 0 30 3
      vertex 13.8553 25.125 3
    endloop
  endfacet
  facet normal -0 0 1
    outer loop
      vertex 0 30 3
      vertex 16.875 28.1447 3
      vertex 20 30 3
    endloop
  endfacet
  facet normal 0 0 1
    outer loop
      vertex 29.1355 24.0674 3
      vertex 29.25 21 3
      vertex 29.7815 22.0791 3
    endloop
  endfacet
  facet normal 0 0 1
    outer loop
      vertex 29.1355 24.0674 3
      vertex 28.1447 25.125 3
      vertex 29.25 21 3
    endloop
  endfacet
  facet normal 0 0 1
    outer loop
      vertex 28.0902 25.8779 3
      vertex 28.1447 25.125 3
      vertex 29.1355 24.0674 3
    endloop
  endfacet
  facet normal 0 0 1
    outer loop
      vertex 26.6913 27.4314 3
      vertex 28.1447 25.125 3
      vertex 28.0902 25.8779 3
    endloop
  endfacet
  facet normal 0 0 1
    outer loop
      vertex 26.6913 27.4314 3
      vertex 25.125 28.1447 3
      vertex 28.1447 25.125 3
    endloop
  endfacet
  facet normal 0 0 1
    outer loop
      vertex 25 28.6603 3
      vertex 25.125 28.1447 3
      vertex 26.6913 27.4314 3
    endloop
  endfacet
  facet normal 0 0 1
    outer loop
      vertex 23.0902 29.5106 3
      vertex 25.125 28.1447 3
      vertex 25 28.6603 3
    endloop
  endfacet
  facet normal 0 0 1
    outer loop
      vertex 21 29.25 3
      vertex 23.0902 29.5106 3
      vertex 21.0453 29.9452 3
    endloop
  endfacet
  facet normal 0 0 1
    outer loop
      vertex 23.0902 29.5106 3
      vertex 21 29.25 3
      vertex 25.125 28.1447 3
    endloop
  endfacet
  facet normal -0 0 1
    outer loop
      vertex 20 29.9452 3
      vertex 21 29.25 3
      vertex 21.0453 29.9452 3
    endloop
  endfacet
  facet normal 0 0 1
    outer loop
      vertex 21 29.25 3
      vertex 20 29.9452 3
      vertex 16.875 28.1447 3
    endloop
  endfacet
  facet normal -0 0 1
    outer loop
      vertex 29.25 21 3
      vertex 30 20 3
      vertex 29.7815 22.0791 3
    endloop
  endfacet
  facet normal 0 0 1
    outer loop
      vertex 30 20 3
      vertex 29.25 21 3
      vertex 28.1447 16.875 3
    endloop
  endfacet
  facet normal 0 0 1
    outer loop
      vertex 30 20 3
      vertex 28.1447 16.875 3
      vertex 30 0 3
    endloop
  endfacet
  facet normal -0 0 1
    outer loop
      vertex 25.125 13.8553 3
      vertex 30 0 3
      vertex 28.1447 16.875 3
    endloop
  endfacet
  facet normal -0 0 1
    outer loop
      vertex 21 12.75 3
      vertex 30 0 3
      vertex 25.125 13.8553 3
    endloop
  endfacet
  facet normal 0 0 1
    outer loop
      vertex 16.875 13.8553 3
      vertex 30 0 3
      vertex 21 12.75 3
    endloop
  endfacet
  facet normal 0 0 1
    outer loop
      vertex 0 0 3
      vertex 16.875 13.8553 3
      vertex 13.8553 16.875 3
    endloop
  endfacet
  facet normal 0 0 1
    outer loop
      vertex 0 30 3
      vertex 13.8553 16.875 3
      vertex 12.75 21 3
    endloop
  endfacet
  facet normal 0 0 1
    outer loop
      vertex 0 0 3
      vertex 13.8553 16.875 3
      vertex 0 30 3
    endloop
  endfacet
  facet normal 0 0 1
    outer loop
      vertex 16.875 13.8553 3
      vertex 0 0 3
      vertex 30 0 3
    endloop
  endfacet
  facet normal -1 0 0
    outer loop
      vertex 0 0 0
      vertex 0 30 3
      vertex 0 30 0
    endloop
  endfacet
  facet normal -1 -0 0
    outer loop
      vertex 0 30 3
      vertex 0 0 0
      vertex 0 0 3
    endloop
  endfacet
  facet normal 0 -1 0
    outer loop
      vertex 0 0 0
      vertex 30 0 3
      vertex 0 0 3
    endloop
  endfacet
  facet normal 0 -1 -0
    outer loop
      vertex 30 0 3
      vertex 0 0 0
      vertex 30 0 0
    endloop
  endfacet
  facet normal 1 -0 0
    outer loop
      vertex 30 0 3
      vertex 30 20 0
      vertex 30 20 3
    endloop
  endfacet
  facet normal 1 0 0
    outer loop
      vertex 30 20 0
      vertex 30 0 3
      vertex 30 0 0
    endloop
  endfacet
  facet normal 1 -0 0
    outer loop
      vertex 20 29.9452 3
      vertex 20 30 0
      vertex 20 30 3
    endloop
  endfacet
  facet normal 1 0 0
    outer loop
      vertex 20 30 0
      vertex 20 29.9452 3
      vertex 20 29.9452 0
    endloop
  endfacet
  facet normal 0 1 -0
    outer loop
      vertex 20 30 0
      vertex 0 30 3
      vertex 20 30 3
    endloop
  endfacet
  facet normal 0 1 0
    outer loop
      vertex 0 30 3
      vertex 20 30 0
      vertex 0 30 0
    endloop
  endfacet
  facet normal -0.959493 -0.281733 0
    outer loop
      vertex 24.5 21 0
      vertex 23.9444 22.8922 3
      vertex 23.9444 22.8922 0
    endloop
  endfacet
  facet normal -0.959493 -0.281733 0
    outer loop
      vertex 23.9444 22.8922 3
      vertex 24.5 21 0
      vertex 24.5 21 3
    endloop
  endfacet
  facet normal 1 -0 0
    outer loop
      vertex 17.6418 20.0139 3
      vertex 17.6418 21.9861 0
      vertex 17.6418 21.9861 3
    endloop
  endfacet
  facet normal 1 0 0
    outer loop
      vertex 17.6418 21.9861 0
      vertex 17.6418 20.0139 3
      vertex 17.6418 20.0139 0
    endloop
  endfacet
  facet normal 0.415415 -0.909632 0
    outer loop
      vertex 18.708 23.6451 0
      vertex 20.5019 24.4644 3
      vertex 18.708 23.6451 3
    endloop
  endfacet
  facet normal 0.415415 -0.909632 0
    outer loop
      vertex 20.5019 24.4644 3
      vertex 18.708 23.6451 0
      vertex 20.5019 24.4644 0
    endloop
  endfacet
  facet normal 0.841253 -0.540641 0
    outer loop
      vertex 17.6418 21.9861 3
      vertex 18.708 23.6451 0
      vertex 18.708 23.6451 3
    endloop
  endfacet
  facet normal 0.841253 -0.540641 0
    outer loop
      vertex 18.708 23.6451 0
      vertex 17.6418 21.9861 3
      vertex 17.6418 21.9861 0
    endloop
  endfacet
  facet normal -0.142315 0.989821 0
    outer loop
      vertex 22.454 17.8163 0
      vertex 20.5019 17.5356 3
      vertex 22.454 17.8163 3
    endloop
  endfacet
  facet normal -0.142315 0.989821 0
    outer loop
      vertex 20.5019 17.5356 3
      vertex 22.454 17.8163 0
      vertex 20.5019 17.5356 0
    endloop
  endfacet
  facet normal -0.654861 0.755749 0
    outer loop
      vertex 23.9444 19.1078 0
      vertex 22.454 17.8163 3
      vertex 23.9444 19.1078 3
    endloop
  endfacet
  facet normal -0.654861 0.755749 0
    outer loop
      vertex 22.454 17.8163 3
      vertex 23.9444 19.1078 0
      vertex 22.454 17.8163 0
    endloop
  endfacet
  facet normal -0.142315 -0.989821 0
    outer loop
      vertex 20.5019 24.4644 0
      vertex 22.454 24.1837 3
      vertex 20.5019 24.4644 3
    endloop
  endfacet
  facet normal -0.142315 -0.989821 -0
    outer loop
      vertex 22.454 24.1837 3
      vertex 20.5019 24.4644 0
      vertex 22.454 24.1837 0
    endloop
  endfacet
  facet normal -0.654861 -0.755749 0
    outer loop
      vertex 22.454 24.1837 0
      vertex 23.9444 22.8922 3
      vertex 22.454 24.1837 3
    endloop
  endfacet
  facet normal -0.654861 -0.755749 -0
    outer loop
      vertex 23.9444 22.8922 3
      vertex 22.454 24.1837 0
      vertex 23.9444 22.8922 0
    endloop
  endfacet
  facet normal -0.959493 0.281733 0
    outer loop
      vertex 23.9444 19.1078 0
      vertex 24.5 21 3
      vertex 24.5 21 0
    endloop
  endfacet
  facet normal -0.959493 0.281733 0
    outer loop
      vertex 24.5 21 3
      vertex 23.9444 19.1078 0
      vertex 23.9444 19.1078 3
    endloop
  endfacet
  facet normal 0.415414 0.909632 -0
    outer loop
      vertex 20.5019 17.5356 0
      vertex 18.708 18.3549 3
      vertex 20.5019 17.5356 3
    endloop
  endfacet
  facet normal 0.415414 0.909632 0
    outer loop
      vertex 18.708 18.3549 3
      vertex 20.5019 17.5356 0
      vertex 18.708 18.3549 0
    endloop
  endfacet
  facet normal 0.841253 0.540641 0
    outer loop
      vertex 18.708 18.3549 3
      vertex 17.6418 20.0139 0
      vertex 17.6418 20.0139 3
    endloop
  endfacet
  facet normal 0.841253 0.540641 0
    outer loop
      vertex 17.6418 20.0139 0
      vertex 18.708 18.3549 3
      vertex 18.708 18.3549 0
    endloop
  endfacet
  facet normal 0.965926 0.258819 0
    outer loop
      vertex 29.25 21 9
      vertex 28.1447 25.125 3
      vertex 28.1447 25.125 9
    endloop
  endfacet
  facet normal 0.965926 0.258819 0
    outer loop
      vertex 28.1447 25.125 3
      vertex 29.25 21 9
      vertex 29.25 21 3
    endloop
  endfacet
  facet normal -0.965926 0.258819 0
    outer loop
      vertex 12.75 21 3
      vertex 13.8553 25.125 9
      vertex 13.8553 25.125 3
    endloop
  endfacet
  facet normal -0.965926 0.258819 0
    outer loop
      vertex 13.8553 25.125 9
      vertex 12.75 21 3
      vertex 12.75 21 9
    endloop
  endfacet
  facet normal 0.258819 0.965926 -0
    outer loop
      vertex 25.125 28.1447 3
      vertex 21 29.25 9
      vertex 25.125 28.1447 9
    endloop
  endfacet
  facet normal 0.258819 0.965926 0
    outer loop
      vertex 21 29.25 9
      vertex 25.125 28.1447 3
      vertex 21 29.25 3
    endloop
  endfacet
  facet normal 0.707107 0.707107 0
    outer loop
      vertex 28.1447 25.125 9
      vertex 25.125 28.1447 3
      vertex 25.125 28.1447 9
    endloop
  endfacet
  facet normal 0.707107 0.707107 0
    outer loop
      vertex 25.125 28.1447 3
      vertex 28.1447 25.125 9
      vertex 28.1447 25.125 3
    endloop
  endfacet
  facet normal -0.258819 0.965926 0
    outer loop
      vertex 21 29.25 3
      vertex 16.875 28.1447 9
      vertex 21 29.25 9
    endloop
  endfacet
  facet normal -0.258819 0.965926 0
    outer loop
      vertex 16.875 28.1447 9
      vertex 21 29.25 3
      vertex 16.875 28.1447 3
    endloop
  endfacet
  facet normal 0.258819 -0.965926 0
    outer loop
      vertex 21 12.75 3
      vertex 25.125 13.8553 9
      vertex 21 12.75 9
    endloop
  endfacet
  facet normal 0.258819 -0.965926 0
    outer loop
      vertex 25.125 13.8553 9
      vertex 21 12.75 3
      vertex 25.125 13.8553 3
    endloop
  endfacet
  facet normal -0.707107 0.707107 0
    outer loop
      vertex 13.8553 25.125 3
      vertex 16.875 28.1447 9
      vertex 16.875 28.1447 3
    endloop
  endfacet
  facet normal -0.707107 0.707107 0
    outer loop
      vertex 16.875 28.1447 9
      vertex 13.8553 25.125 3
      vertex 13.8553 25.125 9
    endloop
  endfacet
  facet normal 0 0 1
    outer loop
      vertex 26.5 21 9
      vertex 29.25 21 9
      vertex 28.1447 25.125 9
    endloop
  endfacet
  facet normal 0 0 1
    outer loop
      vertex 29.25 21 9
      vertex 26.5 21 9
      vertex 28.1447 16.875 9
    endloop
  endfacet
  facet normal -0 0 1
    outer loop
      vertex 23.75 25.7631 9
      vertex 28.1447 25.125 9
      vertex 25.125 28.1447 9
    endloop
  endfacet
  facet normal 0 0 1
    outer loop
      vertex 28.1447 25.125 9
      vertex 23.75 25.7631 9
      vertex 26.5 21 9
    endloop
  endfacet
  facet normal 0 0 1
    outer loop
      vertex 21 29.25 9
      vertex 23.75 25.7631 9
      vertex 25.125 28.1447 9
    endloop
  endfacet
  facet normal 0 0 1
    outer loop
      vertex 21 29.25 9
      vertex 18.25 25.7631 9
      vertex 23.75 25.7631 9
    endloop
  endfacet
  facet normal -0 0 1
    outer loop
      vertex 16.875 28.1447 9
      vertex 18.25 25.7631 9
      vertex 21 29.25 9
    endloop
  endfacet
  facet normal 0 0 1
    outer loop
      vertex 13.8553 25.125 9
      vertex 18.25 25.7631 9
      vertex 16.875 28.1447 9
    endloop
  endfacet
  facet normal 0 0 1
    outer loop
      vertex 18.25 25.7631 9
      vertex 13.8553 25.125 9
      vertex 15.5 21 9
    endloop
  endfacet
  facet normal 0 0 1
    outer loop
      vertex 23.75 16.2369 9
      vertex 28.1447 16.875 9
      vertex 26.5 21 9
    endloop
  endfacet
  facet normal 0 0 1
    outer loop
      vertex 28.1447 16.875 9
      vertex 23.75 16.2369 9
      vertex 25.125 13.8553 9
    endloop
  endfacet
  facet normal 0 0 1
    outer loop
      vertex 23.75 16.2369 9
      vertex 21 12.75 9
      vertex 25.125 13.8553 9
    endloop
  endfacet
  facet normal -0 0 1
    outer loop
      vertex 18.25 16.2369 9
      vertex 21 12.75 9
      vertex 23.75 16.2369 9
    endloop
  endfacet
  facet normal 0 0 1
    outer loop
      vertex 18.25 16.2369 9
      vertex 16.875 13.8553 9
      vertex 21 12.75 9
    endloop
  endfacet
  facet normal -0 0 1
    outer loop
      vertex 13.8553 16.875 9
      vertex 18.25 16.2369 9
      vertex 15.5 21 9
    endloop
  endfacet
  facet normal 0 0 1
    outer loop
      vertex 12.75 21 9
      vertex 15.5 21 9
      vertex 13.8553 25.125 9
    endloop
  endfacet
  facet normal 0 0 1
    outer loop
      vertex 18.25 16.2369 9
      vertex 13.8553 16.875 9
      vertex 16.875 13.8553 9
    endloop
  endfacet
  facet normal 0 0 1
    outer loop
      vertex 15.5 21 9
      vertex 12.75 21 9
      vertex 13.8553 16.875 9
    endloop
  endfacet
  facet normal -0.258819 -0.965926 0
    outer loop
      vertex 16.875 13.8553 3
      vertex 21 12.75 9
      vertex 16.875 13.8553 9
    endloop
  endfacet
  facet normal -0.258819 -0.965926 -0
    outer loop
      vertex 21 12.75 9
      vertex 16.875 13.8553 3
      vertex 21 12.75 3
    endloop
  endfacet
  facet normal -0.965926 -0.258819 0
    outer loop
      vertex 13.8553 16.875 3
      vertex 12.75 21 9
      vertex 12.75 21 3
    endloop
  endfacet
  facet normal -0.965926 -0.258819 0
    outer loop
      vertex 12.75 21 9
      vertex 13.8553 16.875 3
      vertex 13.8553 16.875 9
    endloop
  endfacet
  facet normal 0.707107 -0.707107 0
    outer loop
      vertex 25.125 13.8553 9
      vertex 28.1447 16.875 3
      vertex 28.1447 16.875 9
    endloop
  endfacet
  facet normal 0.707107 -0.707107 0
    outer loop
      vertex 28.1447 16.875 3
      vertex 25.125 13.8553 9
      vertex 25.125 13.8553 3
    endloop
  endfacet
  facet normal 0.965926 -0.258819 0
    outer loop
      vertex 28.1447 16.875 9
      vertex 29.25 21 3
      vertex 29.25 21 9
    endloop
  endfacet
  facet normal 0.965926 -0.258819 0
    outer loop
      vertex 29.25 21 3
      vertex 28.1447 16.875 9
      vertex 28.1447 16.875 3
    endloop
  endfacet
  facet normal -0.707107 -0.707107 0
    outer loop
      vertex 16.875 13.8553 3
      vertex 13.8553 16.875 9
      vertex 13.8553 16.875 3
    endloop
  endfacet
  facet normal -0.707107 -0.707107 0
    outer loop
      vertex 13.8553 16.875 9
      vertex 16.875 13.8553 3
      vertex 16.875 13.8553 9
    endloop
  endfacet
  facet normal -0.866025 -0.5 0
    outer loop
      vertex 26.5 21 3
      vertex 23.75 25.7631 9
      vertex 23.75 25.7631 3
    endloop
  endfacet
  facet normal -0.866025 -0.5 0
    outer loop
      vertex 23.75 25.7631 9
      vertex 26.5 21 3
      vertex 26.5 21 9
    endloop
  endfacet
  facet normal 0.866025 -0.5 0
    outer loop
      vertex 15.5 21 9
      vertex 18.25 25.7631 3
      vertex 18.25 25.7631 9
    endloop
  endfacet
  facet normal 0.866025 -0.5 0
    outer loop
      vertex 18.25 25.7631 3
      vertex 15.5 21 9
      vertex 15.5 21 3
    endloop
  endfacet
  facet normal 0 -1 0
    outer loop
      vertex 18.25 25.7631 3
      vertex 23.75 25.7631 9
      vertex 18.25 25.7631 9
    endloop
  endfacet
  facet normal 0 -1 -0
    outer loop
      vertex 23.75 25.7631 9
      vertex 18.25 25.7631 3
      vertex 23.75 25.7631 3
    endloop
  endfacet
  facet normal 0 1 -0
    outer loop
      vertex 23.75 16.2369 3
      vertex 18.25 16.2369 9
      vertex 23.75 16.2369 9
    endloop
  endfacet
  facet normal 0 1 0
    outer loop
      vertex 18.25 16.2369 9
      vertex 23.75 16.2369 3
      vertex 18.25 16.2369 3
    endloop
  endfacet
  facet normal 0.866025 0.5 0
    outer loop
      vertex 18.25 16.2369 9
      vertex 15.5 21 3
      vertex 15.5 21 9
    endloop
  endfacet
  facet normal 0.866025 0.5 0
    outer loop
      vertex 15.5 21 3
      vertex 18.25 16.2369 9
      vertex 18.25 16.2369 3
    endloop
  endfacet
  facet normal -0.866025 0.5 0
    outer loop
      vertex 23.75 16.2369 3
      vertex 26.5 21 9
      vertex 26.5 21 3
    endloop
  endfacet
  facet normal -0.866025 0.5 0
    outer loop
      vertex 26.5 21 9
      vertex 23.75 16.2369 3
      vertex 23.75 16.2369 9
    endloop
  endfacet
endsolid OpenSCAD_Model
