solid OpenSCAD_Model
  facet normal -0 0.104529 0.994522
    outer loop
      vertex -6.61282e-15 22.0791 29.7815
      vertex 3 20 30
      vertex 3 22.0791 29.7815
    endloop
  endfacet
  facet normal 0 0.104529 0.994522
    outer loop
      vertex 3 20 30
      vertex -6.61282e-15 22.0791 29.7815
      vertex -6.66134e-15 20 30
    endloop
  endfacet
  facet normal 0 0.809017 0.587785
    outer loop
      vertex 3 28.6603 25
      vertex -5.92666e-15 27.4314 26.6913
      vertex 3 27.4314 26.6913
    endloop
  endfacet
  facet normal 0 0.809017 0.587785
    outer loop
      vertex -5.92666e-15 27.4314 26.6913
      vertex 3 28.6603 25
      vertex -5.55112e-15 28.6603 25
    endloop
  endfacet
  facet normal -0 0.5 0.866026
    outer loop
      vertex -6.23727e-15 25.8779 28.0902
      vertex 3 24.0674 29.1355
      vertex 3 25.8779 28.0902
    endloop
  endfacet
  facet normal 0 0.5 0.866026
    outer loop
      vertex 3 24.0674 29.1355
      vertex -6.23727e-15 25.8779 28.0902
      vertex -6.46937e-15 24.0674 29.1355
    endloop
  endfacet
  facet normal -0 0.309017 0.951057
    outer loop
      vertex -6.46937e-15 24.0674 29.1355
      vertex 3 22.0791 29.7815
      vertex 3 24.0674 29.1355
    endloop
  endfacet
  facet normal 0 0.309017 0.951057
    outer loop
      vertex 3 22.0791 29.7815
      vertex -6.46937e-15 24.0674 29.1355
      vertex -6.61282e-15 22.0791 29.7815
    endloop
  endfacet
  facet normal -0 0.669131 0.743144
    outer loop
      vertex -5.92666e-15 27.4314 26.6913
      vertex 3 25.8779 28.0902
      vertex 3 27.4314 26.6913
    endloop
  endfacet
  facet normal 0 0.669131 0.743144
    outer loop
      vertex 3 25.8779 28.0902
      vertex -5.92666e-15 27.4314 26.6913
      vertex -6.23727e-15 25.8779 28.0902
    endloop
  endfacet
  facet normal 0 0.978148 0.207911
    outer loop
      vertex 3 29.9452 21.0453
      vertex -5.12705e-15 29.5106 23.0902
      vertex 3 29.5106 23.0902
    endloop
  endfacet
  facet normal 0 0.978148 0.207911
    outer loop
      vertex -5.12705e-15 29.5106 23.0902
      vertex 3 29.9452 21.0453
      vertex -4.67299e-15 29.9452 21.0453
    endloop
  endfacet
  facet normal 0 1 -0
    outer loop
      vertex 3 29.9452 20
      vertex -4.67299e-15 29.9452 21.0453
      vertex 3 29.9452 21.0453
    endloop
  endfacet
  facet normal 0 1 0
    outer loop
      vertex -4.67299e-15 29.9452 21.0453
      vertex 3 29.9452 20
      vertex -4.44089e-15 29.9452 20
    endloop
  endfacet
  facet normal 0 0.913545 0.406737
    outer loop
      vertex 3 29.5106 23.0902
      vertex -5.55112e-15 28.6603 25
      vertex 3 28.6603 25
    endloop
  endfacet
  facet normal 0 0.913545 0.406737
    outer loop
      vertex -5.55112e-15 28.6603 25
      vertex 3 29.5106 23.0902
      vertex -5.12705e-15 29.5106 23.0902
    endloop
  endfacet
  facet normal -1 0 -2.22045e-16
    outer loop
      vertex 0 30 0
      vertex -4.44089e-15 29.9452 20
      vertex -4.44089e-15 30 20
    endloop
  endfacet
  facet normal -1 0 -2.22045e-16
    outer loop
      vertex -4.55234e-15 24.4644 20.5019
      vertex -4.67299e-15 29.9452 21.0453
      vertex -4.44089e-15 29.9452 20
    endloop
  endfacet
  facet normal -1 0 -2.22045e-16
    outer loop
      vertex -4.15401e-15 23.6451 18.708
      vertex -4.44089e-15 29.9452 20
      vertex 0 30 0
    endloop
  endfacet
  facet normal -1 0 -2.22045e-16
    outer loop
      vertex -4.55234e-15 24.4644 20.5019
      vertex -4.44089e-15 29.9452 20
      vertex -4.15401e-15 23.6451 18.708
    endloop
  endfacet
  facet normal -1 0 -2.22045e-16
    outer loop
      vertex -4.67299e-15 29.9452 21.0453
      vertex -4.55234e-15 24.4644 20.5019
      vertex -5.12705e-15 29.5106 23.0902
    endloop
  endfacet
  facet normal -1 0 -2.22045e-16
    outer loop
      vertex -5.12705e-15 29.5106 23.0902
      vertex -4.98578e-15 24.1837 22.454
      vertex -5.55112e-15 28.6603 25
    endloop
  endfacet
  facet normal -1 0 -2.22045e-16
    outer loop
      vertex -5.55112e-15 28.6603 25
      vertex -4.98578e-15 24.1837 22.454
      vertex -5.92666e-15 27.4314 26.6913
    endloop
  endfacet
  facet normal -1 0 -2.22045e-16
    outer loop
      vertex -4.98578e-15 24.1837 22.454
      vertex -5.12705e-15 29.5106 23.0902
      vertex -4.55234e-15 24.4644 20.5019
    endloop
  endfacet
  facet normal -1 0 -2.22045e-16
    outer loop
      vertex 0 30 0
      vertex -3.91726e-15 21.9861 17.6418
      vertex -4.15401e-15 23.6451 18.708
    endloop
  endfacet
  facet normal -1 0 -2.22045e-16
    outer loop
      vertex 0 30 0
      vertex -3.91726e-15 20.0139 17.6418
      vertex -3.91726e-15 21.9861 17.6418
    endloop
  endfacet
  facet normal -1 0 -2.22045e-16
    outer loop
      vertex 0 0 0
      vertex -3.91726e-15 20.0139 17.6418
      vertex 0 30 0
    endloop
  endfacet
  facet normal -1 0 -2.22045e-16
    outer loop
      vertex -4.15401e-15 18.3549 18.708
      vertex 0 0 0
      vertex -4.55234e-15 17.5356 20.5019
    endloop
  endfacet
  facet normal -1 0 -2.22045e-16
    outer loop
      vertex -3.91726e-15 20.0139 17.6418
      vertex 0 0 0
      vertex -4.15401e-15 18.3549 18.708
    endloop
  endfacet
  facet normal -1 0 -2.22045e-16
    outer loop
      vertex -5.31672e-15 22.8922 23.9444
      vertex -5.92666e-15 27.4314 26.6913
      vertex -4.98578e-15 24.1837 22.454
    endloop
  endfacet
  facet normal -1 0 -2.22045e-16
    outer loop
      vertex -5.92666e-15 27.4314 26.6913
      vertex -5.31672e-15 22.8922 23.9444
      vertex -6.23727e-15 25.8779 28.0902
    endloop
  endfacet
  facet normal -1 0 -2.22045e-16
    outer loop
      vertex -6.23727e-15 25.8779 28.0902
      vertex -5.31672e-15 22.8922 23.9444
      vertex -6.46937e-15 24.0674 29.1355
    endloop
  endfacet
  facet normal -1 0 -2.22045e-16
    outer loop
      vertex -5.44009e-15 21 24.5
      vertex -6.46937e-15 24.0674 29.1355
      vertex -5.31672e-15 22.8922 23.9444
    endloop
  endfacet
  facet normal -1 0 -2.22045e-16
    outer loop
      vertex -6.46937e-15 24.0674 29.1355
      vertex -5.44009e-15 21 24.5
      vertex -6.61282e-15 22.0791 29.7815
    endloop
  endfacet
  facet normal -1 0 -2.22045e-16
    outer loop
      vertex -5.44009e-15 21 24.5
      vertex -6.66134e-15 20 30
      vertex -6.61282e-15 22.0791 29.7815
    endloop
  endfacet
  facet normal -1 0 -2.22045e-16
    outer loop
      vertex -5.31672e-15 19.1078 23.9444
      vertex -6.66134e-15 20 30
      vertex -5.44009e-15 21 24.5
    endloop
  endfacet
  facet normal -1 0 -2.22045e-16
    outer loop
      vertex -4.98578e-15 17.8163 22.454
      vertex -6.66134e-15 20 30
      vertex -5.31672e-15 19.1078 23.9444
    endloop
  endfacet
  facet normal -1 0 -2.22045e-16
    outer loop
      vertex -6.66134e-15 0 30
      vertex -4.55234e-15 17.5356 20.5019
      vertex 0 0 0
    endloop
  endfacet
  facet normal -1 0 -2.22045e-16
    outer loop
      vertex -4.55234e-15 17.5356 20.5019
      vertex -6.66134e-15 0 30
      vertex -4.98578e-15 17.8163 22.454
    endloop
  endfacet
  facet normal -1 0 -2.22045e-16
    outer loop
      vertex -4.98578e-15 17.8163 22.454
      vertex -6.66134e-15 0 30
      vertex -6.66134e-15 20 30
    endloop
  endfacet
  facet normal 1 0 0
    outer loop
      vertex 3 25.7631 23.75
      vertex 3 24.4644 20.5019
      vertex 3 25.7631 18.25
    endloop
  endfacet
  facet normal 1 0 0
    outer loop
      vertex 3 25.7631 23.75
      vertex 3 24.1837 22.454
      vertex 3 24.4644 20.5019
    endloop
  endfacet
  facet normal 1 0 0
    outer loop
      vertex 3 25.7631 23.75
      vertex 3 22.8922 23.9444
      vertex 3 24.1837 22.454
    endloop
  endfacet
  facet normal 1 0 0
    outer loop
      vertex 3 21 26.5
      vertex 3 22.8922 23.9444
      vertex 3 25.7631 23.75
    endloop
  endfacet
  facet normal 1 0 0
    outer loop
      vertex 3 21 26.5
      vertex 3 21 24.5
      vertex 3 22.8922 23.9444
    endloop
  endfacet
  facet normal 1 0 0
    outer loop
      vertex 3 21 26.5
      vertex 3 19.1078 23.9444
      vertex 3 21 24.5
    endloop
  endfacet
  facet normal 1 0 0
    outer loop
      vertex 3 16.2369 23.75
      vertex 3 19.1078 23.9444
      vertex 3 21 26.5
    endloop
  endfacet
  facet normal 1 0 0
    outer loop
      vertex 3 17.8163 22.454
      vertex 3 16.2369 23.75
      vertex 3 17.5356 20.5019
    endloop
  endfacet
  facet normal 1 0 0
    outer loop
      vertex 3 19.1078 23.9444
      vertex 3 16.2369 23.75
      vertex 3 17.8163 22.454
    endloop
  endfacet
  facet normal 1 -0 0
    outer loop
      vertex 3 23.6451 18.708
      vertex 3 25.7631 18.25
      vertex 3 24.4644 20.5019
    endloop
  endfacet
  facet normal 1 0 0
    outer loop
      vertex 3 21.9861 17.6418
      vertex 3 25.7631 18.25
      vertex 3 23.6451 18.708
    endloop
  endfacet
  facet normal 1 -0 0
    outer loop
      vertex 3 21.9861 17.6418
      vertex 3 21 15.5
      vertex 3 25.7631 18.25
    endloop
  endfacet
  facet normal 1 -0 0
    outer loop
      vertex 3 20.0139 17.6418
      vertex 3 21 15.5
      vertex 3 21.9861 17.6418
    endloop
  endfacet
  facet normal 1 -0 0
    outer loop
      vertex 3 16.2369 18.25
      vertex 3 20.0139 17.6418
      vertex 3 18.3549 18.708
    endloop
  endfacet
  facet normal 1 0 0
    outer loop
      vertex 3 20.0139 17.6418
      vertex 3 16.2369 18.25
      vertex 3 21 15.5
    endloop
  endfacet
  facet normal 1 0 0
    outer loop
      vertex 3 17.5356 20.5019
      vertex 3 16.2369 18.25
      vertex 3 18.3549 18.708
    endloop
  endfacet
  facet normal 1 0 0
    outer loop
      vertex 3 16.2369 18.25
      vertex 3 17.5356 20.5019
      vertex 3 16.2369 23.75
    endloop
  endfacet
  facet normal 1 0 0
    outer loop
      vertex 3 29.25 21
      vertex 3 29.9452 21.0453
      vertex 3 29.5106 23.0902
    endloop
  endfacet
  facet normal 1 0 0
    outer loop
      vertex 3 28.1447 16.875
      vertex 3 30 20
      vertex 3 29.9452 20
    endloop
  endfacet
  facet normal 1 0 0
    outer loop
      vertex 3 29.9452 21.0453
      vertex 3 29.25 21
      vertex 3 29.9452 20
    endloop
  endfacet
  facet normal 1 0 0
    outer loop
      vertex 3 28.1447 16.875
      vertex 3 29.9452 20
      vertex 3 29.25 21
    endloop
  endfacet
  facet normal 1 0 0
    outer loop
      vertex 3 30 20
      vertex 3 28.1447 16.875
      vertex 3 30 3
    endloop
  endfacet
  facet normal 1 -0 0
    outer loop
      vertex 3 25.125 13.8553
      vertex 3 30 3
      vertex 3 28.1447 16.875
    endloop
  endfacet
  facet normal 1 -0 0
    outer loop
      vertex 3 21 12.75
      vertex 3 30 3
      vertex 3 25.125 13.8553
    endloop
  endfacet
  facet normal 1 0 0
    outer loop
      vertex 3 3 3
      vertex 3 21 12.75
      vertex 3 16.875 13.8553
    endloop
  endfacet
  facet normal 1 0 0
    outer loop
      vertex 3 3 3
      vertex 3 12.75 21
      vertex 3 3 30
    endloop
  endfacet
  facet normal 1 0 0
    outer loop
      vertex 3 21 12.75
      vertex 3 3 3
      vertex 3 30 3
    endloop
  endfacet
  facet normal 1 0 0
    outer loop
      vertex 3 13.8553 16.875
      vertex 3 3 3
      vertex 3 16.875 13.8553
    endloop
  endfacet
  facet normal 1 0 0
    outer loop
      vertex 3 12.75 21
      vertex 3 3 3
      vertex 3 13.8553 16.875
    endloop
  endfacet
  facet normal 1 0 0
    outer loop
      vertex 3 28.1447 25.125
      vertex 3 29.5106 23.0902
      vertex 3 28.6603 25
    endloop
  endfacet
  facet normal 1 0 0
    outer loop
      vertex 3 29.5106 23.0902
      vertex 3 28.1447 25.125
      vertex 3 29.25 21
    endloop
  endfacet
  facet normal 1 0 0
    outer loop
      vertex 3 27.4314 26.6913
      vertex 3 28.1447 25.125
      vertex 3 28.6603 25
    endloop
  endfacet
  facet normal 1 0 0
    outer loop
      vertex 3 25.125 28.1447
      vertex 3 27.4314 26.6913
      vertex 3 25.8779 28.0902
    endloop
  endfacet
  facet normal 1 0 0
    outer loop
      vertex 3 27.4314 26.6913
      vertex 3 25.125 28.1447
      vertex 3 28.1447 25.125
    endloop
  endfacet
  facet normal 1 0 0
    outer loop
      vertex 3 24.0674 29.1355
      vertex 3 25.125 28.1447
      vertex 3 25.8779 28.0902
    endloop
  endfacet
  facet normal 1 -0 0
    outer loop
      vertex 3 21 29.25
      vertex 3 24.0674 29.1355
      vertex 3 22.0791 29.7815
    endloop
  endfacet
  facet normal 1 0 0
    outer loop
      vertex 3 24.0674 29.1355
      vertex 3 21 29.25
      vertex 3 25.125 28.1447
    endloop
  endfacet
  facet normal 1 0 0
    outer loop
      vertex 3 20 30
      vertex 3 21 29.25
      vertex 3 22.0791 29.7815
    endloop
  endfacet
  facet normal 1 0 0
    outer loop
      vertex 3 20 30
      vertex 3 16.875 28.1447
      vertex 3 21 29.25
    endloop
  endfacet
  facet normal 1 0 0
    outer loop
      vertex 3 13.8553 25.125
      vertex 3 3 30
      vertex 3 12.75 21
    endloop
  endfacet
  facet normal 1 0 0
    outer loop
      vertex 3 16.875 28.1447
      vertex 3 3 30
      vertex 3 13.8553 25.125
    endloop
  endfacet
  facet normal 1 -0 0
    outer loop
      vertex 3 3 30
      vertex 3 16.875 28.1447
      vertex 3 20 30
    endloop
  endfacet
  facet normal 0 0 0
    outer loop
      vertex 3 20 30
      vertex 3 0 30
      vertex 3 3 30
    endloop
  endfacet
  facet normal 0 -1 0
    outer loop
      vertex 0 0 0
      vertex 0 0 30
      vertex -6.66134e-15 0 30
    endloop
  endfacet
  facet normal 0 -1 0
    outer loop
      vertex 0 0 30
      vertex 0 0 0
      vertex 3.67394e-15 0 0
    endloop
  endfacet
  facet normal 0 0 0
    outer loop
      vertex -6.66134e-15 0 30
      vertex 0 0 30
      vertex 3 0 30
    endloop
  endfacet
  facet normal -0 0 1
    outer loop
      vertex -6.66134e-15 20 30
      vertex 3 0 30
      vertex 3 20 30
    endloop
  endfacet
  facet normal 0 0 1
    outer loop
      vertex 3 0 30
      vertex -6.66134e-15 20 30
      vertex -6.66134e-15 0 30
    endloop
  endfacet
  facet normal -0 0 1
    outer loop
      vertex -4.44089e-15 30 20
      vertex 3 29.9452 20
      vertex 3 30 20
    endloop
  endfacet
  facet normal 0 0 1
    outer loop
      vertex 3 29.9452 20
      vertex -4.44089e-15 30 20
      vertex -4.44089e-15 29.9452 20
    endloop
  endfacet
  facet normal 0 1 0
    outer loop
      vertex 80 30 20
      vertex 77 30 3
      vertex 77 30 20
    endloop
  endfacet
  facet normal 0 1 0
    outer loop
      vertex 77 30 3
      vertex 80 30 0
      vertex 3 30 3
    endloop
  endfacet
  facet normal 0 1 -0
    outer loop
      vertex 80 30 0
      vertex 77 30 3
      vertex 80 30 20
    endloop
  endfacet
  facet normal 0 1 -0
    outer loop
      vertex 3 30 3
      vertex -4.44089e-15 30 20
      vertex 3 30 20
    endloop
  endfacet
  facet normal 0 1 0
    outer loop
      vertex 3 30 3
      vertex 0 30 0
      vertex -4.44089e-15 30 20
    endloop
  endfacet
  facet normal 0 1 0
    outer loop
      vertex 0 30 0
      vertex 3 30 3
      vertex 80 30 0
    endloop
  endfacet
  facet normal 0 -0.281733 -0.959493
    outer loop
      vertex 3 21 24.5
      vertex -5.31672e-15 22.8922 23.9444
      vertex 3 22.8922 23.9444
    endloop
  endfacet
  facet normal 0 -0.281733 -0.959493
    outer loop
      vertex -5.31672e-15 22.8922 23.9444
      vertex 3 21 24.5
      vertex -5.44009e-15 21 24.5
    endloop
  endfacet
  facet normal -0 0 1
    outer loop
      vertex -3.91726e-15 21.9861 17.6418
      vertex 3 20.0139 17.6418
      vertex 3 21.9861 17.6418
    endloop
  endfacet
  facet normal 0 0 1
    outer loop
      vertex 3 20.0139 17.6418
      vertex -3.91726e-15 21.9861 17.6418
      vertex -3.91726e-15 20.0139 17.6418
    endloop
  endfacet
  facet normal 0 -0.909632 0.415415
    outer loop
      vertex -4.15401e-15 23.6451 18.708
      vertex 3 24.4644 20.5019
      vertex -4.55234e-15 24.4644 20.5019
    endloop
  endfacet
  facet normal 0 -0.909632 0.415415
    outer loop
      vertex 3 24.4644 20.5019
      vertex -4.15401e-15 23.6451 18.708
      vertex 3 23.6451 18.708
    endloop
  endfacet
  facet normal 0 -0.540641 0.841253
    outer loop
      vertex 3 23.6451 18.708
      vertex -3.91726e-15 21.9861 17.6418
      vertex 3 21.9861 17.6418
    endloop
  endfacet
  facet normal 0 -0.540641 0.841253
    outer loop
      vertex -3.91726e-15 21.9861 17.6418
      vertex 3 23.6451 18.708
      vertex -4.15401e-15 23.6451 18.708
    endloop
  endfacet
  facet normal 0 0.989821 -0.142315
    outer loop
      vertex 3 17.5356 20.5019
      vertex -4.98578e-15 17.8163 22.454
      vertex 3 17.8163 22.454
    endloop
  endfacet
  facet normal 0 0.989821 -0.142315
    outer loop
      vertex -4.98578e-15 17.8163 22.454
      vertex 3 17.5356 20.5019
      vertex -4.55234e-15 17.5356 20.5019
    endloop
  endfacet
  facet normal 0 0.755749 -0.654861
    outer loop
      vertex 3 17.8163 22.454
      vertex -5.31672e-15 19.1078 23.9444
      vertex 3 19.1078 23.9444
    endloop
  endfacet
  facet normal 0 0.755749 -0.654861
    outer loop
      vertex -5.31672e-15 19.1078 23.9444
      vertex 3 17.8163 22.454
      vertex -4.98578e-15 17.8163 22.454
    endloop
  endfacet
  facet normal 0 -0.989821 -0.142315
    outer loop
      vertex -4.55234e-15 24.4644 20.5019
      vertex 3 24.1837 22.454
      vertex -4.98578e-15 24.1837 22.454
    endloop
  endfacet
  facet normal 0 -0.989821 -0.142315
    outer loop
      vertex 3 24.1837 22.454
      vertex -4.55234e-15 24.4644 20.5019
      vertex 3 24.4644 20.5019
    endloop
  endfacet
  facet normal 0 -0.755749 -0.654861
    outer loop
      vertex -4.98578e-15 24.1837 22.454
      vertex 3 22.8922 23.9444
      vertex -5.31672e-15 22.8922 23.9444
    endloop
  endfacet
  facet normal 0 -0.755749 -0.654861
    outer loop
      vertex 3 22.8922 23.9444
      vertex -4.98578e-15 24.1837 22.454
      vertex 3 24.1837 22.454
    endloop
  endfacet
  facet normal 0 0.281733 -0.959493
    outer loop
      vertex -5.31672e-15 19.1078 23.9444
      vertex 3 21 24.5
      vertex 3 19.1078 23.9444
    endloop
  endfacet
  facet normal 0 0.281733 -0.959493
    outer loop
      vertex 3 21 24.5
      vertex -5.31672e-15 19.1078 23.9444
      vertex -5.44009e-15 21 24.5
    endloop
  endfacet
  facet normal 0 0.909632 0.415414
    outer loop
      vertex 3 18.3549 18.708
      vertex -4.55234e-15 17.5356 20.5019
      vertex 3 17.5356 20.5019
    endloop
  endfacet
  facet normal 0 0.909632 0.415414
    outer loop
      vertex -4.55234e-15 17.5356 20.5019
      vertex 3 18.3549 18.708
      vertex -4.15401e-15 18.3549 18.708
    endloop
  endfacet
  facet normal -0 0.540641 0.841253
    outer loop
      vertex -3.91726e-15 20.0139 17.6418
      vertex 3 18.3549 18.708
      vertex 3 20.0139 17.6418
    endloop
  endfacet
  facet normal 0 0.540641 0.841253
    outer loop
      vertex 3 18.3549 18.708
      vertex -3.91726e-15 20.0139 17.6418
      vertex -4.15401e-15 18.3549 18.708
    endloop
  endfacet
  facet normal -0 0.258819 0.965926
    outer loop
      vertex 3 25.125 28.1447
      vertex 9 21 29.25
      vertex 9 25.125 28.1447
    endloop
  endfacet
  facet normal 0 0.258819 0.965926
    outer loop
      vertex 9 21 29.25
      vertex 3 25.125 28.1447
      vertex 3 21 29.25
    endloop
  endfacet
  facet normal 0 0.258819 -0.965926
    outer loop
      vertex 3 21 12.75
      vertex 9 25.125 13.8553
      vertex 9 21 12.75
    endloop
  endfacet
  facet normal 0 0.258819 -0.965926
    outer loop
      vertex 9 25.125 13.8553
      vertex 3 21 12.75
      vertex 3 25.125 13.8553
    endloop
  endfacet
  facet normal 0 0.965926 0.258819
    outer loop
      vertex 9 29.25 21
      vertex 3 28.1447 25.125
      vertex 9 28.1447 25.125
    endloop
  endfacet
  facet normal 0 0.965926 0.258819
    outer loop
      vertex 3 28.1447 25.125
      vertex 9 29.25 21
      vertex 3 29.25 21
    endloop
  endfacet
  facet normal 0 0.707107 0.707107
    outer loop
      vertex 9 28.1447 25.125
      vertex 3 25.125 28.1447
      vertex 9 25.125 28.1447
    endloop
  endfacet
  facet normal 0 0.707107 0.707107
    outer loop
      vertex 3 25.125 28.1447
      vertex 9 28.1447 25.125
      vertex 3 28.1447 25.125
    endloop
  endfacet
  facet normal 0 0.965926 -0.258819
    outer loop
      vertex 9 28.1447 16.875
      vertex 3 29.25 21
      vertex 9 29.25 21
    endloop
  endfacet
  facet normal 0 0.965926 -0.258819
    outer loop
      vertex 3 29.25 21
      vertex 9 28.1447 16.875
      vertex 3 28.1447 16.875
    endloop
  endfacet
  facet normal 0 -0.965926 0.258819
    outer loop
      vertex 3 12.75 21
      vertex 9 13.8553 25.125
      vertex 3 13.8553 25.125
    endloop
  endfacet
  facet normal 0 -0.965926 0.258819
    outer loop
      vertex 9 13.8553 25.125
      vertex 3 12.75 21
      vertex 9 12.75 21
    endloop
  endfacet
  facet normal 0 0.707107 -0.707107
    outer loop
      vertex 9 25.125 13.8553
      vertex 3 28.1447 16.875
      vertex 9 28.1447 16.875
    endloop
  endfacet
  facet normal 0 0.707107 -0.707107
    outer loop
      vertex 3 28.1447 16.875
      vertex 9 25.125 13.8553
      vertex 3 25.125 13.8553
    endloop
  endfacet
  facet normal 1 -0 0
    outer loop
      vertex 9 25.7631 23.75
      vertex 9 29.25 21
      vertex 9 28.1447 25.125
    endloop
  endfacet
  facet normal 1 0 0
    outer loop
      vertex 9 25.7631 18.25
      vertex 9 29.25 21
      vertex 9 25.7631 23.75
    endloop
  endfacet
  facet normal 1 0 0
    outer loop
      vertex 9 25.125 28.1447
      vertex 9 25.7631 23.75
      vertex 9 28.1447 25.125
    endloop
  endfacet
  facet normal 1 0 0
    outer loop
      vertex 9 21 26.5
      vertex 9 25.125 28.1447
      vertex 9 21 29.25
    endloop
  endfacet
  facet normal 1 0 0
    outer loop
      vertex 9 25.125 28.1447
      vertex 9 21 26.5
      vertex 9 25.7631 23.75
    endloop
  endfacet
  facet normal 1 -0 0
    outer loop
      vertex 9 16.875 28.1447
      vertex 9 21 26.5
      vertex 9 21 29.25
    endloop
  endfacet
  facet normal 1 0 0
    outer loop
      vertex 9 16.875 28.1447
      vertex 9 16.2369 23.75
      vertex 9 21 26.5
    endloop
  endfacet
  facet normal 1 0 0
    outer loop
      vertex 9 12.75 21
      vertex 9 16.2369 23.75
      vertex 9 13.8553 25.125
    endloop
  endfacet
  facet normal 1 -0 0
    outer loop
      vertex 9 13.8553 25.125
      vertex 9 16.2369 23.75
      vertex 9 16.875 28.1447
    endloop
  endfacet
  facet normal 1 0 0
    outer loop
      vertex 9 29.25 21
      vertex 9 25.7631 18.25
      vertex 9 28.1447 16.875
    endloop
  endfacet
  facet normal 1 0 0
    outer loop
      vertex 9 25.7631 18.25
      vertex 9 25.125 13.8553
      vertex 9 28.1447 16.875
    endloop
  endfacet
  facet normal 1 -0 0
    outer loop
      vertex 9 21 15.5
      vertex 9 25.125 13.8553
      vertex 9 25.7631 18.25
    endloop
  endfacet
  facet normal 1 0 0
    outer loop
      vertex 9 21 15.5
      vertex 9 21 12.75
      vertex 9 25.125 13.8553
    endloop
  endfacet
  facet normal 1 0 0
    outer loop
      vertex 9 21 15.5
      vertex 9 16.875 13.8553
      vertex 9 21 12.75
    endloop
  endfacet
  facet normal 1 0 0
    outer loop
      vertex 9 16.2369 18.25
      vertex 9 16.875 13.8553
      vertex 9 21 15.5
    endloop
  endfacet
  facet normal 1 0 0
    outer loop
      vertex 9 16.2369 23.75
      vertex 9 12.75 21
      vertex 9 16.2369 18.25
    endloop
  endfacet
  facet normal 1 0 0
    outer loop
      vertex 9 16.2369 18.25
      vertex 9 13.8553 16.875
      vertex 9 16.875 13.8553
    endloop
  endfacet
  facet normal 1 0 0
    outer loop
      vertex 9 16.2369 18.25
      vertex 9 12.75 21
      vertex 9 13.8553 16.875
    endloop
  endfacet
  facet normal 0 -0.965926 -0.258819
    outer loop
      vertex 3 13.8553 16.875
      vertex 9 12.75 21
      vertex 3 12.75 21
    endloop
  endfacet
  facet normal 0 -0.965926 -0.258819
    outer loop
      vertex 9 12.75 21
      vertex 3 13.8553 16.875
      vertex 9 13.8553 16.875
    endloop
  endfacet
  facet normal 0 -0.258819 -0.965926
    outer loop
      vertex 3 16.875 13.8553
      vertex 9 21 12.75
      vertex 9 16.875 13.8553
    endloop
  endfacet
  facet normal -0 -0.258819 -0.965926
    outer loop
      vertex 9 21 12.75
      vertex 3 16.875 13.8553
      vertex 3 21 12.75
    endloop
  endfacet
  facet normal 0 -0.707107 0.707107
    outer loop
      vertex 3 13.8553 25.125
      vertex 9 16.875 28.1447
      vertex 3 16.875 28.1447
    endloop
  endfacet
  facet normal 0 -0.707107 0.707107
    outer loop
      vertex 9 16.875 28.1447
      vertex 3 13.8553 25.125
      vertex 9 13.8553 25.125
    endloop
  endfacet
  facet normal 0 -0.258819 0.965926
    outer loop
      vertex 3 21 29.25
      vertex 9 16.875 28.1447
      vertex 9 21 29.25
    endloop
  endfacet
  facet normal 0 -0.258819 0.965926
    outer loop
      vertex 9 16.875 28.1447
      vertex 3 21 29.25
      vertex 3 16.875 28.1447
    endloop
  endfacet
  facet normal 0 -0.707107 -0.707107
    outer loop
      vertex 3 16.875 13.8553
      vertex 9 13.8553 16.875
      vertex 3 13.8553 16.875
    endloop
  endfacet
  facet normal 0 -0.707107 -0.707107
    outer loop
      vertex 9 13.8553 16.875
      vertex 3 16.875 13.8553
      vertex 9 16.875 13.8553
    endloop
  endfacet
  facet normal 0 -0.5 -0.866025
    outer loop
      vertex 3 21 26.5
      vertex 9 25.7631 23.75
      vertex 9 21 26.5
    endloop
  endfacet
  facet normal -0 -0.5 -0.866025
    outer loop
      vertex 9 25.7631 23.75
      vertex 3 21 26.5
      vertex 3 25.7631 23.75
    endloop
  endfacet
  facet normal 0 -0.5 0.866025
    outer loop
      vertex 3 25.7631 18.25
      vertex 9 21 15.5
      vertex 9 25.7631 18.25
    endloop
  endfacet
  facet normal 0 -0.5 0.866025
    outer loop
      vertex 9 21 15.5
      vertex 3 25.7631 18.25
      vertex 3 21 15.5
    endloop
  endfacet
  facet normal 0 -1 0
    outer loop
      vertex 3 25.7631 18.25
      vertex 9 25.7631 23.75
      vertex 3 25.7631 23.75
    endloop
  endfacet
  facet normal 0 -1 -0
    outer loop
      vertex 9 25.7631 23.75
      vertex 3 25.7631 18.25
      vertex 9 25.7631 18.25
    endloop
  endfacet
  facet normal 0 1 -0
    outer loop
      vertex 9 16.2369 18.25
      vertex 3 16.2369 23.75
      vertex 9 16.2369 23.75
    endloop
  endfacet
  facet normal 0 1 0
    outer loop
      vertex 3 16.2369 23.75
      vertex 9 16.2369 18.25
      vertex 3 16.2369 18.25
    endloop
  endfacet
  facet normal -0 0.5 0.866025
    outer loop
      vertex 3 21 15.5
      vertex 9 16.2369 18.25
      vertex 9 21 15.5
    endloop
  endfacet
  facet normal 0 0.5 0.866025
    outer loop
      vertex 9 16.2369 18.25
      vertex 3 21 15.5
      vertex 3 16.2369 18.25
    endloop
  endfacet
  facet normal 0 0.5 -0.866025
    outer loop
      vertex 3 16.2369 23.75
      vertex 9 21 26.5
      vertex 9 16.2369 23.75
    endloop
  endfacet
  facet normal 0 0.5 -0.866025
    outer loop
      vertex 9 21 26.5
      vertex 3 16.2369 23.75
      vertex 3 21 26.5
    endloop
  endfacet
  facet normal 0 0 1
    outer loop
      vertex 42 15 3
      vertex 39.4444 16.8922 3
      vertex 40 15 3
    endloop
  endfacet
  facet normal 0 0 1
    outer loop
      vertex 39.25 19.7631 3
      vertex 39.4444 16.8922 3
      vertex 42 15 3
    endloop
  endfacet
  facet normal 0 0 1
    outer loop
      vertex 39.25 19.7631 3
      vertex 37.954 18.1837 3
      vertex 39.4444 16.8922 3
    endloop
  endfacet
  facet normal 0 0 1
    outer loop
      vertex 39.25 19.7631 3
      vertex 36.0019 18.4644 3
      vertex 37.954 18.1837 3
    endloop
  endfacet
  facet normal -0 0 1
    outer loop
      vertex 33.75 19.7631 3
      vertex 36.0019 18.4644 3
      vertex 39.25 19.7631 3
    endloop
  endfacet
  facet normal 0 0 1
    outer loop
      vertex 33.75 19.7631 3
      vertex 34.208 17.6451 3
      vertex 36.0019 18.4644 3
    endloop
  endfacet
  facet normal 0 0 1
    outer loop
      vertex 33.75 19.7631 3
      vertex 33.1418 15.9861 3
      vertex 34.208 17.6451 3
    endloop
  endfacet
  facet normal 0 0 1
    outer loop
      vertex 33.1418 15.9861 3
      vertex 31 15 3
      vertex 33.1418 14.0139 3
    endloop
  endfacet
  facet normal 0 0 1
    outer loop
      vertex 31 15 3
      vertex 33.1418 15.9861 3
      vertex 33.75 19.7631 3
    endloop
  endfacet
  facet normal 0 0 1
    outer loop
      vertex 39.4444 13.1078 3
      vertex 42 15 3
      vertex 40 15 3
    endloop
  endfacet
  facet normal -0 0 1
    outer loop
      vertex 39.4444 13.1078 3
      vertex 39.25 10.2369 3
      vertex 42 15 3
    endloop
  endfacet
  facet normal -0 0 1
    outer loop
      vertex 37.954 11.8163 3
      vertex 39.25 10.2369 3
      vertex 39.4444 13.1078 3
    endloop
  endfacet
  facet normal -0 0 1
    outer loop
      vertex 36.0019 11.5356 3
      vertex 39.25 10.2369 3
      vertex 37.954 11.8163 3
    endloop
  endfacet
  facet normal 0 0 1
    outer loop
      vertex 36.0019 11.5356 3
      vertex 33.75 10.2369 3
      vertex 39.25 10.2369 3
    endloop
  endfacet
  facet normal 0 0 1
    outer loop
      vertex 34.208 12.3549 3
      vertex 33.75 10.2369 3
      vertex 36.0019 11.5356 3
    endloop
  endfacet
  facet normal 0 0 1
    outer loop
      vertex 33.1418 14.0139 3
      vertex 33.75 10.2369 3
      vertex 34.208 12.3549 3
    endloop
  endfacet
  facet normal 0 0 1
    outer loop
      vertex 33.75 10.2369 3
      vertex 33.1418 14.0139 3
      vertex 31 15 3
    endloop
  endfacet
  facet normal 0 0 1
    outer loop
      vertex 77 30 3
      vertex 47.5 15 3
      vertex 77 3 3
    endloop
  endfacet
  facet normal 0 0 1
    outer loop
      vertex 77 30 3
      vertex 46.0263 20.5 3
      vertex 47.5 15 3
    endloop
  endfacet
  facet normal 0 0 1
    outer loop
      vertex 77 30 3
      vertex 42 24.5263 3
      vertex 46.0263 20.5 3
    endloop
  endfacet
  facet normal 0 0 1
    outer loop
      vertex 77 30 3
      vertex 36.5 26 3
      vertex 42 24.5263 3
    endloop
  endfacet
  facet normal 0 0 1
    outer loop
      vertex 26.9737 20.5 3
      vertex 3 30 3
      vertex 25.5 15 3
    endloop
  endfacet
  facet normal 0 0 1
    outer loop
      vertex 31 24.5263 3
      vertex 3 30 3
      vertex 26.9737 20.5 3
    endloop
  endfacet
  facet normal 0 0 1
    outer loop
      vertex 36.5 26 3
      vertex 3 30 3
      vertex 31 24.5263 3
    endloop
  endfacet
  facet normal -0 0 1
    outer loop
      vertex 3 30 3
      vertex 36.5 26 3
      vertex 77 30 3
    endloop
  endfacet
  facet normal -0 0 1
    outer loop
      vertex 46.0263 9.5 3
      vertex 77 3 3
      vertex 47.5 15 3
    endloop
  endfacet
  facet normal -0 0 1
    outer loop
      vertex 42 5.47372 3
      vertex 77 3 3
      vertex 46.0263 9.5 3
    endloop
  endfacet
  facet normal -0 0 1
    outer loop
      vertex 36.5 4 3
      vertex 77 3 3
      vertex 42 5.47372 3
    endloop
  endfacet
  facet normal 0 0 1
    outer loop
      vertex 3 3 3
      vertex 25.5 15 3
      vertex 3 30 3
    endloop
  endfacet
  facet normal 0 0 1
    outer loop
      vertex 25.5 15 3
      vertex 3 3 3
      vertex 26.9737 9.5 3
    endloop
  endfacet
  facet normal 0 0 1
    outer loop
      vertex 36.5 4 3
      vertex 3 3 3
      vertex 77 3 3
    endloop
  endfacet
  facet normal 0 0 1
    outer loop
      vertex 31 5.47372 3
      vertex 3 3 3
      vertex 36.5 4 3
    endloop
  endfacet
  facet normal 0 0 1
    outer loop
      vertex 26.9737 9.5 3
      vertex 3 3 3
      vertex 31 5.47372 3
    endloop
  endfacet
  facet normal 0 0 -1
    outer loop
      vertex 3.67394e-15 0 0
      vertex 0 0 0
      vertex 3.67394e-15 3 0
    endloop
  endfacet
  facet normal 0 0 -1
    outer loop
      vertex 80 3 0
      vertex 40 15 0
      vertex 80 30 0
    endloop
  endfacet
  facet normal 0 0 -1
    outer loop
      vertex 80 3 0
      vertex 39.4444 13.1078 0
      vertex 40 15 0
    endloop
  endfacet
  facet normal 0 0 -1
    outer loop
      vertex 80 3 0
      vertex 37.954 11.8163 0
      vertex 39.4444 13.1078 0
    endloop
  endfacet
  facet normal 0 0 -1
    outer loop
      vertex 80 3 0
      vertex 36.0019 11.5356 0
      vertex 37.954 11.8163 0
    endloop
  endfacet
  facet normal -0 0 -1
    outer loop
      vertex 33.1418 14.0139 0
      vertex 3.67394e-15 3 0
      vertex 33.1418 15.9861 0
    endloop
  endfacet
  facet normal -0 0 -1
    outer loop
      vertex 34.208 12.3549 0
      vertex 3.67394e-15 3 0
      vertex 33.1418 14.0139 0
    endloop
  endfacet
  facet normal -0 0 -1
    outer loop
      vertex 36.0019 11.5356 0
      vertex 3.67394e-15 3 0
      vertex 34.208 12.3549 0
    endloop
  endfacet
  facet normal 0 0 -1
    outer loop
      vertex 3.67394e-15 3 0
      vertex 36.0019 11.5356 0
      vertex 80 3 0
    endloop
  endfacet
  facet normal 0 0 -1
    outer loop
      vertex 39.4444 16.8922 0
      vertex 80 30 0
      vertex 40 15 0
    endloop
  endfacet
  facet normal 0 0 -1
    outer loop
      vertex 37.954 18.1837 0
      vertex 80 30 0
      vertex 39.4444 16.8922 0
    endloop
  endfacet
  facet normal 0 0 -1
    outer loop
      vertex 36.0019 18.4644 0
      vertex 80 30 0
      vertex 37.954 18.1837 0
    endloop
  endfacet
  facet normal 0 0 -1
    outer loop
      vertex 0 30 0
      vertex 33.1418 15.9861 0
      vertex 3.67394e-15 3 0
    endloop
  endfacet
  facet normal 0 0 -1
    outer loop
      vertex 33.1418 15.9861 0
      vertex 0 30 0
      vertex 34.208 17.6451 0
    endloop
  endfacet
  facet normal 0 0 -1
    outer loop
      vertex 36.0019 18.4644 0
      vertex 0 30 0
      vertex 80 30 0
    endloop
  endfacet
  facet normal 0 0 -1
    outer loop
      vertex 34.208 17.6451 0
      vertex 0 30 0
      vertex 36.0019 18.4644 0
    endloop
  endfacet
  facet normal 0 0 -1
    outer loop
      vertex 0 30 0
      vertex 3.67394e-15 3 0
      vertex 0 0 0
    endloop
  endfacet
  facet normal -0.959493 -0.281733 0
    outer loop
      vertex 40 15 0
      vertex 39.4444 16.8922 3
      vertex 39.4444 16.8922 0
    endloop
  endfacet
  facet normal -0.959493 -0.281733 0
    outer loop
      vertex 39.4444 16.8922 3
      vertex 40 15 0
      vertex 40 15 3
    endloop
  endfacet
  facet normal 1 -0 0
    outer loop
      vertex 33.1418 14.0139 3
      vertex 33.1418 15.9861 0
      vertex 33.1418 15.9861 3
    endloop
  endfacet
  facet normal 1 0 0
    outer loop
      vertex 33.1418 15.9861 0
      vertex 33.1418 14.0139 3
      vertex 33.1418 14.0139 0
    endloop
  endfacet
  facet normal 0.415414 -0.909632 0
    outer loop
      vertex 34.208 17.6451 0
      vertex 36.0019 18.4644 3
      vertex 34.208 17.6451 3
    endloop
  endfacet
  facet normal 0.415414 -0.909632 0
    outer loop
      vertex 36.0019 18.4644 3
      vertex 34.208 17.6451 0
      vertex 36.0019 18.4644 0
    endloop
  endfacet
  facet normal 0.841254 -0.54064 0
    outer loop
      vertex 33.1418 15.9861 3
      vertex 34.208 17.6451 0
      vertex 34.208 17.6451 3
    endloop
  endfacet
  facet normal 0.841254 -0.54064 0
    outer loop
      vertex 34.208 17.6451 0
      vertex 33.1418 15.9861 3
      vertex 33.1418 15.9861 0
    endloop
  endfacet
  facet normal -0.142315 0.989821 0
    outer loop
      vertex 37.954 11.8163 0
      vertex 36.0019 11.5356 3
      vertex 37.954 11.8163 3
    endloop
  endfacet
  facet normal -0.142315 0.989821 0
    outer loop
      vertex 36.0019 11.5356 3
      vertex 37.954 11.8163 0
      vertex 36.0019 11.5356 0
    endloop
  endfacet
  facet normal -0.654861 0.755749 0
    outer loop
      vertex 39.4444 13.1078 0
      vertex 37.954 11.8163 3
      vertex 39.4444 13.1078 3
    endloop
  endfacet
  facet normal -0.654861 0.755749 0
    outer loop
      vertex 37.954 11.8163 3
      vertex 39.4444 13.1078 0
      vertex 37.954 11.8163 0
    endloop
  endfacet
  facet normal -0.142315 -0.989821 0
    outer loop
      vertex 36.0019 18.4644 0
      vertex 37.954 18.1837 3
      vertex 36.0019 18.4644 3
    endloop
  endfacet
  facet normal -0.142315 -0.989821 -0
    outer loop
      vertex 37.954 18.1837 3
      vertex 36.0019 18.4644 0
      vertex 37.954 18.1837 0
    endloop
  endfacet
  facet normal -0.654861 -0.755749 0
    outer loop
      vertex 37.954 18.1837 0
      vertex 39.4444 16.8922 3
      vertex 37.954 18.1837 3
    endloop
  endfacet
  facet normal -0.654861 -0.755749 -0
    outer loop
      vertex 39.4444 16.8922 3
      vertex 37.954 18.1837 0
      vertex 39.4444 16.8922 0
    endloop
  endfacet
  facet normal -0.959493 0.281733 0
    outer loop
      vertex 39.4444 13.1078 0
      vertex 40 15 3
      vertex 40 15 0
    endloop
  endfacet
  facet normal -0.959493 0.281733 0
    outer loop
      vertex 40 15 3
      vertex 39.4444 13.1078 0
      vertex 39.4444 13.1078 3
    endloop
  endfacet
  facet normal 0.415414 0.909632 -0
    outer loop
      vertex 36.0019 11.5356 0
      vertex 34.208 12.3549 3
      vertex 36.0019 11.5356 3
    endloop
  endfacet
  facet normal 0.415414 0.909632 0
    outer loop
      vertex 34.208 12.3549 3
      vertex 36.0019 11.5356 0
      vertex 34.208 12.3549 0
    endloop
  endfacet
  facet normal 0.841254 0.54064 0
    outer loop
      vertex 34.208 12.3549 3
      vertex 33.1418 14.0139 0
      vertex 33.1418 14.0139 3
    endloop
  endfacet
  facet normal 0.841254 0.54064 0
    outer loop
      vertex 33.1418 14.0139 0
      vertex 34.208 12.3549 3
      vertex 34.208 12.3549 0
    endloop
  endfacet
  facet normal 0.965926 0.258819 0
    outer loop
      vertex 47.5 15 9
      vertex 46.0263 20.5 3
      vertex 46.0263 20.5 9
    endloop
  endfacet
  facet normal 0.965926 0.258819 0
    outer loop
      vertex 46.0263 20.5 3
      vertex 47.5 15 9
      vertex 47.5 15 3
    endloop
  endfacet
  facet normal -0.965926 0.258819 0
    outer loop
      vertex 25.5 15 3
      vertex 26.9737 20.5 9
      vertex 26.9737 20.5 3
    endloop
  endfacet
  facet normal -0.965926 0.258819 0
    outer loop
      vertex 26.9737 20.5 9
      vertex 25.5 15 3
      vertex 25.5 15 9
    endloop
  endfacet
  facet normal 0.258819 0.965926 -0
    outer loop
      vertex 42 24.5263 3
      vertex 36.5 26 9
      vertex 42 24.5263 9
    endloop
  endfacet
  facet normal 0.258819 0.965926 0
    outer loop
      vertex 36.5 26 9
      vertex 42 24.5263 3
      vertex 36.5 26 3
    endloop
  endfacet
  facet normal 0.707107 0.707107 0
    outer loop
      vertex 46.0263 20.5 9
      vertex 42 24.5263 3
      vertex 42 24.5263 9
    endloop
  endfacet
  facet normal 0.707107 0.707107 0
    outer loop
      vertex 42 24.5263 3
      vertex 46.0263 20.5 9
      vertex 46.0263 20.5 3
    endloop
  endfacet
  facet normal -0.258819 0.965926 0
    outer loop
      vertex 36.5 26 3
      vertex 31 24.5263 9
      vertex 36.5 26 9
    endloop
  endfacet
  facet normal -0.258819 0.965926 0
    outer loop
      vertex 31 24.5263 9
      vertex 36.5 26 3
      vertex 31 24.5263 3
    endloop
  endfacet
  facet normal -0.707107 0.707107 0
    outer loop
      vertex 26.9737 20.5 3
      vertex 31 24.5263 9
      vertex 31 24.5263 3
    endloop
  endfacet
  facet normal -0.707107 0.707107 0
    outer loop
      vertex 31 24.5263 9
      vertex 26.9737 20.5 3
      vertex 26.9737 20.5 9
    endloop
  endfacet
  facet normal 0 0 1
    outer loop
      vertex 46.0263 20.5 9
      vertex 39.25 19.7631 9
      vertex 42 15 9
    endloop
  endfacet
  facet normal 0 0 1
    outer loop
      vertex 36.5 26 9
      vertex 39.25 19.7631 9
      vertex 42 24.5263 9
    endloop
  endfacet
  facet normal 0 0 1
    outer loop
      vertex 36.5 26 9
      vertex 33.75 19.7631 9
      vertex 39.25 19.7631 9
    endloop
  endfacet
  facet normal -0 0 1
    outer loop
      vertex 31 24.5263 9
      vertex 33.75 19.7631 9
      vertex 36.5 26 9
    endloop
  endfacet
  facet normal -0 0 1
    outer loop
      vertex 26.9737 20.5 9
      vertex 33.75 19.7631 9
      vertex 31 24.5263 9
    endloop
  endfacet
  facet normal 0 0 1
    outer loop
      vertex 33.75 19.7631 9
      vertex 26.9737 20.5 9
      vertex 31 15 9
    endloop
  endfacet
  facet normal 0 0 1
    outer loop
      vertex 25.5 15 9
      vertex 31 15 9
      vertex 26.9737 20.5 9
    endloop
  endfacet
  facet normal 0 0 1
    outer loop
      vertex 31 15 9
      vertex 26.9737 9.5 9
      vertex 31 5.47372 9
    endloop
  endfacet
  facet normal 0 0 1
    outer loop
      vertex 31 15 9
      vertex 25.5 15 9
      vertex 26.9737 9.5 9
    endloop
  endfacet
  facet normal 0 0 1
    outer loop
      vertex 42 15 9
      vertex 47.5 15 9
      vertex 46.0263 20.5 9
    endloop
  endfacet
  facet normal 0 0 1
    outer loop
      vertex 47.5 15 9
      vertex 42 15 9
      vertex 46.0263 9.5 9
    endloop
  endfacet
  facet normal 0 0 1
    outer loop
      vertex 39.25 19.7631 9
      vertex 46.0263 20.5 9
      vertex 42 24.5263 9
    endloop
  endfacet
  facet normal 0 0 1
    outer loop
      vertex 46.0263 9.5 9
      vertex 42 15 9
      vertex 45.5263 9 9
    endloop
  endfacet
  facet normal -0 0 1
    outer loop
      vertex 39.25 10.2369 9
      vertex 45.5263 9 9
      vertex 42 15 9
    endloop
  endfacet
  facet normal 0 0 1
    outer loop
      vertex 39.25 10.2369 9
      vertex 34.4737 9 9
      vertex 45.5263 9 9
    endloop
  endfacet
  facet normal -0 0 1
    outer loop
      vertex 33.75 10.2369 9
      vertex 34.4737 9 9
      vertex 39.25 10.2369 9
    endloop
  endfacet
  facet normal 0 0 1
    outer loop
      vertex 31 5.47372 9
      vertex 34.4737 9 9
      vertex 33.75 10.2369 9
    endloop
  endfacet
  facet normal 0 0 1
    outer loop
      vertex 31 5.47372 9
      vertex 33.75 10.2369 9
      vertex 31 15 9
    endloop
  endfacet
  facet normal 0 0 1
    outer loop
      vertex 34.4737 9 9
      vertex 31 5.47372 9
      vertex 34.4737 4.54294 9
    endloop
  endfacet
  facet normal 0.965926 -0.258819 0
    outer loop
      vertex 46.0263 9.5 9
      vertex 47.5 15 3
      vertex 47.5 15 9
    endloop
  endfacet
  facet normal 0.965926 -0.258819 0
    outer loop
      vertex 47.5 15 3
      vertex 46.0263 9.5 9
      vertex 46.0263 9.5 3
    endloop
  endfacet
  facet normal -0.258819 -0.965926 0
    outer loop
      vertex 31 5.47372 3
      vertex 34.4737 4.54294 9
      vertex 31 5.47372 9
    endloop
  endfacet
  facet normal -0.258819 -0.965926 -1.73702e-07
    outer loop
      vertex 34.4737 4.54294 9
      vertex 31 5.47372 3
      vertex 36.5 4 6.97372
    endloop
  endfacet
  facet normal -0.258819 -0.965926 -0
    outer loop
      vertex 36.5 4 6.97372
      vertex 31 5.47372 3
      vertex 36.5 4 3
    endloop
  endfacet
  facet normal -0.965926 -0.258819 0
    outer loop
      vertex 26.9737 9.5 3
      vertex 25.5 15 9
      vertex 25.5 15 3
    endloop
  endfacet
  facet normal -0.965926 -0.258819 0
    outer loop
      vertex 25.5 15 9
      vertex 26.9737 9.5 3
      vertex 26.9737 9.5 9
    endloop
  endfacet
  facet normal 0.707107 -0.707107 0
    outer loop
      vertex 42 5.47372 4.40192
      vertex 42 5.47372 3
      vertex 43.5 6.97372 4
    endloop
  endfacet
  facet normal 0.707107 -0.707107 0
    outer loop
      vertex 45.5263 9 4.54294
      vertex 46.0263 9.5 9
      vertex 45.5263 9 9
    endloop
  endfacet
  facet normal 0.707107 -0.707107 2.51231e-07
    outer loop
      vertex 46.0263 9.5 3
      vertex 43.5 6.97372 4
      vertex 42 5.47372 3
    endloop
  endfacet
  facet normal 0.707107 -0.707107 0
    outer loop
      vertex 45.5263 9 4.54294
      vertex 46.0263 9.5 3
      vertex 46.0263 9.5 9
    endloop
  endfacet
  facet normal 0.707107 -0.707107 -9.92304e-08
    outer loop
      vertex 43.5 6.97372 4
      vertex 46.0263 9.5 3
      vertex 45.5263 9 4.54294
    endloop
  endfacet
  facet normal 0.258819 -0.965926 0
    outer loop
      vertex 36.5 4 3
      vertex 38 4.40192 5.47372
      vertex 36.5 4 6.97372
    endloop
  endfacet
  facet normal 0.258819 -0.965926 3.38532e-08
    outer loop
      vertex 42 5.47372 3
      vertex 38 4.40192 5.47372
      vertex 36.5 4 3
    endloop
  endfacet
  facet normal 0.258819 -0.965926 0
    outer loop
      vertex 38 4.40192 5.47372
      vertex 42 5.47372 3
      vertex 42 5.47372 4.40192
    endloop
  endfacet
  facet normal -0.707107 -0.707107 0
    outer loop
      vertex 31 5.47372 3
      vertex 26.9737 9.5 9
      vertex 26.9737 9.5 3
    endloop
  endfacet
  facet normal -0.707107 -0.707107 0
    outer loop
      vertex 26.9737 9.5 9
      vertex 31 5.47372 3
      vertex 31 5.47372 9
    endloop
  endfacet
  facet normal -0.866025 -0.5 0
    outer loop
      vertex 42 15 3
      vertex 39.25 19.7631 9
      vertex 39.25 19.7631 3
    endloop
  endfacet
  facet normal -0.866025 -0.5 0
    outer loop
      vertex 39.25 19.7631 9
      vertex 42 15 3
      vertex 42 15 9
    endloop
  endfacet
  facet normal 0.866025 -0.5 0
    outer loop
      vertex 31 15 9
      vertex 33.75 19.7631 3
      vertex 33.75 19.7631 9
    endloop
  endfacet
  facet normal 0.866025 -0.5 0
    outer loop
      vertex 33.75 19.7631 3
      vertex 31 15 9
      vertex 31 15 3
    endloop
  endfacet
  facet normal 0 -1 0
    outer loop
      vertex 33.75 19.7631 3
      vertex 39.25 19.7631 9
      vertex 33.75 19.7631 9
    endloop
  endfacet
  facet normal 0 -1 -0
    outer loop
      vertex 39.25 19.7631 9
      vertex 33.75 19.7631 3
      vertex 39.25 19.7631 3
    endloop
  endfacet
  facet normal 0 1 -0
    outer loop
      vertex 39.25 10.2369 3
      vertex 33.75 10.2369 9
      vertex 39.25 10.2369 9
    endloop
  endfacet
  facet normal 0 1 0
    outer loop
      vertex 33.75 10.2369 9
      vertex 39.25 10.2369 3
      vertex 33.75 10.2369 3
    endloop
  endfacet
  facet normal 0.866025 0.5 0
    outer loop
      vertex 33.75 10.2369 9
      vertex 31 15 3
      vertex 31 15 9
    endloop
  endfacet
  facet normal 0.866025 0.5 0
    outer loop
      vertex 31 15 3
      vertex 33.75 10.2369 9
      vertex 33.75 10.2369 3
    endloop
  endfacet
  facet normal -0.866025 0.5 0
    outer loop
      vertex 39.25 10.2369 3
      vertex 42 15 9
      vertex 42 15 3
    endloop
  endfacet
  facet normal -0.866025 0.5 0
    outer loop
      vertex 42 15 9
      vertex 39.25 10.2369 3
      vertex 39.25 10.2369 9
    endloop
  endfacet
  facet normal 1 0 0
    outer loop
      vertex 80 0 30
      vertex 80 -6.66134e-15 0
      vertex 80 0 10.6643
    endloop
  endfacet
  facet normal 1 -0 0
    outer loop
      vertex 80 0 10.6643
      vertex 80 3 -6.66134e-16
      vertex 80 3 10.6643
    endloop
  endfacet
  facet normal 1 0 0
    outer loop
      vertex 80 3 -6.66134e-16
      vertex 80 0 10.6643
      vertex 80 -6.66134e-15 0
    endloop
  endfacet
  facet normal 0 1 0
    outer loop
      vertex 46.25 3 19.7631
      vertex 43.9981 3 18.4644
      vertex 40.75 3 19.7631
    endloop
  endfacet
  facet normal 0 1 0
    outer loop
      vertex 46.25 3 19.7631
      vertex 45.792 3 17.6451
      vertex 43.9981 3 18.4644
    endloop
  endfacet
  facet normal 0 1 0
    outer loop
      vertex 46.25 3 19.7631
      vertex 46.8582 3 15.9861
      vertex 45.792 3 17.6451
    endloop
  endfacet
  facet normal 0 1 0
    outer loop
      vertex 49 3 15
      vertex 46.8582 3 15.9861
      vertex 46.25 3 19.7631
    endloop
  endfacet
  facet normal 0 1 0
    outer loop
      vertex 49 3 15
      vertex 46.8582 3 14.0139
      vertex 46.8582 3 15.9861
    endloop
  endfacet
  facet normal 0 1 0
    outer loop
      vertex 46.25 3 10.2369
      vertex 46.8582 3 14.0139
      vertex 49 3 15
    endloop
  endfacet
  facet normal 0 1 0
    outer loop
      vertex 45.792 3 12.3549
      vertex 46.25 3 10.2369
      vertex 43.9981 3 11.5356
    endloop
  endfacet
  facet normal 0 1 0
    outer loop
      vertex 46.8582 3 14.0139
      vertex 46.25 3 10.2369
      vertex 45.792 3 12.3549
    endloop
  endfacet
  facet normal 0 1 -0
    outer loop
      vertex 42.046 3 18.1837
      vertex 40.75 3 19.7631
      vertex 43.9981 3 18.4644
    endloop
  endfacet
  facet normal 0 1 0
    outer loop
      vertex 40.5556 3 16.8922
      vertex 40.75 3 19.7631
      vertex 42.046 3 18.1837
    endloop
  endfacet
  facet normal 0 1 0
    outer loop
      vertex 38 3 15
      vertex 40.5556 3 16.8922
      vertex 40 3 15
    endloop
  endfacet
  facet normal 0 1 -0
    outer loop
      vertex 40.5556 3 16.8922
      vertex 38 3 15
      vertex 40.75 3 19.7631
    endloop
  endfacet
  facet normal 0 1 0
    outer loop
      vertex 40.5556 3 13.1078
      vertex 38 3 15
      vertex 40 3 15
    endloop
  endfacet
  facet normal 0 1 -0
    outer loop
      vertex 40.75 3 10.2369
      vertex 40.5556 3 13.1078
      vertex 42.046 3 11.8163
    endloop
  endfacet
  facet normal 0 1 0
    outer loop
      vertex 40.75 3 10.2369
      vertex 43.9981 3 11.5356
      vertex 46.25 3 10.2369
    endloop
  endfacet
  facet normal 0 1 0
    outer loop
      vertex 40.5556 3 13.1078
      vertex 40.75 3 10.2369
      vertex 38 3 15
    endloop
  endfacet
  facet normal 0 1 0
    outer loop
      vertex 43.9981 3 11.5356
      vertex 40.75 3 10.2369
      vertex 42.046 3 11.8163
    endloop
  endfacet
  facet normal 0 1 -0
    outer loop
      vertex 80 3 -6.66134e-16
      vertex 3.67394e-15 3 0
      vertex 80 3 0
    endloop
  endfacet
  facet normal 0 1 0
    outer loop
      vertex 3.67394e-15 3 0
      vertex 80 3 -6.66134e-16
      vertex 3.67394e-15 3 -1.04633e-14
    endloop
  endfacet
  facet normal 0 0 0
    outer loop
      vertex 80 3 -6.66134e-16
      vertex 80 3 0
      vertex 80 3 10.6643
    endloop
  endfacet
  facet normal 0 1 0
    outer loop
      vertex 77 3 30
      vertex 43.5 3 26
      vertex 3 3 30
    endloop
  endfacet
  facet normal 0 1 0
    outer loop
      vertex 77 3 30
      vertex 49 3 24.5263
      vertex 43.5 3 26
    endloop
  endfacet
  facet normal 0 1 0
    outer loop
      vertex 77 3 30
      vertex 53.0263 3 20.5
      vertex 49 3 24.5263
    endloop
  endfacet
  facet normal 0 1 0
    outer loop
      vertex 77 3 30
      vertex 54.5 3 15
      vertex 53.0263 3 20.5
    endloop
  endfacet
  facet normal 0 1 -0
    outer loop
      vertex 77 3 3
      vertex 54.5 3 15
      vertex 77 3 30
    endloop
  endfacet
  facet normal 0 1 0
    outer loop
      vertex 54.5 3 15
      vertex 77 3 3
      vertex 53.0263 3 9.5
    endloop
  endfacet
  facet normal 0 1 0
    outer loop
      vertex 49 3 5.47372
      vertex 77 3 3
      vertex 43.5 3 4
    endloop
  endfacet
  facet normal 0 1 0
    outer loop
      vertex 53.0263 3 9.5
      vertex 77 3 3
      vertex 49 3 5.47372
    endloop
  endfacet
  facet normal 0 1 -0
    outer loop
      vertex 38 3 24.5263
      vertex 3 3 30
      vertex 43.5 3 26
    endloop
  endfacet
  facet normal 0 1 -0
    outer loop
      vertex 33.9737 3 20.5
      vertex 3 3 30
      vertex 38 3 24.5263
    endloop
  endfacet
  facet normal 0 1 -0
    outer loop
      vertex 32.5 3 15
      vertex 3 3 30
      vertex 33.9737 3 20.5
    endloop
  endfacet
  facet normal 0 1 0
    outer loop
      vertex 3 3 3
      vertex 32.5 3 15
      vertex 33.9737 3 9.5
    endloop
  endfacet
  facet normal 0 1 0
    outer loop
      vertex 3 3 3
      vertex 33.9737 3 9.5
      vertex 38 3 5.47372
    endloop
  endfacet
  facet normal 0 1 0
    outer loop
      vertex 32.5 3 15
      vertex 3 3 3
      vertex 3 3 30
    endloop
  endfacet
  facet normal 0 1 0
    outer loop
      vertex 43.5 3 4
      vertex 3 3 3
      vertex 38 3 5.47372
    endloop
  endfacet
  facet normal 0 1 0
    outer loop
      vertex 3 3 3
      vertex 43.5 3 4
      vertex 77 3 3
    endloop
  endfacet
  facet normal -1 0 0
    outer loop
      vertex 3.67394e-15 3 -1.04633e-14
      vertex 3.67394e-15 0 0
      vertex 3.67394e-15 3 0
    endloop
  endfacet
  facet normal -1 1.80115e-16 -1.22465e-16
    outer loop
      vertex 3.67394e-15 0 0
      vertex 3.67394e-15 -6.66134e-15 -9.79717e-15
      vertex 0 0 30
    endloop
  endfacet
  facet normal -1 0 0
    outer loop
      vertex 3.67394e-15 -6.66134e-15 -9.79717e-15
      vertex 3.67394e-15 0 0
      vertex 3.67394e-15 3 -1.04633e-14
    endloop
  endfacet
  facet normal 1.22465e-16 -2.22045e-16 -1
    outer loop
      vertex 3.67394e-15 -6.66134e-15 -9.79717e-15
      vertex 80 3 -6.66134e-16
      vertex 80 -6.66134e-15 0
    endloop
  endfacet
  facet normal 1.22465e-16 -2.22045e-16 -1
    outer loop
      vertex 80 3 -6.66134e-16
      vertex 3.67394e-15 -6.66134e-15 -9.79717e-15
      vertex 3.67394e-15 3 -1.04633e-14
    endloop
  endfacet
  facet normal 0 -1 2.22045e-16
    outer loop
      vertex 3.67394e-15 -6.66134e-15 -9.79717e-15
      vertex 3 0 30
      vertex 0 0 30
    endloop
  endfacet
  facet normal 0 -1 2.22045e-16
    outer loop
      vertex 3 0 30
      vertex 43.9981 -2.56142e-15 18.4644
      vertex 77 0 30
    endloop
  endfacet
  facet normal -5.48126e-23 -1 2.22045e-16
    outer loop
      vertex 45.792 -2.74333e-15 17.6451
      vertex 77 0 30
      vertex 43.9981 -2.56142e-15 18.4644
    endloop
  endfacet
  facet normal 7.35404e-23 -1 2.22045e-16
    outer loop
      vertex 3 0 30
      vertex 42.046 -2.62374e-15 18.1837
      vertex 43.9981 -2.56142e-15 18.4644
    endloop
  endfacet
  facet normal -3.67764e-23 -1 2.22044e-16
    outer loop
      vertex 3 0 30
      vertex 40.5556 -2.91051e-15 16.8922
      vertex 42.046 -2.62374e-15 18.1837
    endloop
  endfacet
  facet normal 4.05423e-23 -1 2.22045e-16
    outer loop
      vertex 3 0 30
      vertex 40 -3.33067e-15 15
      vertex 40.5556 -2.91051e-15 16.8922
    endloop
  endfacet
  facet normal -3.27838e-32 -1 2.22045e-16
    outer loop
      vertex 3 0 30
      vertex 3.67394e-15 -6.66134e-15 -9.79717e-15
      vertex 40 -3.33067e-15 15
    endloop
  endfacet
  facet normal -5.63312e-32 -1 2.22045e-16
    outer loop
      vertex 40 -3.33067e-15 15
      vertex 3.67394e-15 -6.66134e-15 -9.79717e-15
      vertex 40.5556 -3.75083e-15 13.1078
    endloop
  endfacet
  facet normal 7.00598e-23 -1 2.22044e-16
    outer loop
      vertex 3.67394e-15 -6.66134e-15 -9.79717e-15
      vertex 43.9981 -4.09991e-15 11.5356
      vertex 42.046 -4.0376e-15 11.8163
    endloop
  endfacet
  facet normal -2.73539e-32 -1 2.22045e-16
    outer loop
      vertex 43.9981 -4.09991e-15 11.5356
      vertex 3.67394e-15 -6.66134e-15 -9.79717e-15
      vertex 80 -6.66134e-15 0
    endloop
  endfacet
  facet normal -3.85979e-23 -1 2.22045e-16
    outer loop
      vertex 40.5556 -3.75083e-15 13.1078
      vertex 3.67394e-15 -6.66134e-15 -9.79717e-15
      vertex 42.046 -4.0376e-15 11.8163
    endloop
  endfacet
  facet normal 0 -1 2.22045e-16
    outer loop
      vertex 46.8582 -3.11172e-15 15.9861
      vertex 77 0 30
      vertex 45.792 -2.74333e-15 17.6451
    endloop
  endfacet
  facet normal 0 -1 2.22045e-16
    outer loop
      vertex 46.8582 -3.54962e-15 14.0139
      vertex 77 0 30
      vertex 46.8582 -3.11172e-15 15.9861
    endloop
  endfacet
  facet normal 0 -1 2.22045e-16
    outer loop
      vertex 80 -6.66134e-15 0
      vertex 77 0 30
      vertex 46.8582 -3.54962e-15 14.0139
    endloop
  endfacet
  facet normal -4.24387e-23 -1 2.22045e-16
    outer loop
      vertex 80 -6.66134e-15 0
      vertex 46.8582 -3.54962e-15 14.0139
      vertex 45.792 -3.918e-15 12.3549
    endloop
  endfacet
  facet normal 0 -1 2.22045e-16
    outer loop
      vertex 77 0 30
      vertex 80 -6.66134e-15 0
      vertex 80 0 30
    endloop
  endfacet
  facet normal 4.86718e-23 -1 2.22045e-16
    outer loop
      vertex 80 -6.66134e-15 0
      vertex 45.792 -3.918e-15 12.3549
      vertex 43.9981 -4.09991e-15 11.5356
    endloop
  endfacet
  facet normal -0 0 1
    outer loop
      vertex 3 3 30
      vertex 77 0 30
      vertex 77 3 30
    endloop
  endfacet
  facet normal 0 0 1
    outer loop
      vertex 77 0 30
      vertex 3 3 30
      vertex 3 0 30
    endloop
  endfacet
  facet normal 0.959493 -0 0.281733
    outer loop
      vertex 40 -3.33067e-15 15
      vertex 40.5556 3 13.1078
      vertex 40 3 15
    endloop
  endfacet
  facet normal 0.959493 0 0.281733
    outer loop
      vertex 40.5556 3 13.1078
      vertex 40 -3.33067e-15 15
      vertex 40.5556 -3.75083e-15 13.1078
    endloop
  endfacet
  facet normal -1 0 0
    outer loop
      vertex 46.8582 3 14.0139
      vertex 46.8582 -3.11172e-15 15.9861
      vertex 46.8582 3 15.9861
    endloop
  endfacet
  facet normal -1 0 -0
    outer loop
      vertex 46.8582 -3.11172e-15 15.9861
      vertex 46.8582 3 14.0139
      vertex 46.8582 -3.54962e-15 14.0139
    endloop
  endfacet
  facet normal -0.415414 0 0.909632
    outer loop
      vertex 43.9981 3 11.5356
      vertex 45.792 -3.918e-15 12.3549
      vertex 45.792 3 12.3549
    endloop
  endfacet
  facet normal -0.415414 0 0.909632
    outer loop
      vertex 45.792 -3.918e-15 12.3549
      vertex 43.9981 3 11.5356
      vertex 43.9981 -4.09991e-15 11.5356
    endloop
  endfacet
  facet normal -0.841254 0 0.54064
    outer loop
      vertex 45.792 3 12.3549
      vertex 46.8582 -3.54962e-15 14.0139
      vertex 46.8582 3 14.0139
    endloop
  endfacet
  facet normal -0.841254 0 0.54064
    outer loop
      vertex 46.8582 -3.54962e-15 14.0139
      vertex 45.792 3 12.3549
      vertex 45.792 -3.918e-15 12.3549
    endloop
  endfacet
  facet normal 0.142315 0 -0.989821
    outer loop
      vertex 42.046 -2.62374e-15 18.1837
      vertex 43.9981 3 18.4644
      vertex 43.9981 -2.56142e-15 18.4644
    endloop
  endfacet
  facet normal 0.142315 0 -0.989821
    outer loop
      vertex 43.9981 3 18.4644
      vertex 42.046 -2.62374e-15 18.1837
      vertex 42.046 3 18.1837
    endloop
  endfacet
  facet normal 0.654861 0 -0.755749
    outer loop
      vertex 40.5556 -2.91051e-15 16.8922
      vertex 42.046 3 18.1837
      vertex 42.046 -2.62374e-15 18.1837
    endloop
  endfacet
  facet normal 0.654861 0 -0.755749
    outer loop
      vertex 42.046 3 18.1837
      vertex 40.5556 -2.91051e-15 16.8922
      vertex 40.5556 3 16.8922
    endloop
  endfacet
  facet normal 0.142315 0 0.989821
    outer loop
      vertex 42.046 3 11.8163
      vertex 43.9981 -4.09991e-15 11.5356
      vertex 43.9981 3 11.5356
    endloop
  endfacet
  facet normal 0.142315 0 0.989821
    outer loop
      vertex 43.9981 -4.09991e-15 11.5356
      vertex 42.046 3 11.8163
      vertex 42.046 -4.0376e-15 11.8163
    endloop
  endfacet
  facet normal 0.654861 0 0.755749
    outer loop
      vertex 40.5556 3 13.1078
      vertex 42.046 -4.0376e-15 11.8163
      vertex 42.046 3 11.8163
    endloop
  endfacet
  facet normal 0.654861 0 0.755749
    outer loop
      vertex 42.046 -4.0376e-15 11.8163
      vertex 40.5556 3 13.1078
      vertex 40.5556 -3.75083e-15 13.1078
    endloop
  endfacet
  facet normal 0.959493 0 -0.281733
    outer loop
      vertex 40.5556 -2.91051e-15 16.8922
      vertex 40 3 15
      vertex 40.5556 3 16.8922
    endloop
  endfacet
  facet normal 0.959493 0 -0.281733
    outer loop
      vertex 40 3 15
      vertex 40.5556 -2.91051e-15 16.8922
      vertex 40 -3.33067e-15 15
    endloop
  endfacet
  facet normal -0.415414 0 -0.909633
    outer loop
      vertex 43.9981 -2.56142e-15 18.4644
      vertex 45.792 3 17.6451
      vertex 45.792 -2.74333e-15 17.6451
    endloop
  endfacet
  facet normal -0.415414 0 -0.909633
    outer loop
      vertex 45.792 3 17.6451
      vertex 43.9981 -2.56142e-15 18.4644
      vertex 43.9981 3 18.4644
    endloop
  endfacet
  facet normal -0.841254 0 -0.54064
    outer loop
      vertex 46.8582 3 15.9861
      vertex 45.792 -2.74333e-15 17.6451
      vertex 45.792 3 17.6451
    endloop
  endfacet
  facet normal -0.841254 0 -0.54064
    outer loop
      vertex 45.792 -2.74333e-15 17.6451
      vertex 46.8582 3 15.9861
      vertex 46.8582 -3.11172e-15 15.9861
    endloop
  endfacet
  facet normal -0.965926 0 -0.258819
    outer loop
      vertex 33.9737 3 9.5
      vertex 32.5 9 15
      vertex 33.9737 9 9.5
    endloop
  endfacet
  facet normal -0.965926 -0 -0.258819
    outer loop
      vertex 32.5 9 15
      vertex 33.9737 3 9.5
      vertex 32.5 3 15
    endloop
  endfacet
  facet normal 0.965926 0 -0.258819
    outer loop
      vertex 54.5 3 15
      vertex 53.0263 9 9.5
      vertex 54.5 9 15
    endloop
  endfacet
  facet normal 0.965926 0 -0.258819
    outer loop
      vertex 53.0263 9 9.5
      vertex 54.5 3 15
      vertex 53.0263 3 9.5
    endloop
  endfacet
  facet normal -0.258819 0 -0.965926
    outer loop
      vertex 43.5 3 4
      vertex 42 5.47372 4.40192
      vertex 43.5 6.97372 4
    endloop
  endfacet
  facet normal -0.258819 3.38532e-08 -0.965926
    outer loop
      vertex 38 3 5.47372
      vertex 42 5.47372 4.40192
      vertex 43.5 3 4
    endloop
  endfacet
  facet normal -0.258819 0 -0.965926
    outer loop
      vertex 42 5.47372 4.40192
      vertex 38 3 5.47372
      vertex 38 4.40192 5.47372
    endloop
  endfacet
  facet normal -0.707107 -0 -0.707107
    outer loop
      vertex 38 4.40192 5.47372
      vertex 38 3 5.47372
      vertex 36.5 4 6.97372
    endloop
  endfacet
  facet normal -0.707107 0 -0.707106
    outer loop
      vertex 34.4737 4.54294 9
      vertex 33.9737 9 9.5
      vertex 34.4737 9 9
    endloop
  endfacet
  facet normal -0.707107 3.37175e-07 -0.707107
    outer loop
      vertex 33.9737 3 9.5
      vertex 36.5 4 6.97372
      vertex 38 3 5.47372
    endloop
  endfacet
  facet normal -0.707107 0 -0.707106
    outer loop
      vertex 34.4737 4.54294 9
      vertex 33.9737 3 9.5
      vertex 33.9737 9 9.5
    endloop
  endfacet
  facet normal -0.707107 -5.50983e-07 -0.707107
    outer loop
      vertex 36.5 4 6.97372
      vertex 33.9737 3 9.5
      vertex 34.4737 4.54294 9
    endloop
  endfacet
  facet normal 0.258819 0 -0.965926
    outer loop
      vertex 49 3 5.47372
      vertex 45.5263 9 4.54294
      vertex 49 9 5.47372
    endloop
  endfacet
  facet normal 0.258819 0 -0.965926
    outer loop
      vertex 43.5 6.97372 4
      vertex 49 3 5.47372
      vertex 43.5 3 4
    endloop
  endfacet
  facet normal 0.258819 -4.17377e-08 -0.965926
    outer loop
      vertex 49 3 5.47372
      vertex 43.5 6.97372 4
      vertex 45.5263 9 4.54294
    endloop
  endfacet
  facet normal 0.707107 0 -0.707107
    outer loop
      vertex 53.0263 3 9.5
      vertex 49 9 5.47372
      vertex 53.0263 9 9.5
    endloop
  endfacet
  facet normal 0.707107 0 -0.707107
    outer loop
      vertex 49 9 5.47372
      vertex 53.0263 3 9.5
      vertex 49 3 5.47372
    endloop
  endfacet
  facet normal 0 1 0
    outer loop
      vertex 38 9 15
      vertex 34.4737 9 9
      vertex 33.9737 9 9.5
    endloop
  endfacet
  facet normal 0 1 0
    outer loop
      vertex 49 9 15
      vertex 53.0263 9 20.5
      vertex 54.5 9 15
    endloop
  endfacet
  facet normal 0 1 0
    outer loop
      vertex 53.0263 9 20.5
      vertex 49 9 15
      vertex 46.25 9 19.7631
    endloop
  endfacet
  facet normal 0 1 -0
    outer loop
      vertex 53.0263 9 9.5
      vertex 49 9 15
      vertex 54.5 9 15
    endloop
  endfacet
  facet normal 0 1 -0
    outer loop
      vertex 49 9 5.47372
      vertex 46.25 9 10.2369
      vertex 53.0263 9 9.5
    endloop
  endfacet
  facet normal 0 1 0
    outer loop
      vertex 49 9 15
      vertex 53.0263 9 9.5
      vertex 46.25 9 10.2369
    endloop
  endfacet
  facet normal 0 1 -0
    outer loop
      vertex 46.25 9 19.7631
      vertex 43.5 9 26
      vertex 49 9 24.5263
    endloop
  endfacet
  facet normal 0 1 0
    outer loop
      vertex 43.5 9 26
      vertex 40.75 9 19.7631
      vertex 38 9 24.5263
    endloop
  endfacet
  facet normal 0 1 0
    outer loop
      vertex 46.25 9 19.7631
      vertex 49 9 24.5263
      vertex 53.0263 9 20.5
    endloop
  endfacet
  facet normal 0 1 0
    outer loop
      vertex 43.5 9 26
      vertex 46.25 9 19.7631
      vertex 40.75 9 19.7631
    endloop
  endfacet
  facet normal 0 1 0
    outer loop
      vertex 38 9 24.5263
      vertex 40.75 9 19.7631
      vertex 33.9737 9 20.5
    endloop
  endfacet
  facet normal 0 1 -0
    outer loop
      vertex 38 9 15
      vertex 33.9737 9 20.5
      vertex 40.75 9 19.7631
    endloop
  endfacet
  facet normal 0 1 0
    outer loop
      vertex 38 9 15
      vertex 32.5 9 15
      vertex 33.9737 9 20.5
    endloop
  endfacet
  facet normal 0 1 0
    outer loop
      vertex 34.4737 9 9
      vertex 38 9 15
      vertex 40.75 9 10.2369
    endloop
  endfacet
  facet normal 0 1 0
    outer loop
      vertex 38 9 15
      vertex 33.9737 9 9.5
      vertex 32.5 9 15
    endloop
  endfacet
  facet normal 0 1 0
    outer loop
      vertex 46.25 9 10.2369
      vertex 45.5263 9 9
      vertex 40.75 9 10.2369
    endloop
  endfacet
  facet normal 0 1 0
    outer loop
      vertex 34.4737 9 9
      vertex 40.75 9 10.2369
      vertex 45.5263 9 9
    endloop
  endfacet
  facet normal 0 1 0
    outer loop
      vertex 46.25 9 10.2369
      vertex 49 9 5.47372
      vertex 45.5263 9 9
    endloop
  endfacet
  facet normal 0 1 0
    outer loop
      vertex 45.5263 9 9
      vertex 49 9 5.47372
      vertex 45.5263 9 4.54294
    endloop
  endfacet
  facet normal -0.965926 0 0.258819
    outer loop
      vertex 32.5 3 15
      vertex 33.9737 9 20.5
      vertex 32.5 9 15
    endloop
  endfacet
  facet normal -0.965926 0 0.258819
    outer loop
      vertex 33.9737 9 20.5
      vertex 32.5 3 15
      vertex 33.9737 3 20.5
    endloop
  endfacet
  facet normal 0.258819 0 0.965926
    outer loop
      vertex 43.5 9 26
      vertex 49 3 24.5263
      vertex 49 9 24.5263
    endloop
  endfacet
  facet normal 0.258819 0 0.965926
    outer loop
      vertex 49 3 24.5263
      vertex 43.5 9 26
      vertex 43.5 3 26
    endloop
  endfacet
  facet normal 0.965926 -0 0.258819
    outer loop
      vertex 53.0263 3 20.5
      vertex 54.5 9 15
      vertex 53.0263 9 20.5
    endloop
  endfacet
  facet normal 0.965926 0 0.258819
    outer loop
      vertex 54.5 9 15
      vertex 53.0263 3 20.5
      vertex 54.5 3 15
    endloop
  endfacet
  facet normal -0.707107 0 0.707107
    outer loop
      vertex 33.9737 9 20.5
      vertex 38 3 24.5263
      vertex 38 9 24.5263
    endloop
  endfacet
  facet normal -0.707107 0 0.707107
    outer loop
      vertex 38 3 24.5263
      vertex 33.9737 9 20.5
      vertex 33.9737 3 20.5
    endloop
  endfacet
  facet normal -0.258819 0 0.965926
    outer loop
      vertex 38 9 24.5263
      vertex 43.5 3 26
      vertex 43.5 9 26
    endloop
  endfacet
  facet normal -0.258819 0 0.965926
    outer loop
      vertex 43.5 3 26
      vertex 38 9 24.5263
      vertex 38 3 24.5263
    endloop
  endfacet
  facet normal 0.707107 -0 0.707107
    outer loop
      vertex 49 3 24.5263
      vertex 53.0263 9 20.5
      vertex 49 9 24.5263
    endloop
  endfacet
  facet normal 0.707107 0 0.707107
    outer loop
      vertex 53.0263 9 20.5
      vertex 49 3 24.5263
      vertex 53.0263 3 20.5
    endloop
  endfacet
  facet normal 0.866025 -0 0.5
    outer loop
      vertex 38 3 15
      vertex 40.75 9 10.2369
      vertex 38 9 15
    endloop
  endfacet
  facet normal 0.866025 0 0.5
    outer loop
      vertex 40.75 9 10.2369
      vertex 38 3 15
      vertex 40.75 3 10.2369
    endloop
  endfacet
  facet normal -0.866025 0 0.5
    outer loop
      vertex 46.25 3 10.2369
      vertex 49 9 15
      vertex 46.25 9 10.2369
    endloop
  endfacet
  facet normal -0.866025 0 0.5
    outer loop
      vertex 49 9 15
      vertex 46.25 3 10.2369
      vertex 49 3 15
    endloop
  endfacet
  facet normal -0 0 1
    outer loop
      vertex 40.75 9 10.2369
      vertex 46.25 3 10.2369
      vertex 46.25 9 10.2369
    endloop
  endfacet
  facet normal 0 0 1
    outer loop
      vertex 46.25 3 10.2369
      vertex 40.75 9 10.2369
      vertex 40.75 3 10.2369
    endloop
  endfacet
  facet normal 0 0 -1
    outer loop
      vertex 40.75 3 19.7631
      vertex 46.25 9 19.7631
      vertex 46.25 3 19.7631
    endloop
  endfacet
  facet normal -0 0 -1
    outer loop
      vertex 46.25 9 19.7631
      vertex 40.75 3 19.7631
      vertex 40.75 9 19.7631
    endloop
  endfacet
  facet normal -0.866025 0 -0.5
    outer loop
      vertex 49 3 15
      vertex 46.25 9 19.7631
      vertex 49 9 15
    endloop
  endfacet
  facet normal -0.866025 -0 -0.5
    outer loop
      vertex 46.25 9 19.7631
      vertex 49 3 15
      vertex 46.25 3 19.7631
    endloop
  endfacet
  facet normal 0.866025 0 -0.5
    outer loop
      vertex 40.75 3 19.7631
      vertex 38 9 15
      vertex 40.75 9 19.7631
    endloop
  endfacet
  facet normal 0.866025 0 -0.5
    outer loop
      vertex 38 9 15
      vertex 40.75 3 19.7631
      vertex 38 3 15
    endloop
  endfacet
  facet normal -0 0.104529 0.994522
    outer loop
      vertex 77 22.0791 29.7815
      vertex 80 20 30
      vertex 80 22.0791 29.7815
    endloop
  endfacet
  facet normal 0 0.104529 0.994522
    outer loop
      vertex 80 20 30
      vertex 77 22.0791 29.7815
      vertex 77 20 30
    endloop
  endfacet
  facet normal 0 0.809017 0.587785
    outer loop
      vertex 80 28.6603 25
      vertex 77 27.4314 26.6913
      vertex 80 27.4314 26.6913
    endloop
  endfacet
  facet normal 0 0.809017 0.587785
    outer loop
      vertex 77 27.4314 26.6913
      vertex 80 28.6603 25
      vertex 77 28.6603 25
    endloop
  endfacet
  facet normal -0 0.5 0.866026
    outer loop
      vertex 77 25.8779 28.0902
      vertex 80 24.0674 29.1355
      vertex 80 25.8779 28.0902
    endloop
  endfacet
  facet normal 0 0.5 0.866026
    outer loop
      vertex 80 24.0674 29.1355
      vertex 77 25.8779 28.0902
      vertex 77 24.0674 29.1355
    endloop
  endfacet
  facet normal -0 0.309017 0.951057
    outer loop
      vertex 77 24.0674 29.1355
      vertex 80 22.0791 29.7815
      vertex 80 24.0674 29.1355
    endloop
  endfacet
  facet normal 0 0.309017 0.951057
    outer loop
      vertex 80 22.0791 29.7815
      vertex 77 24.0674 29.1355
      vertex 77 22.0791 29.7815
    endloop
  endfacet
  facet normal -0 0.669131 0.743144
    outer loop
      vertex 77 27.4314 26.6913
      vertex 80 25.8779 28.0902
      vertex 80 27.4314 26.6913
    endloop
  endfacet
  facet normal 0 0.669131 0.743144
    outer loop
      vertex 80 25.8779 28.0902
      vertex 77 27.4314 26.6913
      vertex 77 25.8779 28.0902
    endloop
  endfacet
  facet normal 0 0.978148 0.207911
    outer loop
      vertex 80 29.9452 21.0453
      vertex 77 29.5106 23.0902
      vertex 80 29.5106 23.0902
    endloop
  endfacet
  facet normal 0 0.978148 0.207911
    outer loop
      vertex 77 29.5106 23.0902
      vertex 80 29.9452 21.0453
      vertex 77 29.9452 21.0453
    endloop
  endfacet
  facet normal 0 1 -0
    outer loop
      vertex 80 29.9452 20
      vertex 77 29.9452 21.0453
      vertex 80 29.9452 21.0453
    endloop
  endfacet
  facet normal 0 1 0
    outer loop
      vertex 77 29.9452 21.0453
      vertex 80 29.9452 20
      vertex 77 29.9452 20
    endloop
  endfacet
  facet normal 0 0.913545 0.406737
    outer loop
      vertex 80 29.5106 23.0902
      vertex 77 28.6603 25
      vertex 80 28.6603 25
    endloop
  endfacet
  facet normal 0 0.913545 0.406737
    outer loop
      vertex 77 28.6603 25
      vertex 80 29.5106 23.0902
      vertex 77 29.5106 23.0902
    endloop
  endfacet
  facet normal 1 0 0
    outer loop
      vertex 80 24.4644 20.5019
      vertex 80 29.9452 21.0453
      vertex 80 29.5106 23.0902
    endloop
  endfacet
  facet normal 1 -0 0
    outer loop
      vertex 80 29.9452 20
      vertex 80 30 0
      vertex 80 30 20
    endloop
  endfacet
  facet normal 1 0 0
    outer loop
      vertex 80 29.9452 21.0453
      vertex 80 24.4644 20.5019
      vertex 80 29.9452 20
    endloop
  endfacet
  facet normal 1 0 0
    outer loop
      vertex 80 24.1837 22.454
      vertex 80 29.5106 23.0902
      vertex 80 28.6603 25
    endloop
  endfacet
  facet normal 1 0 0
    outer loop
      vertex 80 24.1837 22.454
      vertex 80 28.6603 25
      vertex 80 27.4314 26.6913
    endloop
  endfacet
  facet normal 1 0 0
    outer loop
      vertex 80 22.8922 23.9444
      vertex 80 27.4314 26.6913
      vertex 80 25.8779 28.0902
    endloop
  endfacet
  facet normal 1 0 0
    outer loop
      vertex 80 29.9452 20
      vertex 80 24.4644 20.5019
      vertex 80 23.6451 18.708
    endloop
  endfacet
  facet normal 1 0 0
    outer loop
      vertex 80 29.9452 20
      vertex 80 23.6451 18.708
      vertex 80 30 0
    endloop
  endfacet
  facet normal 1 -0 0
    outer loop
      vertex 80 21.9861 17.6418
      vertex 80 30 0
      vertex 80 23.6451 18.708
    endloop
  endfacet
  facet normal 1 -0 0
    outer loop
      vertex 80 20.0139 17.6418
      vertex 80 30 0
      vertex 80 21.9861 17.6418
    endloop
  endfacet
  facet normal 1 0 0
    outer loop
      vertex 80 3 10.6643
      vertex 80 20.0139 17.6418
      vertex 80 18.3549 18.708
    endloop
  endfacet
  facet normal 1 0 0
    outer loop
      vertex 80 3 10.6643
      vertex 80 18.3549 18.708
      vertex 80 17.5356 20.5019
    endloop
  endfacet
  facet normal 1 0 0
    outer loop
      vertex 80 20.0139 17.6418
      vertex 80 3 10.6643
      vertex 80 3 0
    endloop
  endfacet
  facet normal 1 0 0
    outer loop
      vertex 80 20.0139 17.6418
      vertex 80 3 0
      vertex 80 30 0
    endloop
  endfacet
  facet normal 1 0 0
    outer loop
      vertex 80 29.5106 23.0902
      vertex 80 24.1837 22.454
      vertex 80 24.4644 20.5019
    endloop
  endfacet
  facet normal 1 0 0
    outer loop
      vertex 80 22.8922 23.9444
      vertex 80 25.8779 28.0902
      vertex 80 24.0674 29.1355
    endloop
  endfacet
  facet normal 1 0 0
    outer loop
      vertex 80 27.4314 26.6913
      vertex 80 22.8922 23.9444
      vertex 80 24.1837 22.454
    endloop
  endfacet
  facet normal 1 0 0
    outer loop
      vertex 80 21 24.5
      vertex 80 24.0674 29.1355
      vertex 80 22.0791 29.7815
    endloop
  endfacet
  facet normal 1 0 0
    outer loop
      vertex 80 24.0674 29.1355
      vertex 80 21 24.5
      vertex 80 22.8922 23.9444
    endloop
  endfacet
  facet normal 1 0 0
    outer loop
      vertex 80 20 30
      vertex 80 21 24.5
      vertex 80 22.0791 29.7815
    endloop
  endfacet
  facet normal 1 0 0
    outer loop
      vertex 80 20 30
      vertex 80 19.1078 23.9444
      vertex 80 21 24.5
    endloop
  endfacet
  facet normal 1 0 0
    outer loop
      vertex 80 20 30
      vertex 80 17.8163 22.454
      vertex 80 19.1078 23.9444
    endloop
  endfacet
  facet normal 1 0 0
    outer loop
      vertex 80 0 30
      vertex 80 17.5356 20.5019
      vertex 80 17.8163 22.454
    endloop
  endfacet
  facet normal 1 -0 0
    outer loop
      vertex 80 0 30
      vertex 80 17.8163 22.454
      vertex 80 20 30
    endloop
  endfacet
  facet normal 1 0 0
    outer loop
      vertex 80 17.5356 20.5019
      vertex 80 0 30
      vertex 80 3 10.6643
    endloop
  endfacet
  facet normal 1 0 0
    outer loop
      vertex 80 3 10.6643
      vertex 80 0 30
      vertex 80 0 10.6643
    endloop
  endfacet
  facet normal -1 0 0
    outer loop
      vertex 77 25.7631 18.25
      vertex 77 24.4644 20.5019
      vertex 77 25.7631 23.75
    endloop
  endfacet
  facet normal -1 0 0
    outer loop
      vertex 77 25.7631 18.25
      vertex 77 23.6451 18.708
      vertex 77 24.4644 20.5019
    endloop
  endfacet
  facet normal -1 -0 0
    outer loop
      vertex 77 25.7631 18.25
      vertex 77 21.9861 17.6418
      vertex 77 23.6451 18.708
    endloop
  endfacet
  facet normal -1 0 0
    outer loop
      vertex 77 21 15.5
      vertex 77 21.9861 17.6418
      vertex 77 25.7631 18.25
    endloop
  endfacet
  facet normal -1 0 0
    outer loop
      vertex 77 21 15.5
      vertex 77 20.0139 17.6418
      vertex 77 21.9861 17.6418
    endloop
  endfacet
  facet normal -1 0 0
    outer loop
      vertex 77 16.2369 18.25
      vertex 77 20.0139 17.6418
      vertex 77 21 15.5
    endloop
  endfacet
  facet normal -1 -0 0
    outer loop
      vertex 77 18.3549 18.708
      vertex 77 16.2369 18.25
      vertex 77 17.5356 20.5019
    endloop
  endfacet
  facet normal -1 0 0
    outer loop
      vertex 77 20.0139 17.6418
      vertex 77 16.2369 18.25
      vertex 77 18.3549 18.708
    endloop
  endfacet
  facet normal -1 0 0
    outer loop
      vertex 77 24.1837 22.454
      vertex 77 25.7631 23.75
      vertex 77 24.4644 20.5019
    endloop
  endfacet
  facet normal -1 0 0
    outer loop
      vertex 77 22.8922 23.9444
      vertex 77 25.7631 23.75
      vertex 77 24.1837 22.454
    endloop
  endfacet
  facet normal -1 0 0
    outer loop
      vertex 77 21 26.5
      vertex 77 22.8922 23.9444
      vertex 77 21 24.5
    endloop
  endfacet
  facet normal -1 0 0
    outer loop
      vertex 77 22.8922 23.9444
      vertex 77 21 26.5
      vertex 77 25.7631 23.75
    endloop
  endfacet
  facet normal -1 0 0
    outer loop
      vertex 77 19.1078 23.9444
      vertex 77 21 26.5
      vertex 77 21 24.5
    endloop
  endfacet
  facet normal -1 0 0
    outer loop
      vertex 77 16.2369 23.75
      vertex 77 19.1078 23.9444
      vertex 77 17.8163 22.454
    endloop
  endfacet
  facet normal -1 0 0
    outer loop
      vertex 77 16.2369 23.75
      vertex 77 17.5356 20.5019
      vertex 77 16.2369 18.25
    endloop
  endfacet
  facet normal -1 -0 0
    outer loop
      vertex 77 19.1078 23.9444
      vertex 77 16.2369 23.75
      vertex 77 21 26.5
    endloop
  endfacet
  facet normal -1 0 0
    outer loop
      vertex 77 17.5356 20.5019
      vertex 77 16.2369 23.75
      vertex 77 17.8163 22.454
    endloop
  endfacet
  facet normal -1 0 0
    outer loop
      vertex 77 28.1447 16.875
      vertex 77 30 20
      vertex 77 30 3
    endloop
  endfacet
  facet normal -1 0 0
    outer loop
      vertex 77 29.25 21
      vertex 77 29.9452 21.0453
      vertex 77 29.9452 20
    endloop
  endfacet
  facet normal -1 -0 0
    outer loop
      vertex 77 30 20
      vertex 77 28.1447 16.875
      vertex 77 29.9452 20
    endloop
  endfacet
  facet normal -1 -0 0
    outer loop
      vertex 77 29.9452 21.0453
      vertex 77 29.25 21
      vertex 77 29.5106 23.0902
    endloop
  endfacet
  facet normal -1 -0 0
    outer loop
      vertex 77 29.9452 20
      vertex 77 28.1447 16.875
      vertex 77 29.25 21
    endloop
  endfacet
  facet normal -1 0 0
    outer loop
      vertex 77 30 3
      vertex 77 25.125 13.8553
      vertex 77 28.1447 16.875
    endloop
  endfacet
  facet normal -1 0 0
    outer loop
      vertex 77 30 3
      vertex 77 21 12.75
      vertex 77 25.125 13.8553
    endloop
  endfacet
  facet normal -1 0 0
    outer loop
      vertex 77 3 3
      vertex 77 21 12.75
      vertex 77 30 3
    endloop
  endfacet
  facet normal -1 -0 0
    outer loop
      vertex 77 13.8553 16.875
      vertex 77 3 3
      vertex 77 12.75 21
    endloop
  endfacet
  facet normal -1 -0 0
    outer loop
      vertex 77 16.875 13.8553
      vertex 77 3 3
      vertex 77 13.8553 16.875
    endloop
  endfacet
  facet normal -1 -0 0
    outer loop
      vertex 77 21 12.75
      vertex 77 3 3
      vertex 77 16.875 13.8553
    endloop
  endfacet
  facet normal -1 0 0
    outer loop
      vertex 77 28.1447 25.125
      vertex 77 29.5106 23.0902
      vertex 77 29.25 21
    endloop
  endfacet
  facet normal -1 0 0
    outer loop
      vertex 77 29.5106 23.0902
      vertex 77 28.1447 25.125
      vertex 77 28.6603 25
    endloop
  endfacet
  facet normal -1 0 0
    outer loop
      vertex 77 28.1447 25.125
      vertex 77 27.4314 26.6913
      vertex 77 28.6603 25
    endloop
  endfacet
  facet normal -1 0 0
    outer loop
      vertex 77 25.125 28.1447
      vertex 77 27.4314 26.6913
      vertex 77 28.1447 25.125
    endloop
  endfacet
  facet normal -1 0 0
    outer loop
      vertex 77 27.4314 26.6913
      vertex 77 25.125 28.1447
      vertex 77 25.8779 28.0902
    endloop
  endfacet
  facet normal -1 0 0
    outer loop
      vertex 77 25.125 28.1447
      vertex 77 24.0674 29.1355
      vertex 77 25.8779 28.0902
    endloop
  endfacet
  facet normal -1 0 0
    outer loop
      vertex 77 21 29.25
      vertex 77 24.0674 29.1355
      vertex 77 25.125 28.1447
    endloop
  endfacet
  facet normal -1 0 0
    outer loop
      vertex 77 24.0674 29.1355
      vertex 77 21 29.25
      vertex 77 22.0791 29.7815
    endloop
  endfacet
  facet normal -1 0 0
    outer loop
      vertex 77 21 29.25
      vertex 77 20 30
      vertex 77 22.0791 29.7815
    endloop
  endfacet
  facet normal -1 0 0
    outer loop
      vertex 77 16.875 28.1447
      vertex 77 20 30
      vertex 77 21 29.25
    endloop
  endfacet
  facet normal -1 0 0
    outer loop
      vertex 77 3 30
      vertex 77 12.75 21
      vertex 77 3 3
    endloop
  endfacet
  facet normal -1 0 0
    outer loop
      vertex 77 16.875 28.1447
      vertex 77 3 30
      vertex 77 20 30
    endloop
  endfacet
  facet normal -1 0 0
    outer loop
      vertex 77 13.8553 25.125
      vertex 77 3 30
      vertex 77 16.875 28.1447
    endloop
  endfacet
  facet normal -1 0 0
    outer loop
      vertex 77 12.75 21
      vertex 77 3 30
      vertex 77 13.8553 25.125
    endloop
  endfacet
  facet normal 0 0 0
    outer loop
      vertex 77 20 30
      vertex 77 3 30
      vertex 77 0 30
    endloop
  endfacet
  facet normal -0 0 1
    outer loop
      vertex 77 20 30
      vertex 80 0 30
      vertex 80 20 30
    endloop
  endfacet
  facet normal 0 0 1
    outer loop
      vertex 80 0 30
      vertex 77 20 30
      vertex 77 0 30
    endloop
  endfacet
  facet normal -0 0 1
    outer loop
      vertex 77 30 20
      vertex 80 29.9452 20
      vertex 80 30 20
    endloop
  endfacet
  facet normal 0 0 1
    outer loop
      vertex 80 29.9452 20
      vertex 77 30 20
      vertex 77 29.9452 20
    endloop
  endfacet
  facet normal 0 -0.281733 -0.959493
    outer loop
      vertex 77 21 24.5
      vertex 80 22.8922 23.9444
      vertex 80 21 24.5
    endloop
  endfacet
  facet normal -0 -0.281733 -0.959493
    outer loop
      vertex 80 22.8922 23.9444
      vertex 77 21 24.5
      vertex 77 22.8922 23.9444
    endloop
  endfacet
  facet normal -0 0 1
    outer loop
      vertex 77 21.9861 17.6418
      vertex 80 20.0139 17.6418
      vertex 80 21.9861 17.6418
    endloop
  endfacet
  facet normal 0 0 1
    outer loop
      vertex 80 20.0139 17.6418
      vertex 77 21.9861 17.6418
      vertex 77 20.0139 17.6418
    endloop
  endfacet
  facet normal 0 -0.909632 0.415415
    outer loop
      vertex 77 23.6451 18.708
      vertex 80 24.4644 20.5019
      vertex 77 24.4644 20.5019
    endloop
  endfacet
  facet normal 0 -0.909632 0.415415
    outer loop
      vertex 80 24.4644 20.5019
      vertex 77 23.6451 18.708
      vertex 80 23.6451 18.708
    endloop
  endfacet
  facet normal 0 -0.540641 0.841253
    outer loop
      vertex 77 23.6451 18.708
      vertex 80 21.9861 17.6418
      vertex 80 23.6451 18.708
    endloop
  endfacet
  facet normal 0 -0.540641 0.841253
    outer loop
      vertex 80 21.9861 17.6418
      vertex 77 23.6451 18.708
      vertex 77 21.9861 17.6418
    endloop
  endfacet
  facet normal 0 0.989821 -0.142315
    outer loop
      vertex 80 17.5356 20.5019
      vertex 77 17.8163 22.454
      vertex 80 17.8163 22.454
    endloop
  endfacet
  facet normal 0 0.989821 -0.142315
    outer loop
      vertex 77 17.8163 22.454
      vertex 80 17.5356 20.5019
      vertex 77 17.5356 20.5019
    endloop
  endfacet
  facet normal 0 0.755749 -0.654861
    outer loop
      vertex 80 17.8163 22.454
      vertex 77 19.1078 23.9444
      vertex 80 19.1078 23.9444
    endloop
  endfacet
  facet normal 0 0.755749 -0.654861
    outer loop
      vertex 77 19.1078 23.9444
      vertex 80 17.8163 22.454
      vertex 77 17.8163 22.454
    endloop
  endfacet
  facet normal 0 -0.989821 -0.142315
    outer loop
      vertex 77 24.4644 20.5019
      vertex 80 24.1837 22.454
      vertex 77 24.1837 22.454
    endloop
  endfacet
  facet normal 0 -0.989821 -0.142315
    outer loop
      vertex 80 24.1837 22.454
      vertex 77 24.4644 20.5019
      vertex 80 24.4644 20.5019
    endloop
  endfacet
  facet normal 0 -0.755749 -0.654861
    outer loop
      vertex 77 24.1837 22.454
      vertex 80 22.8922 23.9444
      vertex 77 22.8922 23.9444
    endloop
  endfacet
  facet normal 0 -0.755749 -0.654861
    outer loop
      vertex 80 22.8922 23.9444
      vertex 77 24.1837 22.454
      vertex 80 24.1837 22.454
    endloop
  endfacet
  facet normal 0 0.281733 -0.959493
    outer loop
      vertex 77 19.1078 23.9444
      vertex 80 21 24.5
      vertex 80 19.1078 23.9444
    endloop
  endfacet
  facet normal 0 0.281733 -0.959493
    outer loop
      vertex 80 21 24.5
      vertex 77 19.1078 23.9444
      vertex 77 21 24.5
    endloop
  endfacet
  facet normal 0 0.909632 0.415414
    outer loop
      vertex 80 18.3549 18.708
      vertex 77 17.5356 20.5019
      vertex 80 17.5356 20.5019
    endloop
  endfacet
  facet normal 0 0.909632 0.415414
    outer loop
      vertex 77 17.5356 20.5019
      vertex 80 18.3549 18.708
      vertex 77 18.3549 18.708
    endloop
  endfacet
  facet normal -0 0.540641 0.841253
    outer loop
      vertex 77 20.0139 17.6418
      vertex 80 18.3549 18.708
      vertex 80 20.0139 17.6418
    endloop
  endfacet
  facet normal 0 0.540641 0.841253
    outer loop
      vertex 80 18.3549 18.708
      vertex 77 20.0139 17.6418
      vertex 77 18.3549 18.708
    endloop
  endfacet
  facet normal -0 0.258819 0.965926
    outer loop
      vertex 71 25.125 28.1447
      vertex 77 21 29.25
      vertex 77 25.125 28.1447
    endloop
  endfacet
  facet normal 0 0.258819 0.965926
    outer loop
      vertex 77 21 29.25
      vertex 71 25.125 28.1447
      vertex 71 21 29.25
    endloop
  endfacet
  facet normal 0 0.258819 -0.965926
    outer loop
      vertex 71 21 12.75
      vertex 77 25.125 13.8553
      vertex 77 21 12.75
    endloop
  endfacet
  facet normal 0 0.258819 -0.965926
    outer loop
      vertex 77 25.125 13.8553
      vertex 71 21 12.75
      vertex 71 25.125 13.8553
    endloop
  endfacet
  facet normal 0 0.965926 0.258819
    outer loop
      vertex 77 29.25 21
      vertex 71 28.1447 25.125
      vertex 77 28.1447 25.125
    endloop
  endfacet
  facet normal 0 0.965926 0.258819
    outer loop
      vertex 71 28.1447 25.125
      vertex 77 29.25 21
      vertex 71 29.25 21
    endloop
  endfacet
  facet normal 0 0.707107 0.707107
    outer loop
      vertex 77 28.1447 25.125
      vertex 71 25.125 28.1447
      vertex 77 25.125 28.1447
    endloop
  endfacet
  facet normal 0 0.707107 0.707107
    outer loop
      vertex 71 25.125 28.1447
      vertex 77 28.1447 25.125
      vertex 71 28.1447 25.125
    endloop
  endfacet
  facet normal 0 0.965926 -0.258819
    outer loop
      vertex 77 28.1447 16.875
      vertex 71 29.25 21
      vertex 77 29.25 21
    endloop
  endfacet
  facet normal 0 0.965926 -0.258819
    outer loop
      vertex 71 29.25 21
      vertex 77 28.1447 16.875
      vertex 71 28.1447 16.875
    endloop
  endfacet
  facet normal 0 -0.965926 0.258819
    outer loop
      vertex 71 12.75 21
      vertex 77 13.8553 25.125
      vertex 71 13.8553 25.125
    endloop
  endfacet
  facet normal 0 -0.965926 0.258819
    outer loop
      vertex 77 13.8553 25.125
      vertex 71 12.75 21
      vertex 77 12.75 21
    endloop
  endfacet
  facet normal 0 0.707107 -0.707107
    outer loop
      vertex 77 25.125 13.8553
      vertex 71 28.1447 16.875
      vertex 77 28.1447 16.875
    endloop
  endfacet
  facet normal 0 0.707107 -0.707107
    outer loop
      vertex 71 28.1447 16.875
      vertex 77 25.125 13.8553
      vertex 71 25.125 13.8553
    endloop
  endfacet
  facet normal -1 0 0
    outer loop
      vertex 71 25.7631 18.25
      vertex 71 29.25 21
      vertex 71 28.1447 16.875
    endloop
  endfacet
  facet normal -1 0 0
    outer loop
      vertex 71 25.7631 23.75
      vertex 71 29.25 21
      vertex 71 25.7631 18.25
    endloop
  endfacet
  facet normal -1 0 0
    outer loop
      vertex 71 25.125 13.8553
      vertex 71 25.7631 18.25
      vertex 71 28.1447 16.875
    endloop
  endfacet
  facet normal -1 0 0
    outer loop
      vertex 71 21 15.5
      vertex 71 25.125 13.8553
      vertex 71 21 12.75
    endloop
  endfacet
  facet normal -1 0 0
    outer loop
      vertex 71 25.125 13.8553
      vertex 71 21 15.5
      vertex 71 25.7631 18.25
    endloop
  endfacet
  facet normal -1 0 0
    outer loop
      vertex 71 16.875 13.8553
      vertex 71 21 15.5
      vertex 71 21 12.75
    endloop
  endfacet
  facet normal -1 0 0
    outer loop
      vertex 71 16.875 13.8553
      vertex 71 16.2369 18.25
      vertex 71 21 15.5
    endloop
  endfacet
  facet normal -1 0 0
    outer loop
      vertex 71 12.75 21
      vertex 71 16.2369 18.25
      vertex 71 13.8553 16.875
    endloop
  endfacet
  facet normal -1 0 0
    outer loop
      vertex 71 13.8553 16.875
      vertex 71 16.2369 18.25
      vertex 71 16.875 13.8553
    endloop
  endfacet
  facet normal -1 0 0
    outer loop
      vertex 71 29.25 21
      vertex 71 25.7631 23.75
      vertex 71 28.1447 25.125
    endloop
  endfacet
  facet normal -1 0 0
    outer loop
      vertex 71 25.7631 23.75
      vertex 71 25.125 28.1447
      vertex 71 28.1447 25.125
    endloop
  endfacet
  facet normal -1 0 0
    outer loop
      vertex 71 21 26.5
      vertex 71 25.125 28.1447
      vertex 71 25.7631 23.75
    endloop
  endfacet
  facet normal -1 0 0
    outer loop
      vertex 71 21 26.5
      vertex 71 21 29.25
      vertex 71 25.125 28.1447
    endloop
  endfacet
  facet normal -1 0 0
    outer loop
      vertex 71 21 26.5
      vertex 71 16.875 28.1447
      vertex 71 21 29.25
    endloop
  endfacet
  facet normal -1 0 0
    outer loop
      vertex 71 16.2369 23.75
      vertex 71 16.875 28.1447
      vertex 71 21 26.5
    endloop
  endfacet
  facet normal -1 0 0
    outer loop
      vertex 71 16.2369 18.25
      vertex 71 12.75 21
      vertex 71 16.2369 23.75
    endloop
  endfacet
  facet normal -1 0 0
    outer loop
      vertex 71 16.2369 23.75
      vertex 71 13.8553 25.125
      vertex 71 16.875 28.1447
    endloop
  endfacet
  facet normal -1 -0 0
    outer loop
      vertex 71 16.2369 23.75
      vertex 71 12.75 21
      vertex 71 13.8553 25.125
    endloop
  endfacet
  facet normal 0 -0.965926 -0.258819
    outer loop
      vertex 71 13.8553 16.875
      vertex 77 12.75 21
      vertex 71 12.75 21
    endloop
  endfacet
  facet normal 0 -0.965926 -0.258819
    outer loop
      vertex 77 12.75 21
      vertex 71 13.8553 16.875
      vertex 77 13.8553 16.875
    endloop
  endfacet
  facet normal 0 -0.258819 -0.965926
    outer loop
      vertex 71 16.875 13.8553
      vertex 77 21 12.75
      vertex 77 16.875 13.8553
    endloop
  endfacet
  facet normal -0 -0.258819 -0.965926
    outer loop
      vertex 77 21 12.75
      vertex 71 16.875 13.8553
      vertex 71 21 12.75
    endloop
  endfacet
  facet normal 0 -0.707107 0.707107
    outer loop
      vertex 71 13.8553 25.125
      vertex 77 16.875 28.1447
      vertex 71 16.875 28.1447
    endloop
  endfacet
  facet normal 0 -0.707107 0.707107
    outer loop
      vertex 77 16.875 28.1447
      vertex 71 13.8553 25.125
      vertex 77 13.8553 25.125
    endloop
  endfacet
  facet normal 0 -0.258819 0.965926
    outer loop
      vertex 71 21 29.25
      vertex 77 16.875 28.1447
      vertex 77 21 29.25
    endloop
  endfacet
  facet normal 0 -0.258819 0.965926
    outer loop
      vertex 77 16.875 28.1447
      vertex 71 21 29.25
      vertex 71 16.875 28.1447
    endloop
  endfacet
  facet normal 0 -0.707107 -0.707107
    outer loop
      vertex 71 16.875 13.8553
      vertex 77 13.8553 16.875
      vertex 71 13.8553 16.875
    endloop
  endfacet
  facet normal 0 -0.707107 -0.707107
    outer loop
      vertex 77 13.8553 16.875
      vertex 71 16.875 13.8553
      vertex 77 16.875 13.8553
    endloop
  endfacet
  facet normal 0 -0.5 -0.866025
    outer loop
      vertex 71 21 26.5
      vertex 77 25.7631 23.75
      vertex 77 21 26.5
    endloop
  endfacet
  facet normal -0 -0.5 -0.866025
    outer loop
      vertex 77 25.7631 23.75
      vertex 71 21 26.5
      vertex 71 25.7631 23.75
    endloop
  endfacet
  facet normal 0 -0.5 0.866025
    outer loop
      vertex 71 25.7631 18.25
      vertex 77 21 15.5
      vertex 77 25.7631 18.25
    endloop
  endfacet
  facet normal 0 -0.5 0.866025
    outer loop
      vertex 77 21 15.5
      vertex 71 25.7631 18.25
      vertex 71 21 15.5
    endloop
  endfacet
  facet normal 0 -1 0
    outer loop
      vertex 71 25.7631 18.25
      vertex 77 25.7631 23.75
      vertex 71 25.7631 23.75
    endloop
  endfacet
  facet normal 0 -1 -0
    outer loop
      vertex 77 25.7631 23.75
      vertex 71 25.7631 18.25
      vertex 77 25.7631 18.25
    endloop
  endfacet
  facet normal 0 1 -0
    outer loop
      vertex 77 16.2369 18.25
      vertex 71 16.2369 23.75
      vertex 77 16.2369 23.75
    endloop
  endfacet
  facet normal 0 1 0
    outer loop
      vertex 71 16.2369 23.75
      vertex 77 16.2369 18.25
      vertex 71 16.2369 18.25
    endloop
  endfacet
  facet normal -0 0.5 0.866025
    outer loop
      vertex 71 21 15.5
      vertex 77 16.2369 18.25
      vertex 77 21 15.5
    endloop
  endfacet
  facet normal 0 0.5 0.866025
    outer loop
      vertex 77 16.2369 18.25
      vertex 71 21 15.5
      vertex 71 16.2369 18.25
    endloop
  endfacet
  facet normal 0 0.5 -0.866025
    outer loop
      vertex 71 16.2369 23.75
      vertex 77 21 26.5
      vertex 77 16.2369 23.75
    endloop
  endfacet
  facet normal 0 0.5 -0.866025
    outer loop
      vertex 77 21 26.5
      vertex 71 16.2369 23.75
      vertex 71 21 26.5
    endloop
  endfacet
endsolid OpenSCAD_Model
