solid OpenSCAD_Model
  facet normal 1 -0 0
    outer loop
      vertex 100 3 2
      vertex 100 57 0
      vertex 100 57 2
    endloop
  endfacet
  facet normal 1 0 0
    outer loop
      vertex 100 57 0
      vertex 100 3 2
      vertex 100 3 0
    endloop
  endfacet
  facet normal -0 0 1
    outer loop
      vertex 15 10 2
      vertex 20 0.109562 2
      vertex 90 10 2
    endloop
  endfacet
  facet normal 0 0 1
    outer loop
      vertex 20 0.109562 2
      vertex 15 10 2
      vertex 17.9094 0.109562 2
    endloop
  endfacet
  facet normal 0 0 1
    outer loop
      vertex 15 10 2
      vertex 13.8197 0.978869 2
      vertex 17.9094 0.109562 2
    endloop
  endfacet
  facet normal 0 0 1
    outer loop
      vertex 15 50 2
      vertex 0 40 2
      vertex 15 10 2
    endloop
  endfacet
  facet normal 0 0 1
    outer loop
      vertex 0 40 2
      vertex 13.8197 59.0211 2
      vertex 10 57.3205 2
    endloop
  endfacet
  facet normal -0 0 1
    outer loop
      vertex 0 20 2
      vertex 15 10 2
      vertex 0 40 2
    endloop
  endfacet
  facet normal 0 0 1
    outer loop
      vertex 0 40 2
      vertex 10 57.3205 2
      vertex 6.61739 54.8629 2
    endloop
  endfacet
  facet normal -0 -0 1
    outer loop
      vertex 0.437048 15.8418 2
      vertex 15 10 2
      vertex 0 20 2
    endloop
  endfacet
  facet normal 0 0 1
    outer loop
      vertex 0 40 2
      vertex 6.61739 54.8629 2
      vertex 3.81966 51.7557 2
    endloop
  endfacet
  facet normal 0 0 1
    outer loop
      vertex 15 10 2
      vertex 10 2.67949 2
      vertex 13.8197 0.978869 2
    endloop
  endfacet
  facet normal 0 0 1
    outer loop
      vertex 0 40 2
      vertex 3.81966 51.7557 2
      vertex 1.72909 48.1347 2
    endloop
  endfacet
  facet normal 0 0 1
    outer loop
      vertex 15 10 2
      vertex 6.61739 5.1371 2
      vertex 10 2.67949 2
    endloop
  endfacet
  facet normal 0 0 1
    outer loop
      vertex 0 40 2
      vertex 1.72909 48.1347 2
      vertex 0.437048 44.1582 2
    endloop
  endfacet
  facet normal 0 0 1
    outer loop
      vertex 15 10 2
      vertex 3.81966 8.24429 2
      vertex 6.61739 5.1371 2
    endloop
  endfacet
  facet normal 0 0 1
    outer loop
      vertex 15 10 2
      vertex 1.72909 11.8653 2
      vertex 3.81966 8.24429 2
    endloop
  endfacet
  facet normal 0 0 1
    outer loop
      vertex 15 10 2
      vertex 0.437048 15.8418 2
      vertex 1.72909 11.8653 2
    endloop
  endfacet
  facet normal 0 0 1
    outer loop
      vertex 134 60 2
      vertex 109 57 2
      vertex 134 0 2
    endloop
  endfacet
  facet normal 0 0 1
    outer loop
      vertex 134 60 2
      vertex 100 57 2
      vertex 109 57 2
    endloop
  endfacet
  facet normal 0 0 1
    outer loop
      vertex 100 57 2
      vertex 90 50 2
      vertex 100 3 2
    endloop
  endfacet
  facet normal -0 0 1
    outer loop
      vertex 20 60 2
      vertex 100 57 2
      vertex 134 60 2
    endloop
  endfacet
  facet normal 0 0 1
    outer loop
      vertex 20 60 2
      vertex 90 50 2
      vertex 100 57 2
    endloop
  endfacet
  facet normal -0 0 1
    outer loop
      vertex 20 59.8904 2
      vertex 90 50 2
      vertex 20 60 2
    endloop
  endfacet
  facet normal 0 0 1
    outer loop
      vertex 15 50 2
      vertex 20 59.8904 2
      vertex 17.9094 59.8904 2
    endloop
  endfacet
  facet normal 0 0 1
    outer loop
      vertex 20 59.8904 2
      vertex 15 50 2
      vertex 90 50 2
    endloop
  endfacet
  facet normal 0 0 1
    outer loop
      vertex 0 40 2
      vertex 15 50 2
      vertex 13.8197 59.0211 2
    endloop
  endfacet
  facet normal -0 0 1
    outer loop
      vertex 13.8197 59.0211 2
      vertex 15 50 2
      vertex 17.9094 59.8904 2
    endloop
  endfacet
  facet normal -0 0 1
    outer loop
      vertex 109 3 2
      vertex 134 0 2
      vertex 109 57 2
    endloop
  endfacet
  facet normal -0 0 1
    outer loop
      vertex 100 3 2
      vertex 134 0 2
      vertex 109 3 2
    endloop
  endfacet
  facet normal -0 0 1
    outer loop
      vertex 90 10 2
      vertex 100 3 2
      vertex 90 50 2
    endloop
  endfacet
  facet normal 0 0 1
    outer loop
      vertex 20 0 2
      vertex 90 10 2
      vertex 20 0.109562 2
    endloop
  endfacet
  facet normal 0 0 1
    outer loop
      vertex 90 10 2
      vertex 20 0 2
      vertex 100 3 2
    endloop
  endfacet
  facet normal 0 0 1
    outer loop
      vertex 100 3 2
      vertex 20 0 2
      vertex 134 0 2
    endloop
  endfacet
  facet normal -1 0 0
    outer loop
      vertex 109 3 0
      vertex 109 57 2
      vertex 109 57 0
    endloop
  endfacet
  facet normal -1 -0 0
    outer loop
      vertex 109 57 2
      vertex 109 3 0
      vertex 109 3 2
    endloop
  endfacet
  facet normal 0 1 -0
    outer loop
      vertex 134 60 0
      vertex 20 60 2
      vertex 134 60 2
    endloop
  endfacet
  facet normal 0 1 0
    outer loop
      vertex 20 60 2
      vertex 134 60 0
      vertex 20 60 0
    endloop
  endfacet
  facet normal 0 0 -1
    outer loop
      vertex 15 50 0
      vertex 20 59.8904 0
      vertex 90 50 0
    endloop
  endfacet
  facet normal -0 0 -1
    outer loop
      vertex 20 59.8904 0
      vertex 15 50 0
      vertex 17.9094 59.8904 0
    endloop
  endfacet
  facet normal 0 0 -1
    outer loop
      vertex 15 50 0
      vertex 13.8197 59.0211 0
      vertex 17.9094 59.8904 0
    endloop
  endfacet
  facet normal 0 0 -1
    outer loop
      vertex 15 10 0
      vertex 0 20 0
      vertex 15 50 0
    endloop
  endfacet
  facet normal 0 -0 -1
    outer loop
      vertex 0.437048 44.1582 0
      vertex 15 50 0
      vertex 0 40 0
    endloop
  endfacet
  facet normal 0 0 -1
    outer loop
      vertex 0 20 0
      vertex 13.8197 0.978869 0
      vertex 10 2.67949 0
    endloop
  endfacet
  facet normal 0 0 -1
    outer loop
      vertex 0 20 0
      vertex 10 2.67949 0
      vertex 6.61739 5.1371 0
    endloop
  endfacet
  facet normal 0 0 -1
    outer loop
      vertex 15 50 0
      vertex 0 20 0
      vertex 0 40 0
    endloop
  endfacet
  facet normal 0 0 -1
    outer loop
      vertex 0 20 0
      vertex 6.61739 5.1371 0
      vertex 3.81966 8.24429 0
    endloop
  endfacet
  facet normal 0 0 -1
    outer loop
      vertex 15 50 0
      vertex 10 57.3205 0
      vertex 13.8197 59.0211 0
    endloop
  endfacet
  facet normal 0 0 -1
    outer loop
      vertex 0 20 0
      vertex 3.81966 8.24429 0
      vertex 1.72909 11.8653 0
    endloop
  endfacet
  facet normal 0 0 -1
    outer loop
      vertex 15 50 0
      vertex 6.61739 54.8629 0
      vertex 10 57.3205 0
    endloop
  endfacet
  facet normal 0 0 -1
    outer loop
      vertex 0 20 0
      vertex 1.72909 11.8653 0
      vertex 0.437048 15.8418 0
    endloop
  endfacet
  facet normal 0 0 -1
    outer loop
      vertex 15 50 0
      vertex 3.81966 51.7557 0
      vertex 6.61739 54.8629 0
    endloop
  endfacet
  facet normal -0 0 -1
    outer loop
      vertex 15 50 0
      vertex 1.72909 48.1347 0
      vertex 3.81966 51.7557 0
    endloop
  endfacet
  facet normal 0 0 -1
    outer loop
      vertex 15 50 0
      vertex 0.437048 44.1582 0
      vertex 1.72909 48.1347 0
    endloop
  endfacet
  facet normal 0 0 -1
    outer loop
      vertex 134 0 0
      vertex 109 3 0
      vertex 134 60 0
    endloop
  endfacet
  facet normal 0 0 -1
    outer loop
      vertex 134 0 0
      vertex 100 3 0
      vertex 109 3 0
    endloop
  endfacet
  facet normal 0 0 -1
    outer loop
      vertex 100 3 0
      vertex 90 10 0
      vertex 100 57 0
    endloop
  endfacet
  facet normal 0 0 -1
    outer loop
      vertex 20 0 0
      vertex 100 3 0
      vertex 134 0 0
    endloop
  endfacet
  facet normal 0 0 -1
    outer loop
      vertex 20 0 0
      vertex 90 10 0
      vertex 100 3 0
    endloop
  endfacet
  facet normal 0 0 -1
    outer loop
      vertex 20 0.109562 0
      vertex 90 10 0
      vertex 20 0 0
    endloop
  endfacet
  facet normal 0 0 -1
    outer loop
      vertex 15 10 0
      vertex 20 0.109562 0
      vertex 17.9094 0.109562 0
    endloop
  endfacet
  facet normal 0 0 -1
    outer loop
      vertex 20 0.109562 0
      vertex 15 10 0
      vertex 90 10 0
    endloop
  endfacet
  facet normal 0 0 -1
    outer loop
      vertex 0 20 0
      vertex 15 10 0
      vertex 13.8197 0.978869 0
    endloop
  endfacet
  facet normal 0 0 -1
    outer loop
      vertex 13.8197 0.978869 0
      vertex 15 10 0
      vertex 17.9094 0.109562 0
    endloop
  endfacet
  facet normal 0 0 -1
    outer loop
      vertex 109 57 0
      vertex 134 60 0
      vertex 109 3 0
    endloop
  endfacet
  facet normal 0 0 -1
    outer loop
      vertex 100 57 0
      vertex 134 60 0
      vertex 109 57 0
    endloop
  endfacet
  facet normal 0 0 -1
    outer loop
      vertex 90 50 0
      vertex 100 57 0
      vertex 90 10 0
    endloop
  endfacet
  facet normal 0 0 -1
    outer loop
      vertex 20 60 0
      vertex 90 50 0
      vertex 20 59.8904 0
    endloop
  endfacet
  facet normal 0 0 -1
    outer loop
      vertex 90 50 0
      vertex 20 60 0
      vertex 100 57 0
    endloop
  endfacet
  facet normal 0 0 -1
    outer loop
      vertex 100 57 0
      vertex 20 60 0
      vertex 134 60 0
    endloop
  endfacet
  facet normal 0 -1 0
    outer loop
      vertex 20 0 0
      vertex 134 0 2
      vertex 20 0 2
    endloop
  endfacet
  facet normal 0 -1 -0
    outer loop
      vertex 134 0 2
      vertex 20 0 0
      vertex 134 0 0
    endloop
  endfacet
  facet normal 0 1 -0
    outer loop
      vertex 109 3 0
      vertex 100 3 2
      vertex 109 3 2
    endloop
  endfacet
  facet normal 0 1 0
    outer loop
      vertex 100 3 2
      vertex 109 3 0
      vertex 100 3 0
    endloop
  endfacet
  facet normal 0 -1 0
    outer loop
      vertex 100 57 0
      vertex 109 57 2
      vertex 100 57 2
    endloop
  endfacet
  facet normal 0 -1 -0
    outer loop
      vertex 109 57 2
      vertex 100 57 0
      vertex 109 57 0
    endloop
  endfacet
  facet normal 0 -1 0
    outer loop
      vertex 17.9094 0.109562 0
      vertex 20 0.109562 2
      vertex 17.9094 0.109562 2
    endloop
  endfacet
  facet normal 0 -1 -0
    outer loop
      vertex 20 0.109562 2
      vertex 17.9094 0.109562 0
      vertex 20 0.109562 0
    endloop
  endfacet
  facet normal -0.587785 -0.809017 0
    outer loop
      vertex 6.61739 5.1371 0
      vertex 10 2.67949 2
      vertex 6.61739 5.1371 2
    endloop
  endfacet
  facet normal -0.587785 -0.809017 -0
    outer loop
      vertex 10 2.67949 2
      vertex 6.61739 5.1371 0
      vertex 10 2.67949 0
    endloop
  endfacet
  facet normal -0.406737 0.913545 0
    outer loop
      vertex 13.8197 59.0211 0
      vertex 10 57.3205 2
      vertex 13.8197 59.0211 2
    endloop
  endfacet
  facet normal -0.406737 0.913545 0
    outer loop
      vertex 10 57.3205 2
      vertex 13.8197 59.0211 0
      vertex 10 57.3205 0
    endloop
  endfacet
  facet normal -0.406737 -0.913546 0
    outer loop
      vertex 10 2.67949 0
      vertex 13.8197 0.978869 2
      vertex 10 2.67949 2
    endloop
  endfacet
  facet normal -0.406737 -0.913546 -0
    outer loop
      vertex 13.8197 0.978869 2
      vertex 10 2.67949 0
      vertex 13.8197 0.978869 0
    endloop
  endfacet
  facet normal -0.951057 -0.309017 0
    outer loop
      vertex 1.72909 11.8653 0
      vertex 0.437048 15.8418 2
      vertex 0.437048 15.8418 0
    endloop
  endfacet
  facet normal -0.951057 -0.309017 0
    outer loop
      vertex 0.437048 15.8418 2
      vertex 1.72909 11.8653 0
      vertex 1.72909 11.8653 2
    endloop
  endfacet
  facet normal -0.207912 0.978148 0
    outer loop
      vertex 17.9094 59.8904 0
      vertex 13.8197 59.0211 2
      vertex 17.9094 59.8904 2
    endloop
  endfacet
  facet normal -0.207912 0.978148 0
    outer loop
      vertex 13.8197 59.0211 2
      vertex 17.9094 59.8904 0
      vertex 13.8197 59.0211 0
    endloop
  endfacet
  facet normal -0.207912 -0.978148 0
    outer loop
      vertex 13.8197 0.978869 0
      vertex 17.9094 0.109562 2
      vertex 13.8197 0.978869 2
    endloop
  endfacet
  facet normal -0.207912 -0.978148 -0
    outer loop
      vertex 17.9094 0.109562 2
      vertex 13.8197 0.978869 0
      vertex 17.9094 0.109562 0
    endloop
  endfacet
  facet normal -0.743145 -0.669131 0
    outer loop
      vertex 6.61739 5.1371 0
      vertex 3.81966 8.24429 2
      vertex 3.81966 8.24429 0
    endloop
  endfacet
  facet normal -0.743145 -0.669131 0
    outer loop
      vertex 3.81966 8.24429 2
      vertex 6.61739 5.1371 0
      vertex 6.61739 5.1371 2
    endloop
  endfacet
  facet normal 0 1 -0
    outer loop
      vertex 20 59.8904 0
      vertex 17.9094 59.8904 2
      vertex 20 59.8904 2
    endloop
  endfacet
  facet normal 0 1 0
    outer loop
      vertex 17.9094 59.8904 2
      vertex 20 59.8904 0
      vertex 17.9094 59.8904 0
    endloop
  endfacet
  facet normal -1 0 0
    outer loop
      vertex 0 20 0
      vertex 0 40 2
      vertex 0 40 0
    endloop
  endfacet
  facet normal -1 -0 0
    outer loop
      vertex 0 40 2
      vertex 0 20 0
      vertex 0 20 2
    endloop
  endfacet
  facet normal -0.743144 0.669131 0
    outer loop
      vertex 3.81966 51.7557 0
      vertex 6.61739 54.8629 2
      vertex 6.61739 54.8629 0
    endloop
  endfacet
  facet normal -0.743144 0.669131 0
    outer loop
      vertex 6.61739 54.8629 2
      vertex 3.81966 51.7557 0
      vertex 3.81966 51.7557 2
    endloop
  endfacet
  facet normal -0.587785 0.809017 0
    outer loop
      vertex 10 57.3205 0
      vertex 6.61739 54.8629 2
      vertex 10 57.3205 2
    endloop
  endfacet
  facet normal -0.587785 0.809017 0
    outer loop
      vertex 6.61739 54.8629 2
      vertex 10 57.3205 0
      vertex 6.61739 54.8629 0
    endloop
  endfacet
  facet normal -0.866026 -0.5 0
    outer loop
      vertex 3.81966 8.24429 0
      vertex 1.72909 11.8653 2
      vertex 1.72909 11.8653 0
    endloop
  endfacet
  facet normal -0.866026 -0.5 0
    outer loop
      vertex 1.72909 11.8653 2
      vertex 3.81966 8.24429 0
      vertex 3.81966 8.24429 2
    endloop
  endfacet
  facet normal -0.994522 0.104528 0
    outer loop
      vertex 0 40 0
      vertex 0.437048 44.1582 2
      vertex 0.437048 44.1582 0
    endloop
  endfacet
  facet normal -0.994522 0.104528 0
    outer loop
      vertex 0.437048 44.1582 2
      vertex 0 40 0
      vertex 0 40 2
    endloop
  endfacet
  facet normal -0.994522 -0.104528 0
    outer loop
      vertex 0.437048 15.8418 0
      vertex 0 20 2
      vertex 0 20 0
    endloop
  endfacet
  facet normal -0.994522 -0.104528 0
    outer loop
      vertex 0 20 2
      vertex 0.437048 15.8418 0
      vertex 0.437048 15.8418 2
    endloop
  endfacet
  facet normal -0.951056 0.309017 0
    outer loop
      vertex 0.437048 44.1582 0
      vertex 1.72909 48.1347 2
      vertex 1.72909 48.1347 0
    endloop
  endfacet
  facet normal -0.951056 0.309017 0
    outer loop
      vertex 1.72909 48.1347 2
      vertex 0.437048 44.1582 0
      vertex 0.437048 44.1582 2
    endloop
  endfacet
  facet normal -0.866026 0.5 0
    outer loop
      vertex 1.72909 48.1347 0
      vertex 3.81966 51.7557 2
      vertex 3.81966 51.7557 0
    endloop
  endfacet
  facet normal -0.866026 0.5 0
    outer loop
      vertex 3.81966 51.7557 2
      vertex 1.72909 48.1347 0
      vertex 1.72909 48.1347 2
    endloop
  endfacet
  facet normal -1 0 0
    outer loop
      vertex 20 0 0
      vertex 20 0.109562 2
      vertex 20 0.109562 0
    endloop
  endfacet
  facet normal -1 -0 0
    outer loop
      vertex 20 0.109562 2
      vertex 20 0 0
      vertex 20 0 2
    endloop
  endfacet
  facet normal -1 0 0
    outer loop
      vertex 20 59.8904 0
      vertex 20 60 2
      vertex 20 60 0
    endloop
  endfacet
  facet normal -1 -0 0
    outer loop
      vertex 20 60 2
      vertex 20 59.8904 0
      vertex 20 59.8904 2
    endloop
  endfacet
  facet normal 1 -0 0
    outer loop
      vertex 15 10 2
      vertex 15 50 0
      vertex 15 50 2
    endloop
  endfacet
  facet normal 1 0 0
    outer loop
      vertex 15 50 0
      vertex 15 10 2
      vertex 15 10 0
    endloop
  endfacet
  facet normal -1 0 0
    outer loop
      vertex 90 10 0
      vertex 90 50 2
      vertex 90 50 0
    endloop
  endfacet
  facet normal -1 -0 0
    outer loop
      vertex 90 50 2
      vertex 90 10 0
      vertex 90 10 2
    endloop
  endfacet
  facet normal 0 -1 0
    outer loop
      vertex 15 50 0
      vertex 90 50 2
      vertex 15 50 2
    endloop
  endfacet
  facet normal 0 -1 -0
    outer loop
      vertex 90 50 2
      vertex 15 50 0
      vertex 90 50 0
    endloop
  endfacet
  facet normal 0 1 -0
    outer loop
      vertex 90 10 0
      vertex 15 10 2
      vertex 90 10 2
    endloop
  endfacet
  facet normal 0 1 0
    outer loop
      vertex 15 10 2
      vertex 90 10 0
      vertex 15 10 0
    endloop
  endfacet
  facet normal 1 -0 0
    outer loop
      vertex 134 0 2
      vertex 134 60 0
      vertex 134 60 2
    endloop
  endfacet
  facet normal 1 0 0
    outer loop
      vertex 134 60 0
      vertex 134 0 2
      vertex 134 0 0
    endloop
  endfacet
endsolid OpenSCAD_Model
